G75*
G70*
%OFA0B0*%
%FSLAX24Y24*%
%IPPOS*%
%LPD*%
%AMOC8*
5,1,8,0,0,1.08239X$1,22.5*
%
%ADD10C,0.0098*%
%ADD11R,0.0394X0.0394*%
%ADD12R,0.0433X0.0394*%
%ADD13R,0.0300X0.0300*%
%ADD14R,0.0500X0.0500*%
%ADD15R,0.0748X0.0433*%
%ADD16R,0.0315X0.0472*%
%ADD17R,0.0240X0.0870*%
%ADD18R,0.1850X0.0689*%
%ADD19R,0.0945X0.0945*%
%ADD20R,0.0630X0.1063*%
%ADD21R,0.0551X0.0276*%
%ADD22R,0.0413X0.1900*%
%ADD23R,0.1220X0.1240*%
%ADD24R,0.0354X0.0315*%
%ADD25R,0.0590X0.0790*%
%ADD26R,0.1500X0.0790*%
%ADD27R,0.0169X0.0110*%
%ADD28R,0.0630X0.0098*%
%ADD29R,0.0098X0.0630*%
%ADD30R,0.0315X0.0354*%
%ADD31R,0.0500X0.0220*%
%ADD32R,0.0220X0.0500*%
%ADD33R,0.0394X0.0276*%
%ADD34R,0.0236X0.0276*%
%ADD35R,0.0248X0.0327*%
%ADD36R,0.0260X0.0800*%
%ADD37R,0.0591X0.0276*%
%ADD38R,0.0551X0.0709*%
%ADD39R,0.0748X0.0551*%
D10*
X034675Y011467D02*
X034971Y011467D01*
X034971Y011664D02*
X034675Y011664D01*
X034675Y011861D02*
X034971Y011861D01*
X034971Y012058D02*
X034675Y012058D01*
X034675Y012254D02*
X034971Y012254D01*
X034971Y012451D02*
X034675Y012451D01*
X034675Y012648D02*
X034971Y012648D01*
X034971Y012845D02*
X034675Y012845D01*
X034675Y013042D02*
X034971Y013042D01*
X034971Y013239D02*
X034675Y013239D01*
X035115Y013382D02*
X035115Y013678D01*
X035312Y013678D02*
X035312Y013382D01*
X035508Y013382D02*
X035508Y013678D01*
X035705Y013678D02*
X035705Y013382D01*
X035902Y013382D02*
X035902Y013678D01*
X036099Y013678D02*
X036099Y013382D01*
X036296Y013382D02*
X036296Y013678D01*
X036493Y013678D02*
X036493Y013382D01*
X036690Y013382D02*
X036690Y013678D01*
X036886Y013678D02*
X036886Y013382D01*
X037030Y013239D02*
X037326Y013239D01*
X037326Y013042D02*
X037030Y013042D01*
X037030Y012845D02*
X037326Y012845D01*
X037326Y012648D02*
X037030Y012648D01*
X037030Y012451D02*
X037326Y012451D01*
X037326Y012254D02*
X037030Y012254D01*
X037030Y012058D02*
X037326Y012058D01*
X037326Y011861D02*
X037030Y011861D01*
X037030Y011664D02*
X037326Y011664D01*
X037326Y011467D02*
X037030Y011467D01*
X036886Y011324D02*
X036886Y011028D01*
X036690Y011028D02*
X036690Y011324D01*
X036493Y011324D02*
X036493Y011028D01*
X036296Y011028D02*
X036296Y011324D01*
X036099Y011324D02*
X036099Y011028D01*
X035902Y011028D02*
X035902Y011324D01*
X035705Y011324D02*
X035705Y011028D01*
X035508Y011028D02*
X035508Y011324D01*
X035312Y011324D02*
X035312Y011028D01*
X035115Y011028D02*
X035115Y011324D01*
D11*
X035489Y011841D03*
X036001Y011841D03*
X036512Y011841D03*
X036512Y012353D03*
X036001Y012353D03*
X036001Y012865D03*
X036512Y012865D03*
X035489Y012865D03*
X035489Y012353D03*
X044266Y029410D03*
X045054Y029410D03*
X037554Y034660D03*
X036766Y034660D03*
D12*
X033245Y013660D03*
X032575Y013660D03*
X032870Y011410D03*
X032200Y011410D03*
D13*
X032860Y010785D03*
X033460Y010785D03*
X033910Y010210D03*
X033910Y009610D03*
X032960Y010160D03*
X032360Y010160D03*
X032110Y009410D03*
X032710Y009410D03*
X032710Y008410D03*
X032110Y008410D03*
X031460Y008410D03*
X030860Y008410D03*
X032610Y007410D03*
X033210Y007410D03*
X033610Y007410D03*
X034210Y007410D03*
X034860Y008660D03*
X035460Y008660D03*
X036110Y008660D03*
X036710Y008660D03*
X037623Y010860D03*
X037623Y011460D03*
X030410Y011360D03*
X029660Y011360D03*
X028910Y011360D03*
X028910Y011960D03*
X029660Y011960D03*
X030410Y011960D03*
X030410Y013360D03*
X029660Y013360D03*
X028910Y013360D03*
X028910Y013960D03*
X029660Y013960D03*
X030410Y013960D03*
X028160Y013960D03*
X027410Y013960D03*
X026660Y013860D03*
X026660Y014460D03*
X027410Y013360D03*
X028160Y013360D03*
X028160Y011960D03*
X027410Y011960D03*
X027410Y011360D03*
X028160Y011360D03*
X026660Y011460D03*
X026660Y010860D03*
X030610Y019160D03*
X031210Y019160D03*
X033610Y019560D03*
X034210Y019560D03*
X035110Y019910D03*
X035710Y019910D03*
X031210Y021160D03*
X030610Y021160D03*
X033360Y023910D03*
X033960Y023910D03*
X034210Y025410D03*
X034610Y025660D03*
X035210Y025660D03*
X033610Y025410D03*
X033710Y026410D03*
X033110Y026410D03*
X032460Y026410D03*
X031860Y026410D03*
X033860Y029160D03*
X034460Y029160D03*
X034860Y029410D03*
X035460Y029410D03*
X037360Y028910D03*
X037960Y028910D03*
X038860Y028160D03*
X039460Y028160D03*
X039710Y028660D03*
X039110Y028660D03*
X038960Y031160D03*
X038360Y031160D03*
X038460Y032410D03*
X037860Y032410D03*
X040610Y032660D03*
X041210Y032660D03*
X041210Y031660D03*
X040610Y031660D03*
X043110Y031160D03*
X043710Y031160D03*
X044660Y029960D03*
X044660Y029360D03*
X043910Y028960D03*
X043910Y028360D03*
X048860Y028660D03*
X049460Y028660D03*
X050360Y029410D03*
X050960Y029410D03*
X051860Y029410D03*
X052460Y029410D03*
X052860Y029160D03*
X053460Y029160D03*
X053710Y029910D03*
X053110Y029910D03*
X053110Y031160D03*
X053710Y031160D03*
X053860Y031910D03*
X053460Y032160D03*
X052860Y032160D03*
X054460Y031910D03*
X055110Y031160D03*
X055710Y031160D03*
X057360Y031410D03*
X057960Y031410D03*
X058210Y032160D03*
X057610Y032160D03*
X055710Y032910D03*
X055110Y032910D03*
X056360Y033410D03*
X056960Y033410D03*
X055710Y034410D03*
X055110Y034410D03*
X049210Y032160D03*
X048610Y032160D03*
X047960Y032410D03*
X047360Y032410D03*
X047210Y033160D03*
X046610Y033160D03*
X046710Y033660D03*
X046110Y033660D03*
X047860Y033910D03*
X048460Y033910D03*
X048710Y034910D03*
X048110Y034910D03*
X056110Y029160D03*
X056710Y029160D03*
X057860Y030160D03*
X058460Y030160D03*
X036210Y034410D03*
X035610Y034410D03*
X035460Y034660D03*
X034860Y034660D03*
X032210Y032410D03*
X032360Y031910D03*
X032960Y031910D03*
X033610Y031660D03*
X034110Y031410D03*
X034210Y031660D03*
X034360Y032160D03*
X034960Y032160D03*
X034710Y031410D03*
X034710Y030910D03*
X034110Y030910D03*
X033210Y030660D03*
X032960Y030410D03*
X032610Y030660D03*
X032360Y030410D03*
X031960Y031160D03*
X031360Y031160D03*
X030960Y030910D03*
X030710Y030410D03*
X030110Y030410D03*
X030360Y030910D03*
X030360Y029910D03*
X030960Y029910D03*
X032610Y029660D03*
X033210Y029660D03*
X031460Y031910D03*
X031610Y032410D03*
X030960Y032160D03*
X030860Y031910D03*
X030360Y032160D03*
D14*
X035110Y018660D03*
X035910Y018660D03*
X035460Y007360D03*
X034660Y007360D03*
D15*
X034932Y009457D03*
X034932Y010363D03*
X036388Y010363D03*
X036388Y009457D03*
D16*
X034014Y008160D03*
X033306Y008160D03*
X036056Y007410D03*
X036764Y007410D03*
X033264Y012410D03*
X032556Y012410D03*
X033056Y014660D03*
X033764Y014660D03*
X034056Y017160D03*
X034764Y017160D03*
X051806Y030910D03*
X052514Y030910D03*
X058306Y028910D03*
X059014Y028910D03*
X047014Y034910D03*
X046306Y034910D03*
D17*
X029910Y021440D03*
X029410Y021440D03*
X028910Y021440D03*
X028410Y021440D03*
X028410Y019380D03*
X028910Y019380D03*
X029410Y019380D03*
X029910Y019380D03*
D18*
X028910Y018160D03*
X028910Y015778D03*
D19*
X031294Y017910D03*
X033026Y017910D03*
D20*
X032461Y015910D03*
X031359Y015910D03*
X029461Y022910D03*
X028359Y022910D03*
D21*
X050367Y024410D03*
X050367Y024910D03*
X050367Y025410D03*
X050367Y025910D03*
D22*
X052424Y025155D03*
D23*
X051617Y025160D03*
D24*
X032343Y020160D03*
X031516Y019786D03*
X031516Y020534D03*
D25*
X035020Y015170D03*
X035920Y015170D03*
X036820Y015170D03*
D26*
X035910Y017650D03*
D27*
X024988Y013060D03*
X024988Y013260D03*
X024988Y014060D03*
X024988Y014260D03*
D28*
X046205Y009906D03*
X046205Y009749D03*
X046205Y009591D03*
X046205Y009434D03*
X046205Y009276D03*
X046205Y009119D03*
X046205Y008961D03*
X046205Y008804D03*
X046205Y008646D03*
X046205Y008489D03*
X046205Y008331D03*
X046205Y008174D03*
X046205Y008016D03*
X046205Y007859D03*
X046205Y007701D03*
X046205Y007544D03*
X046205Y007386D03*
X046205Y007229D03*
X046205Y007071D03*
X046205Y006914D03*
X050615Y006914D03*
X050615Y007071D03*
X050615Y007229D03*
X050615Y007386D03*
X050615Y007544D03*
X050615Y007701D03*
X050615Y007859D03*
X050615Y008016D03*
X050615Y008174D03*
X050615Y008331D03*
X050615Y008489D03*
X050615Y008646D03*
X050615Y008804D03*
X050615Y008961D03*
X050615Y009119D03*
X050615Y009276D03*
X050615Y009434D03*
X050615Y009591D03*
X050615Y009749D03*
X050615Y009906D03*
D29*
X049906Y010615D03*
X049749Y010615D03*
X049591Y010615D03*
X049434Y010615D03*
X049276Y010615D03*
X049119Y010615D03*
X048961Y010615D03*
X048804Y010615D03*
X048646Y010615D03*
X048489Y010615D03*
X048331Y010615D03*
X048174Y010615D03*
X048016Y010615D03*
X047859Y010615D03*
X047701Y010615D03*
X047544Y010615D03*
X047386Y010615D03*
X047229Y010615D03*
X047071Y010615D03*
X046914Y010615D03*
X046914Y006205D03*
X047071Y006205D03*
X047229Y006205D03*
X047386Y006205D03*
X047544Y006205D03*
X047701Y006205D03*
X047859Y006205D03*
X048016Y006205D03*
X048174Y006205D03*
X048331Y006205D03*
X048489Y006205D03*
X048646Y006205D03*
X048804Y006205D03*
X048961Y006205D03*
X049119Y006205D03*
X049276Y006205D03*
X049434Y006205D03*
X049591Y006205D03*
X049749Y006205D03*
X049906Y006205D03*
D30*
X053286Y033766D03*
X054034Y033766D03*
X053660Y034593D03*
D31*
X049850Y017012D03*
X049850Y016697D03*
X049850Y016382D03*
X049850Y016067D03*
X049850Y015753D03*
X049850Y015438D03*
X049850Y015123D03*
X049850Y014808D03*
X046470Y014808D03*
X046470Y015123D03*
X046470Y015438D03*
X046470Y015753D03*
X046470Y016067D03*
X046470Y016382D03*
X046470Y016697D03*
X046470Y017012D03*
D32*
X047058Y017600D03*
X047373Y017600D03*
X047688Y017600D03*
X048003Y017600D03*
X048317Y017600D03*
X048632Y017600D03*
X048947Y017600D03*
X049262Y017600D03*
X049262Y014220D03*
X048947Y014220D03*
X048632Y014220D03*
X048317Y014220D03*
X048003Y014220D03*
X047688Y014220D03*
X047373Y014220D03*
X047058Y014220D03*
D33*
X054365Y029516D03*
D34*
X055034Y029516D03*
X055034Y030304D03*
X054286Y030304D03*
D35*
X052363Y032160D03*
X051457Y032160D03*
D36*
X039910Y032620D03*
X039410Y032620D03*
X038910Y032620D03*
X038410Y032620D03*
X037910Y032620D03*
X037410Y032620D03*
X036910Y032620D03*
X036410Y032620D03*
X036410Y030200D03*
X036910Y030200D03*
X037410Y030200D03*
X037910Y030200D03*
X038410Y030200D03*
X038910Y030200D03*
X039410Y030200D03*
X039910Y030200D03*
D37*
X058599Y016203D03*
X058441Y015770D03*
X058599Y015337D03*
X058756Y014904D03*
X058599Y014471D03*
X058756Y014038D03*
X058599Y013605D03*
X058599Y013172D03*
D38*
X054583Y013447D03*
X054583Y015810D03*
D39*
X060095Y018014D03*
X059741Y012817D03*
M02*
