G75*
G70*
%OFA0B0*%
%FSLAX24Y24*%
%IPPOS*%
%LPD*%
%AMOC8*
5,1,8,0,0,1.08239X$1,22.5*
%
%ADD10C,0.0000*%
D10*
X054805Y020230D02*
X054805Y021096D01*
X055002Y021293D02*
X055028Y021291D01*
X055053Y021286D01*
X055077Y021278D01*
X055101Y021267D01*
X055122Y021252D01*
X055141Y021235D01*
X055158Y021216D01*
X055173Y021194D01*
X055184Y021171D01*
X055192Y021147D01*
X055197Y021122D01*
X055199Y021096D01*
X055199Y020230D01*
X055197Y020204D01*
X055192Y020179D01*
X055184Y020155D01*
X055173Y020131D01*
X055158Y020110D01*
X055141Y020091D01*
X055122Y020074D01*
X055100Y020059D01*
X055077Y020048D01*
X055053Y020040D01*
X055028Y020035D01*
X055002Y020033D01*
X055002Y021293D01*
X054976Y021291D01*
X054951Y021286D01*
X054927Y021278D01*
X054903Y021267D01*
X054882Y021252D01*
X054863Y021235D01*
X054846Y021216D01*
X054831Y021195D01*
X054820Y021171D01*
X054812Y021147D01*
X054807Y021122D01*
X054805Y021096D01*
X054805Y020230D02*
X054807Y020204D01*
X054812Y020179D01*
X054820Y020155D01*
X054831Y020132D01*
X054846Y020110D01*
X054863Y020091D01*
X054882Y020074D01*
X054903Y020059D01*
X054927Y020048D01*
X054951Y020040D01*
X054976Y020035D01*
X055002Y020033D01*
X057210Y020230D02*
X057210Y021096D01*
X057407Y021293D02*
X057433Y021291D01*
X057458Y021286D01*
X057482Y021278D01*
X057506Y021267D01*
X057527Y021252D01*
X057546Y021235D01*
X057563Y021216D01*
X057578Y021194D01*
X057589Y021171D01*
X057597Y021147D01*
X057602Y021122D01*
X057604Y021096D01*
X057604Y020230D01*
X057602Y020204D01*
X057597Y020179D01*
X057589Y020155D01*
X057578Y020131D01*
X057563Y020110D01*
X057546Y020091D01*
X057527Y020074D01*
X057505Y020059D01*
X057482Y020048D01*
X057458Y020040D01*
X057433Y020035D01*
X057407Y020033D01*
X057381Y020035D01*
X057356Y020040D01*
X057332Y020048D01*
X057308Y020059D01*
X057287Y020074D01*
X057268Y020091D01*
X057251Y020110D01*
X057236Y020132D01*
X057225Y020155D01*
X057217Y020179D01*
X057212Y020204D01*
X057210Y020230D01*
X057210Y021096D02*
X057212Y021122D01*
X057217Y021147D01*
X057225Y021171D01*
X057236Y021195D01*
X057251Y021216D01*
X057268Y021235D01*
X057287Y021252D01*
X057308Y021267D01*
X057332Y021278D01*
X057356Y021286D01*
X057381Y021291D01*
X057407Y021293D01*
X056629Y022360D02*
X055762Y022360D01*
X055736Y022362D01*
X055711Y022367D01*
X055687Y022375D01*
X055663Y022386D01*
X055642Y022401D01*
X055623Y022418D01*
X055606Y022437D01*
X055591Y022459D01*
X055580Y022482D01*
X055572Y022506D01*
X055567Y022531D01*
X055565Y022557D01*
X055567Y022583D01*
X055572Y022608D01*
X055580Y022632D01*
X055591Y022656D01*
X055606Y022677D01*
X055623Y022696D01*
X055642Y022713D01*
X055663Y022728D01*
X055687Y022739D01*
X055711Y022747D01*
X055736Y022752D01*
X055762Y022754D01*
X056629Y022754D01*
X056826Y022557D02*
X056824Y022531D01*
X056819Y022506D01*
X056811Y022482D01*
X056800Y022458D01*
X056785Y022437D01*
X056768Y022418D01*
X056749Y022401D01*
X056727Y022386D01*
X056704Y022375D01*
X056680Y022367D01*
X056655Y022362D01*
X056629Y022360D01*
X056826Y022557D02*
X056824Y022583D01*
X056819Y022608D01*
X056811Y022632D01*
X056800Y022655D01*
X056785Y022677D01*
X056768Y022696D01*
X056749Y022713D01*
X056728Y022728D01*
X056704Y022739D01*
X056680Y022747D01*
X056655Y022752D01*
X056629Y022754D01*
M02*
