G75*
G70*
%OFA0B0*%
%FSLAX24Y24*%
%IPPOS*%
%LPD*%
%AMOC8*
5,1,8,0,0,1.08239X$1,22.5*
%
%ADD10C,0.0000*%
%ADD11R,0.1575X0.1575*%
%ADD12C,0.0098*%
%ADD13R,0.0433X0.0394*%
%ADD14R,0.0787X0.0787*%
%ADD15R,0.0300X0.0300*%
%ADD16R,0.0500X0.0500*%
%ADD17R,0.0748X0.0433*%
%ADD18R,0.0315X0.0472*%
%ADD19R,0.0240X0.0870*%
%ADD20OC8,0.0630*%
%ADD21C,0.0630*%
%ADD22R,0.1850X0.0689*%
%ADD23R,0.0945X0.0945*%
%ADD24R,0.0630X0.1063*%
%ADD25R,0.0551X0.0276*%
%ADD26R,0.1693X0.1969*%
%ADD27C,0.1500*%
%ADD28OC8,0.0850*%
%ADD29R,0.0354X0.0315*%
%ADD30R,0.0590X0.0790*%
%ADD31R,0.1500X0.0790*%
%ADD32C,0.0787*%
%ADD33R,0.0169X0.0110*%
%ADD34R,0.0630X0.0098*%
%ADD35R,0.0098X0.0630*%
%ADD36C,0.0394*%
%ADD37R,0.0514X0.0514*%
%ADD38C,0.0514*%
%ADD39C,0.0560*%
%ADD40OC8,0.0802*%
%ADD41R,0.0394X0.0394*%
%ADD42R,0.0315X0.0354*%
%ADD43R,0.0500X0.0220*%
%ADD44R,0.0220X0.0500*%
%ADD45R,0.0394X0.0276*%
%ADD46R,0.0236X0.0276*%
%ADD47C,0.0480*%
%ADD48R,0.0700X0.0700*%
%ADD49OC8,0.0700*%
%ADD50C,0.0740*%
%ADD51R,0.0248X0.0327*%
%ADD52C,0.0760*%
%ADD53R,0.0260X0.0800*%
%ADD54R,0.0591X0.0276*%
%ADD55R,0.0551X0.0709*%
%ADD56R,0.0748X0.0551*%
%ADD57C,0.0357*%
%ADD58C,0.0160*%
%ADD59C,0.0080*%
%ADD60C,0.0120*%
%ADD61C,0.0140*%
%ADD62C,0.0100*%
%ADD63C,0.1300*%
D10*
X002410Y000410D02*
X059410Y000410D01*
X058819Y002160D02*
X058821Y002208D01*
X058827Y002256D01*
X058837Y002303D01*
X058850Y002349D01*
X058868Y002394D01*
X058888Y002438D01*
X058913Y002480D01*
X058941Y002519D01*
X058971Y002556D01*
X059005Y002590D01*
X059042Y002622D01*
X059080Y002651D01*
X059121Y002676D01*
X059164Y002698D01*
X059209Y002716D01*
X059255Y002730D01*
X059302Y002741D01*
X059350Y002748D01*
X059398Y002751D01*
X059446Y002750D01*
X059494Y002745D01*
X059542Y002736D01*
X059588Y002724D01*
X059633Y002707D01*
X059677Y002687D01*
X059719Y002664D01*
X059759Y002637D01*
X059797Y002607D01*
X059832Y002574D01*
X059864Y002538D01*
X059894Y002500D01*
X059920Y002459D01*
X059942Y002416D01*
X059962Y002372D01*
X059977Y002327D01*
X059989Y002280D01*
X059997Y002232D01*
X060001Y002184D01*
X060001Y002136D01*
X059997Y002088D01*
X059989Y002040D01*
X059977Y001993D01*
X059962Y001948D01*
X059942Y001904D01*
X059920Y001861D01*
X059894Y001820D01*
X059864Y001782D01*
X059832Y001746D01*
X059797Y001713D01*
X059759Y001683D01*
X059719Y001656D01*
X059677Y001633D01*
X059633Y001613D01*
X059588Y001596D01*
X059542Y001584D01*
X059494Y001575D01*
X059446Y001570D01*
X059398Y001569D01*
X059350Y001572D01*
X059302Y001579D01*
X059255Y001590D01*
X059209Y001604D01*
X059164Y001622D01*
X059121Y001644D01*
X059080Y001669D01*
X059042Y001698D01*
X059005Y001730D01*
X058971Y001764D01*
X058941Y001801D01*
X058913Y001840D01*
X058888Y001882D01*
X058868Y001926D01*
X058850Y001971D01*
X058837Y002017D01*
X058827Y002064D01*
X058821Y002112D01*
X058819Y002160D01*
X059410Y000410D02*
X059493Y000412D01*
X059576Y000418D01*
X059659Y000428D01*
X059741Y000442D01*
X059823Y000459D01*
X059903Y000481D01*
X059982Y000506D01*
X060060Y000535D01*
X060137Y000568D01*
X060212Y000605D01*
X060285Y000644D01*
X060356Y000688D01*
X060425Y000734D01*
X060492Y000784D01*
X060556Y000837D01*
X060618Y000893D01*
X060677Y000952D01*
X060733Y001014D01*
X060786Y001078D01*
X060836Y001145D01*
X060882Y001214D01*
X060926Y001285D01*
X060965Y001358D01*
X061002Y001433D01*
X061035Y001510D01*
X061064Y001588D01*
X061089Y001667D01*
X061111Y001747D01*
X061128Y001829D01*
X061142Y001911D01*
X061152Y001994D01*
X061158Y002077D01*
X061160Y002160D01*
X061160Y025410D01*
X058819Y025410D02*
X058821Y025458D01*
X058827Y025506D01*
X058837Y025553D01*
X058850Y025599D01*
X058868Y025644D01*
X058888Y025688D01*
X058913Y025730D01*
X058941Y025769D01*
X058971Y025806D01*
X059005Y025840D01*
X059042Y025872D01*
X059080Y025901D01*
X059121Y025926D01*
X059164Y025948D01*
X059209Y025966D01*
X059255Y025980D01*
X059302Y025991D01*
X059350Y025998D01*
X059398Y026001D01*
X059446Y026000D01*
X059494Y025995D01*
X059542Y025986D01*
X059588Y025974D01*
X059633Y025957D01*
X059677Y025937D01*
X059719Y025914D01*
X059759Y025887D01*
X059797Y025857D01*
X059832Y025824D01*
X059864Y025788D01*
X059894Y025750D01*
X059920Y025709D01*
X059942Y025666D01*
X059962Y025622D01*
X059977Y025577D01*
X059989Y025530D01*
X059997Y025482D01*
X060001Y025434D01*
X060001Y025386D01*
X059997Y025338D01*
X059989Y025290D01*
X059977Y025243D01*
X059962Y025198D01*
X059942Y025154D01*
X059920Y025111D01*
X059894Y025070D01*
X059864Y025032D01*
X059832Y024996D01*
X059797Y024963D01*
X059759Y024933D01*
X059719Y024906D01*
X059677Y024883D01*
X059633Y024863D01*
X059588Y024846D01*
X059542Y024834D01*
X059494Y024825D01*
X059446Y024820D01*
X059398Y024819D01*
X059350Y024822D01*
X059302Y024829D01*
X059255Y024840D01*
X059209Y024854D01*
X059164Y024872D01*
X059121Y024894D01*
X059080Y024919D01*
X059042Y024948D01*
X059005Y024980D01*
X058971Y025014D01*
X058941Y025051D01*
X058913Y025090D01*
X058888Y025132D01*
X058868Y025176D01*
X058850Y025221D01*
X058837Y025267D01*
X058827Y025314D01*
X058821Y025362D01*
X058819Y025410D01*
X059410Y027160D02*
X059493Y027158D01*
X059576Y027152D01*
X059659Y027142D01*
X059741Y027128D01*
X059823Y027111D01*
X059903Y027089D01*
X059982Y027064D01*
X060060Y027035D01*
X060137Y027002D01*
X060212Y026965D01*
X060285Y026926D01*
X060356Y026882D01*
X060425Y026836D01*
X060492Y026786D01*
X060556Y026733D01*
X060618Y026677D01*
X060677Y026618D01*
X060733Y026556D01*
X060786Y026492D01*
X060836Y026425D01*
X060882Y026356D01*
X060926Y026285D01*
X060965Y026212D01*
X061002Y026137D01*
X061035Y026060D01*
X061064Y025982D01*
X061089Y025903D01*
X061111Y025823D01*
X061128Y025741D01*
X061142Y025659D01*
X061152Y025576D01*
X061158Y025493D01*
X061160Y025410D01*
X059410Y027160D02*
X002410Y027160D01*
X001819Y025410D02*
X001821Y025458D01*
X001827Y025506D01*
X001837Y025553D01*
X001850Y025599D01*
X001868Y025644D01*
X001888Y025688D01*
X001913Y025730D01*
X001941Y025769D01*
X001971Y025806D01*
X002005Y025840D01*
X002042Y025872D01*
X002080Y025901D01*
X002121Y025926D01*
X002164Y025948D01*
X002209Y025966D01*
X002255Y025980D01*
X002302Y025991D01*
X002350Y025998D01*
X002398Y026001D01*
X002446Y026000D01*
X002494Y025995D01*
X002542Y025986D01*
X002588Y025974D01*
X002633Y025957D01*
X002677Y025937D01*
X002719Y025914D01*
X002759Y025887D01*
X002797Y025857D01*
X002832Y025824D01*
X002864Y025788D01*
X002894Y025750D01*
X002920Y025709D01*
X002942Y025666D01*
X002962Y025622D01*
X002977Y025577D01*
X002989Y025530D01*
X002997Y025482D01*
X003001Y025434D01*
X003001Y025386D01*
X002997Y025338D01*
X002989Y025290D01*
X002977Y025243D01*
X002962Y025198D01*
X002942Y025154D01*
X002920Y025111D01*
X002894Y025070D01*
X002864Y025032D01*
X002832Y024996D01*
X002797Y024963D01*
X002759Y024933D01*
X002719Y024906D01*
X002677Y024883D01*
X002633Y024863D01*
X002588Y024846D01*
X002542Y024834D01*
X002494Y024825D01*
X002446Y024820D01*
X002398Y024819D01*
X002350Y024822D01*
X002302Y024829D01*
X002255Y024840D01*
X002209Y024854D01*
X002164Y024872D01*
X002121Y024894D01*
X002080Y024919D01*
X002042Y024948D01*
X002005Y024980D01*
X001971Y025014D01*
X001941Y025051D01*
X001913Y025090D01*
X001888Y025132D01*
X001868Y025176D01*
X001850Y025221D01*
X001837Y025267D01*
X001827Y025314D01*
X001821Y025362D01*
X001819Y025410D01*
X000660Y025410D02*
X000662Y025493D01*
X000668Y025576D01*
X000678Y025659D01*
X000692Y025741D01*
X000709Y025823D01*
X000731Y025903D01*
X000756Y025982D01*
X000785Y026060D01*
X000818Y026137D01*
X000855Y026212D01*
X000894Y026285D01*
X000938Y026356D01*
X000984Y026425D01*
X001034Y026492D01*
X001087Y026556D01*
X001143Y026618D01*
X001202Y026677D01*
X001264Y026733D01*
X001328Y026786D01*
X001395Y026836D01*
X001464Y026882D01*
X001535Y026926D01*
X001608Y026965D01*
X001683Y027002D01*
X001760Y027035D01*
X001838Y027064D01*
X001917Y027089D01*
X001997Y027111D01*
X002079Y027128D01*
X002161Y027142D01*
X002244Y027152D01*
X002327Y027158D01*
X002410Y027160D01*
X000660Y025410D02*
X000660Y002160D01*
X001819Y002160D02*
X001821Y002208D01*
X001827Y002256D01*
X001837Y002303D01*
X001850Y002349D01*
X001868Y002394D01*
X001888Y002438D01*
X001913Y002480D01*
X001941Y002519D01*
X001971Y002556D01*
X002005Y002590D01*
X002042Y002622D01*
X002080Y002651D01*
X002121Y002676D01*
X002164Y002698D01*
X002209Y002716D01*
X002255Y002730D01*
X002302Y002741D01*
X002350Y002748D01*
X002398Y002751D01*
X002446Y002750D01*
X002494Y002745D01*
X002542Y002736D01*
X002588Y002724D01*
X002633Y002707D01*
X002677Y002687D01*
X002719Y002664D01*
X002759Y002637D01*
X002797Y002607D01*
X002832Y002574D01*
X002864Y002538D01*
X002894Y002500D01*
X002920Y002459D01*
X002942Y002416D01*
X002962Y002372D01*
X002977Y002327D01*
X002989Y002280D01*
X002997Y002232D01*
X003001Y002184D01*
X003001Y002136D01*
X002997Y002088D01*
X002989Y002040D01*
X002977Y001993D01*
X002962Y001948D01*
X002942Y001904D01*
X002920Y001861D01*
X002894Y001820D01*
X002864Y001782D01*
X002832Y001746D01*
X002797Y001713D01*
X002759Y001683D01*
X002719Y001656D01*
X002677Y001633D01*
X002633Y001613D01*
X002588Y001596D01*
X002542Y001584D01*
X002494Y001575D01*
X002446Y001570D01*
X002398Y001569D01*
X002350Y001572D01*
X002302Y001579D01*
X002255Y001590D01*
X002209Y001604D01*
X002164Y001622D01*
X002121Y001644D01*
X002080Y001669D01*
X002042Y001698D01*
X002005Y001730D01*
X001971Y001764D01*
X001941Y001801D01*
X001913Y001840D01*
X001888Y001882D01*
X001868Y001926D01*
X001850Y001971D01*
X001837Y002017D01*
X001827Y002064D01*
X001821Y002112D01*
X001819Y002160D01*
X000660Y002160D02*
X000662Y002077D01*
X000668Y001994D01*
X000678Y001911D01*
X000692Y001829D01*
X000709Y001747D01*
X000731Y001667D01*
X000756Y001588D01*
X000785Y001510D01*
X000818Y001433D01*
X000855Y001358D01*
X000894Y001285D01*
X000938Y001214D01*
X000984Y001145D01*
X001034Y001078D01*
X001087Y001014D01*
X001143Y000952D01*
X001202Y000893D01*
X001264Y000837D01*
X001328Y000784D01*
X001395Y000734D01*
X001464Y000688D01*
X001535Y000644D01*
X001608Y000605D01*
X001683Y000568D01*
X001760Y000535D01*
X001838Y000506D01*
X001917Y000481D01*
X001997Y000459D01*
X002079Y000442D01*
X002161Y000428D01*
X002244Y000418D01*
X002327Y000412D01*
X002410Y000410D01*
X056020Y006160D02*
X056022Y006210D01*
X056028Y006260D01*
X056038Y006309D01*
X056051Y006358D01*
X056069Y006405D01*
X056090Y006451D01*
X056114Y006494D01*
X056142Y006536D01*
X056173Y006576D01*
X056207Y006613D01*
X056244Y006647D01*
X056284Y006678D01*
X056326Y006706D01*
X056369Y006730D01*
X056415Y006751D01*
X056462Y006769D01*
X056511Y006782D01*
X056560Y006792D01*
X056610Y006798D01*
X056660Y006800D01*
X056710Y006798D01*
X056760Y006792D01*
X056809Y006782D01*
X056858Y006769D01*
X056905Y006751D01*
X056951Y006730D01*
X056994Y006706D01*
X057036Y006678D01*
X057076Y006647D01*
X057113Y006613D01*
X057147Y006576D01*
X057178Y006536D01*
X057206Y006494D01*
X057230Y006451D01*
X057251Y006405D01*
X057269Y006358D01*
X057282Y006309D01*
X057292Y006260D01*
X057298Y006210D01*
X057300Y006160D01*
X057298Y006110D01*
X057292Y006060D01*
X057282Y006011D01*
X057269Y005962D01*
X057251Y005915D01*
X057230Y005869D01*
X057206Y005826D01*
X057178Y005784D01*
X057147Y005744D01*
X057113Y005707D01*
X057076Y005673D01*
X057036Y005642D01*
X056994Y005614D01*
X056951Y005590D01*
X056905Y005569D01*
X056858Y005551D01*
X056809Y005538D01*
X056760Y005528D01*
X056710Y005522D01*
X056660Y005520D01*
X056610Y005522D01*
X056560Y005528D01*
X056511Y005538D01*
X056462Y005551D01*
X056415Y005569D01*
X056369Y005590D01*
X056326Y005614D01*
X056284Y005642D01*
X056244Y005673D01*
X056207Y005707D01*
X056173Y005744D01*
X056142Y005784D01*
X056114Y005826D01*
X056090Y005869D01*
X056069Y005915D01*
X056051Y005962D01*
X056038Y006011D01*
X056028Y006060D01*
X056022Y006110D01*
X056020Y006160D01*
X056020Y010660D02*
X056022Y010710D01*
X056028Y010760D01*
X056038Y010809D01*
X056051Y010858D01*
X056069Y010905D01*
X056090Y010951D01*
X056114Y010994D01*
X056142Y011036D01*
X056173Y011076D01*
X056207Y011113D01*
X056244Y011147D01*
X056284Y011178D01*
X056326Y011206D01*
X056369Y011230D01*
X056415Y011251D01*
X056462Y011269D01*
X056511Y011282D01*
X056560Y011292D01*
X056610Y011298D01*
X056660Y011300D01*
X056710Y011298D01*
X056760Y011292D01*
X056809Y011282D01*
X056858Y011269D01*
X056905Y011251D01*
X056951Y011230D01*
X056994Y011206D01*
X057036Y011178D01*
X057076Y011147D01*
X057113Y011113D01*
X057147Y011076D01*
X057178Y011036D01*
X057206Y010994D01*
X057230Y010951D01*
X057251Y010905D01*
X057269Y010858D01*
X057282Y010809D01*
X057292Y010760D01*
X057298Y010710D01*
X057300Y010660D01*
X057298Y010610D01*
X057292Y010560D01*
X057282Y010511D01*
X057269Y010462D01*
X057251Y010415D01*
X057230Y010369D01*
X057206Y010326D01*
X057178Y010284D01*
X057147Y010244D01*
X057113Y010207D01*
X057076Y010173D01*
X057036Y010142D01*
X056994Y010114D01*
X056951Y010090D01*
X056905Y010069D01*
X056858Y010051D01*
X056809Y010038D01*
X056760Y010028D01*
X056710Y010022D01*
X056660Y010020D01*
X056610Y010022D01*
X056560Y010028D01*
X056511Y010038D01*
X056462Y010051D01*
X056415Y010069D01*
X056369Y010090D01*
X056326Y010114D01*
X056284Y010142D01*
X056244Y010173D01*
X056207Y010207D01*
X056173Y010244D01*
X056142Y010284D01*
X056114Y010326D01*
X056090Y010369D01*
X056069Y010415D01*
X056051Y010462D01*
X056038Y010511D01*
X056028Y010560D01*
X056022Y010610D01*
X056020Y010660D01*
D11*
X036001Y012353D03*
D12*
X037030Y012451D02*
X037326Y012451D01*
X037326Y012254D02*
X037030Y012254D01*
X037030Y012058D02*
X037326Y012058D01*
X037326Y011861D02*
X037030Y011861D01*
X037030Y011664D02*
X037326Y011664D01*
X037326Y011467D02*
X037030Y011467D01*
X036886Y011324D02*
X036886Y011028D01*
X036690Y011028D02*
X036690Y011324D01*
X036493Y011324D02*
X036493Y011028D01*
X036296Y011028D02*
X036296Y011324D01*
X036099Y011324D02*
X036099Y011028D01*
X035902Y011028D02*
X035902Y011324D01*
X035705Y011324D02*
X035705Y011028D01*
X035508Y011028D02*
X035508Y011324D01*
X035312Y011324D02*
X035312Y011028D01*
X035115Y011028D02*
X035115Y011324D01*
X034971Y011467D02*
X034675Y011467D01*
X034675Y011664D02*
X034971Y011664D01*
X034971Y011861D02*
X034675Y011861D01*
X034675Y012058D02*
X034971Y012058D01*
X034971Y012254D02*
X034675Y012254D01*
X034675Y012451D02*
X034971Y012451D01*
X034971Y012648D02*
X034675Y012648D01*
X034675Y012845D02*
X034971Y012845D01*
X034971Y013042D02*
X034675Y013042D01*
X034675Y013239D02*
X034971Y013239D01*
X035115Y013382D02*
X035115Y013678D01*
X035312Y013678D02*
X035312Y013382D01*
X035508Y013382D02*
X035508Y013678D01*
X035705Y013678D02*
X035705Y013382D01*
X035902Y013382D02*
X035902Y013678D01*
X036099Y013678D02*
X036099Y013382D01*
X036296Y013382D02*
X036296Y013678D01*
X036493Y013678D02*
X036493Y013382D01*
X036690Y013382D02*
X036690Y013678D01*
X036886Y013678D02*
X036886Y013382D01*
X037030Y013239D02*
X037326Y013239D01*
X037326Y013042D02*
X037030Y013042D01*
X037030Y012845D02*
X037326Y012845D01*
X037326Y012648D02*
X037030Y012648D01*
D13*
X033245Y013660D03*
X032575Y013660D03*
X032870Y011410D03*
X032200Y011410D03*
D14*
X031388Y011410D03*
X031388Y012631D03*
X031388Y013853D03*
X026543Y012631D03*
X026541Y009960D03*
X031388Y010060D03*
X026541Y015303D03*
D15*
X026660Y014460D03*
X026660Y013860D03*
X027410Y013960D03*
X028160Y013960D03*
X028160Y013360D03*
X027410Y013360D03*
X027410Y011960D03*
X028160Y011960D03*
X028160Y011360D03*
X027410Y011360D03*
X026660Y011460D03*
X026660Y010860D03*
X028910Y011360D03*
X029660Y011360D03*
X030410Y011360D03*
X030410Y011960D03*
X029660Y011960D03*
X028910Y011960D03*
X028910Y013360D03*
X029660Y013360D03*
X030410Y013360D03*
X030410Y013960D03*
X029660Y013960D03*
X028910Y013960D03*
X032860Y010785D03*
X033460Y010785D03*
X033910Y010210D03*
X033910Y009610D03*
X032960Y010160D03*
X032360Y010160D03*
X032110Y009410D03*
X032710Y009410D03*
X032710Y008410D03*
X032110Y008410D03*
X031460Y008410D03*
X030860Y008410D03*
X032610Y007410D03*
X033210Y007410D03*
X033610Y007410D03*
X034210Y007410D03*
X034860Y008660D03*
X035460Y008660D03*
X036110Y008660D03*
X036710Y008660D03*
X037623Y010860D03*
X037623Y011460D03*
X031210Y019160D03*
X030610Y019160D03*
X033610Y019560D03*
X034210Y019560D03*
X035110Y019910D03*
X035710Y019910D03*
X031210Y021160D03*
X030610Y021160D03*
X033360Y023910D03*
X033960Y023910D03*
X034210Y025410D03*
X034610Y025660D03*
X035210Y025660D03*
X033610Y025410D03*
X033710Y026410D03*
X033110Y026410D03*
X032460Y026410D03*
X031860Y026410D03*
X033860Y029160D03*
X034460Y029160D03*
X034860Y029410D03*
X035460Y029410D03*
X037360Y028910D03*
X037960Y028910D03*
X038860Y028160D03*
X039460Y028160D03*
X039710Y028660D03*
X039110Y028660D03*
X038960Y031160D03*
X038360Y031160D03*
X038460Y032410D03*
X037860Y032410D03*
X040610Y032660D03*
X041210Y032660D03*
X041210Y031660D03*
X040610Y031660D03*
X043110Y031160D03*
X043710Y031160D03*
X044660Y029960D03*
X044660Y029360D03*
X043910Y028960D03*
X043910Y028360D03*
X048860Y028660D03*
X049460Y028660D03*
X050360Y029410D03*
X050960Y029410D03*
X051860Y029410D03*
X052460Y029410D03*
X052860Y029160D03*
X053460Y029160D03*
X053710Y029910D03*
X053110Y029910D03*
X053110Y031160D03*
X053710Y031160D03*
X053860Y031910D03*
X053460Y032160D03*
X052860Y032160D03*
X054460Y031910D03*
X055110Y031160D03*
X055710Y031160D03*
X057360Y031410D03*
X057960Y031410D03*
X058210Y032160D03*
X057610Y032160D03*
X055710Y032910D03*
X055110Y032910D03*
X056360Y033410D03*
X056960Y033410D03*
X055710Y034410D03*
X055110Y034410D03*
X049210Y032160D03*
X048610Y032160D03*
X047960Y032410D03*
X047360Y032410D03*
X047210Y033160D03*
X046610Y033160D03*
X046710Y033660D03*
X046110Y033660D03*
X047860Y033910D03*
X048460Y033910D03*
X048710Y034910D03*
X048110Y034910D03*
X056110Y029160D03*
X056710Y029160D03*
X057860Y030160D03*
X058460Y030160D03*
X036210Y034410D03*
X035610Y034410D03*
X035460Y034660D03*
X034860Y034660D03*
X032210Y032410D03*
X032360Y031910D03*
X032960Y031910D03*
X033610Y031660D03*
X034110Y031410D03*
X034210Y031660D03*
X034360Y032160D03*
X034960Y032160D03*
X034710Y031410D03*
X034710Y030910D03*
X034110Y030910D03*
X033210Y030660D03*
X032960Y030410D03*
X032610Y030660D03*
X032360Y030410D03*
X031960Y031160D03*
X031360Y031160D03*
X030960Y030910D03*
X030710Y030410D03*
X030110Y030410D03*
X030360Y030910D03*
X030360Y029910D03*
X030960Y029910D03*
X032610Y029660D03*
X033210Y029660D03*
X031460Y031910D03*
X031610Y032410D03*
X030960Y032160D03*
X030860Y031910D03*
X030360Y032160D03*
D16*
X035110Y018660D03*
X035910Y018660D03*
X035460Y007360D03*
X034660Y007360D03*
D17*
X034932Y009457D03*
X034932Y010363D03*
X036388Y010363D03*
X036388Y009457D03*
D18*
X034014Y008160D03*
X033306Y008160D03*
X036056Y007410D03*
X036764Y007410D03*
X033264Y012410D03*
X032556Y012410D03*
X033056Y014660D03*
X033764Y014660D03*
X034056Y017160D03*
X034764Y017160D03*
X051806Y030910D03*
X052514Y030910D03*
X058306Y028910D03*
X059014Y028910D03*
X047014Y034910D03*
X046306Y034910D03*
D19*
X029910Y021440D03*
X029410Y021440D03*
X028910Y021440D03*
X028410Y021440D03*
X028410Y019380D03*
X028910Y019380D03*
X029410Y019380D03*
X029910Y019380D03*
D20*
X031910Y022660D03*
D21*
X030910Y022660D03*
D22*
X028910Y018160D03*
X028910Y015778D03*
D23*
X031294Y017910D03*
X033026Y017910D03*
D24*
X032461Y015910D03*
X031359Y015910D03*
X029461Y022910D03*
X028359Y022910D03*
D25*
X050367Y024410D03*
X050367Y024910D03*
X050367Y025410D03*
X050367Y025910D03*
D26*
X051804Y025160D03*
D27*
X054410Y025160D03*
X056410Y025160D03*
D28*
X036660Y021160D03*
X033660Y021160D03*
D29*
X032343Y020160D03*
X031516Y019786D03*
X031516Y020534D03*
D30*
X035020Y015170D03*
X035920Y015170D03*
X036820Y015170D03*
D31*
X035910Y017650D03*
D32*
X055010Y020266D02*
X055010Y021054D01*
X055816Y022560D02*
X056604Y022560D01*
X057410Y021054D02*
X057410Y020266D01*
D33*
X024988Y014260D03*
X024988Y014060D03*
X024988Y013260D03*
X024988Y013060D03*
D34*
X046205Y009906D03*
X046205Y009749D03*
X046205Y009591D03*
X046205Y009434D03*
X046205Y009276D03*
X046205Y009119D03*
X046205Y008961D03*
X046205Y008804D03*
X046205Y008646D03*
X046205Y008489D03*
X046205Y008331D03*
X046205Y008174D03*
X046205Y008016D03*
X046205Y007859D03*
X046205Y007701D03*
X046205Y007544D03*
X046205Y007386D03*
X046205Y007229D03*
X046205Y007071D03*
X046205Y006914D03*
X050615Y006914D03*
X050615Y007071D03*
X050615Y007229D03*
X050615Y007386D03*
X050615Y007544D03*
X050615Y007701D03*
X050615Y007859D03*
X050615Y008016D03*
X050615Y008174D03*
X050615Y008331D03*
X050615Y008489D03*
X050615Y008646D03*
X050615Y008804D03*
X050615Y008961D03*
X050615Y009119D03*
X050615Y009276D03*
X050615Y009434D03*
X050615Y009591D03*
X050615Y009749D03*
X050615Y009906D03*
D35*
X049906Y010615D03*
X049749Y010615D03*
X049591Y010615D03*
X049434Y010615D03*
X049276Y010615D03*
X049119Y010615D03*
X048961Y010615D03*
X048804Y010615D03*
X048646Y010615D03*
X048489Y010615D03*
X048331Y010615D03*
X048174Y010615D03*
X048016Y010615D03*
X047859Y010615D03*
X047701Y010615D03*
X047544Y010615D03*
X047386Y010615D03*
X047229Y010615D03*
X047071Y010615D03*
X046914Y010615D03*
X046914Y006205D03*
X047071Y006205D03*
X047229Y006205D03*
X047386Y006205D03*
X047544Y006205D03*
X047701Y006205D03*
X047859Y006205D03*
X048016Y006205D03*
X048174Y006205D03*
X048331Y006205D03*
X048489Y006205D03*
X048646Y006205D03*
X048804Y006205D03*
X048961Y006205D03*
X049119Y006205D03*
X049276Y006205D03*
X049434Y006205D03*
X049591Y006205D03*
X049749Y006205D03*
X049906Y006205D03*
D36*
X042160Y028910D03*
X050660Y030410D03*
X056660Y030660D03*
D37*
X053160Y006160D03*
D38*
X053160Y007160D03*
X054160Y007660D03*
X054160Y008660D03*
X053160Y009160D03*
X054160Y009660D03*
X053160Y010160D03*
X054160Y010660D03*
X053160Y008160D03*
X054160Y006660D03*
D39*
X058266Y006802D03*
X058266Y005802D03*
X058266Y010018D03*
X058266Y011018D03*
D40*
X055459Y011459D03*
X055459Y005361D03*
D41*
X045054Y029410D03*
X044266Y029410D03*
X037554Y034660D03*
X036766Y034660D03*
D42*
X053286Y033766D03*
X054034Y033766D03*
X053660Y034593D03*
D43*
X049850Y017012D03*
X049850Y016697D03*
X049850Y016382D03*
X049850Y016067D03*
X049850Y015753D03*
X049850Y015438D03*
X049850Y015123D03*
X049850Y014808D03*
X046470Y014808D03*
X046470Y015123D03*
X046470Y015438D03*
X046470Y015753D03*
X046470Y016067D03*
X046470Y016382D03*
X046470Y016697D03*
X046470Y017012D03*
D44*
X047058Y017600D03*
X047373Y017600D03*
X047688Y017600D03*
X048003Y017600D03*
X048317Y017600D03*
X048632Y017600D03*
X048947Y017600D03*
X049262Y017600D03*
X049262Y014220D03*
X048947Y014220D03*
X048632Y014220D03*
X048317Y014220D03*
X048003Y014220D03*
X047688Y014220D03*
X047373Y014220D03*
X047058Y014220D03*
D45*
X054365Y029516D03*
D46*
X055034Y029516D03*
X055034Y030304D03*
X054286Y030304D03*
D47*
X049110Y030410D03*
X047210Y030410D03*
X044860Y031410D03*
X042960Y031410D03*
D48*
X049910Y033660D03*
D49*
X049910Y034660D03*
X050910Y034660D03*
X051910Y034660D03*
X051910Y033660D03*
X050910Y033660D03*
D50*
X044660Y034040D02*
X044660Y034780D01*
X043660Y034780D02*
X043660Y034040D01*
X042660Y034040D02*
X042660Y034780D01*
X041660Y034780D02*
X041660Y034040D01*
X040660Y034040D02*
X040660Y034780D01*
X039660Y034780D02*
X039660Y034040D01*
D51*
X051457Y032160D03*
X052363Y032160D03*
D52*
X035160Y033160D03*
X034160Y033160D03*
D53*
X036410Y032620D03*
X036910Y032620D03*
X037410Y032620D03*
X037910Y032620D03*
X038410Y032620D03*
X038910Y032620D03*
X039410Y032620D03*
X039910Y032620D03*
X039910Y030200D03*
X039410Y030200D03*
X038910Y030200D03*
X038410Y030200D03*
X037910Y030200D03*
X037410Y030200D03*
X036910Y030200D03*
X036410Y030200D03*
D54*
X058599Y016203D03*
X058441Y015770D03*
X058599Y015337D03*
X058756Y014904D03*
X058599Y014471D03*
X058756Y014038D03*
X058599Y013605D03*
X058599Y013172D03*
D55*
X054583Y013447D03*
X054583Y015810D03*
D56*
X060095Y018014D03*
X059741Y012817D03*
D57*
X037910Y015660D03*
X037910Y016660D03*
X037910Y017660D03*
X033410Y015910D03*
X034910Y014285D03*
X035910Y014160D03*
X037660Y012160D03*
X030410Y015910D03*
X025788Y013110D03*
X025388Y012410D03*
X026532Y012641D03*
X024988Y013660D03*
X029410Y020410D03*
X030816Y020535D03*
X033410Y022410D03*
X004588Y012960D03*
X003788Y012960D03*
X004188Y012160D03*
X003388Y012160D03*
D58*
X026491Y010010D02*
X026541Y009960D01*
X030788Y012250D02*
X030788Y013070D01*
X030841Y013070D01*
X030834Y013046D01*
X030834Y012711D01*
X031308Y012711D01*
X031308Y012551D01*
X031468Y012551D01*
X031468Y012078D01*
X031803Y012078D01*
X031843Y012088D01*
X031880Y012110D01*
X031910Y012139D01*
X031931Y012176D01*
X031942Y012216D01*
X031942Y012551D01*
X031468Y012551D01*
X031468Y012711D01*
X031942Y012711D01*
X031942Y013046D01*
X031931Y013087D01*
X031910Y013123D01*
X031880Y013153D01*
X031868Y013160D01*
X032088Y013160D01*
X032088Y011960D01*
X031964Y011960D01*
X031918Y012007D01*
X031829Y012043D01*
X031164Y012043D01*
X031130Y012078D01*
X031308Y012078D01*
X031308Y012551D01*
X030834Y012551D01*
X030834Y012250D01*
X030788Y012250D01*
X030788Y012262D02*
X030834Y012262D01*
X030834Y012420D02*
X030788Y012420D01*
X030788Y012579D02*
X031308Y012579D01*
X031308Y012420D02*
X031468Y012420D01*
X031468Y012262D02*
X031308Y012262D01*
X031308Y012103D02*
X031468Y012103D01*
X031869Y012103D02*
X032088Y012103D01*
X032088Y012262D02*
X031942Y012262D01*
X031942Y012420D02*
X032088Y012420D01*
X032088Y012579D02*
X031468Y012579D01*
X031942Y012737D02*
X032088Y012737D01*
X032088Y012896D02*
X031942Y012896D01*
X031940Y013054D02*
X032088Y013054D01*
X031438Y013560D02*
X031388Y013610D01*
X031171Y013643D02*
X031171Y013836D01*
X031388Y013853D01*
X030836Y013054D02*
X030788Y013054D01*
X030788Y012896D02*
X030834Y012896D01*
X030834Y012737D02*
X030788Y012737D01*
X031388Y011410D02*
X031388Y011410D01*
X035586Y012058D02*
X035705Y012058D01*
X036001Y012353D01*
X036789Y015781D02*
X036410Y016160D01*
X037910Y017660D02*
X037910Y021160D01*
X035160Y023910D01*
X033960Y023910D01*
X030910Y022660D02*
X030160Y022660D01*
X029910Y022910D01*
X029461Y022910D01*
X029410Y022859D01*
X029410Y021440D01*
X029410Y020410D01*
X029785Y020160D02*
X030223Y020160D01*
X030610Y019773D01*
X030610Y019160D01*
X030160Y018160D02*
X028910Y018160D01*
X028910Y019380D01*
X029410Y019380D02*
X029410Y019785D01*
X029785Y020160D01*
X030816Y020535D02*
X031067Y020534D01*
X031516Y020534D01*
X032343Y020160D02*
X032660Y020160D01*
X033660Y021160D01*
X033410Y021910D02*
X032660Y021160D01*
X031210Y021160D01*
X030610Y021160D02*
X029910Y021160D01*
X028910Y021440D02*
X028410Y021440D01*
X028410Y019380D01*
X030160Y018160D02*
X030410Y017910D01*
X031294Y017910D01*
X031359Y015910D02*
X030410Y015910D01*
X029497Y015903D01*
X028910Y015778D01*
X035910Y021910D02*
X036660Y021160D01*
X035910Y021910D02*
X033410Y021910D01*
X028410Y021440D02*
X028410Y022859D01*
X028359Y022910D01*
X049660Y024660D02*
X049910Y024410D01*
X050410Y024410D01*
D59*
X031388Y013643D02*
X031388Y013610D01*
X031388Y013643D02*
X031171Y013643D01*
X034823Y012845D02*
X035373Y012845D01*
X035379Y012846D01*
X035384Y012849D01*
X035387Y012854D01*
X035388Y012860D01*
X035388Y013060D01*
X035288Y013060D01*
X035588Y012060D02*
X035586Y012058D01*
X034823Y012058D01*
X036493Y011861D02*
X036493Y011176D01*
D60*
X036493Y010839D01*
X036518Y010839D01*
X036566Y010852D01*
X036586Y010864D01*
X036611Y010839D01*
X036768Y010839D01*
X036788Y010859D01*
X036808Y010839D01*
X036965Y010839D01*
X037076Y010950D01*
X037076Y011278D01*
X037333Y011278D01*
X037333Y011252D01*
X037415Y011170D01*
X037830Y011170D01*
X037912Y011252D01*
X037912Y011668D01*
X037830Y011750D01*
X037519Y011750D01*
X037610Y011841D01*
X037723Y011841D01*
X037841Y011890D01*
X037930Y011979D01*
X037979Y012097D01*
X037979Y012223D01*
X037930Y012341D01*
X037841Y012430D01*
X037740Y012472D01*
X037989Y012720D01*
X038100Y012831D01*
X038100Y015399D01*
X038180Y015479D01*
X038229Y015597D01*
X038229Y015723D01*
X038180Y015841D01*
X038091Y015930D01*
X037973Y015979D01*
X037847Y015979D01*
X037729Y015930D01*
X037640Y015841D01*
X037600Y015744D01*
X037600Y016081D01*
X037860Y016341D01*
X037973Y016341D01*
X038091Y016390D01*
X038180Y016479D01*
X038229Y016597D01*
X038229Y016723D01*
X038180Y016841D01*
X038091Y016930D01*
X037973Y016979D01*
X037847Y016979D01*
X037729Y016930D01*
X037640Y016841D01*
X037591Y016723D01*
X037591Y016610D01*
X037331Y016350D01*
X037220Y016239D01*
X037220Y015658D01*
X037173Y015705D01*
X037009Y015705D01*
X037009Y015872D01*
X036700Y016181D01*
X036989Y016470D01*
X037100Y016581D01*
X037100Y018239D01*
X036850Y018489D01*
X036850Y020595D01*
X036894Y020595D01*
X037225Y020926D01*
X037225Y021394D01*
X036894Y021725D01*
X036426Y021725D01*
X036416Y021715D01*
X036001Y022130D01*
X033567Y022130D01*
X033591Y022140D01*
X033680Y022229D01*
X033729Y022347D01*
X033729Y022473D01*
X033680Y022591D01*
X033600Y022671D01*
X033600Y023652D01*
X033650Y023702D01*
X033650Y024118D01*
X033568Y024200D01*
X033219Y024200D01*
X033239Y024220D01*
X034489Y024220D01*
X034739Y024470D01*
X034850Y024581D01*
X034850Y025402D01*
X034900Y025452D01*
X034900Y025868D01*
X034818Y025950D01*
X034402Y025950D01*
X034320Y025868D01*
X034320Y025700D01*
X034225Y025700D01*
X034225Y025425D01*
X034195Y025425D01*
X034195Y025700D01*
X034042Y025700D01*
X034006Y025690D01*
X033974Y025672D01*
X033948Y025646D01*
X033930Y025614D01*
X033920Y025578D01*
X033920Y025425D01*
X034195Y025425D01*
X034195Y025395D01*
X034225Y025395D01*
X034225Y025120D01*
X034378Y025120D01*
X034414Y025130D01*
X034446Y025148D01*
X034470Y025172D01*
X034470Y024739D01*
X034331Y024600D01*
X033081Y024600D01*
X032970Y024489D01*
X032470Y023989D01*
X032470Y021380D01*
X031488Y021380D01*
X031418Y021450D01*
X031002Y021450D01*
X030920Y021368D01*
X030920Y020952D01*
X031002Y020870D01*
X031418Y020870D01*
X031488Y020940D01*
X032751Y020940D01*
X033095Y021284D01*
X033095Y020926D01*
X033105Y020916D01*
X032612Y020423D01*
X032578Y020457D01*
X032108Y020457D01*
X032026Y020375D01*
X032026Y019945D01*
X032108Y019863D01*
X032578Y019863D01*
X032656Y019940D01*
X032751Y019940D01*
X033416Y020605D01*
X033426Y020595D01*
X033894Y020595D01*
X034225Y020926D01*
X034225Y021394D01*
X033929Y021690D01*
X035819Y021690D01*
X036105Y021404D01*
X036095Y021394D01*
X036095Y020926D01*
X036426Y020595D01*
X036470Y020595D01*
X036470Y018331D01*
X036581Y018220D01*
X036616Y018185D01*
X035102Y018185D01*
X035020Y018103D01*
X035020Y017496D01*
X035008Y017508D01*
X034976Y017527D01*
X034940Y017536D01*
X034783Y017536D01*
X034783Y017179D01*
X034746Y017179D01*
X034746Y017536D01*
X034588Y017536D01*
X034553Y017527D01*
X034521Y017508D01*
X034495Y017482D01*
X034476Y017450D01*
X034467Y017415D01*
X034467Y017179D01*
X034746Y017179D01*
X034746Y017141D01*
X034783Y017141D01*
X034783Y016784D01*
X034940Y016784D01*
X034976Y016793D01*
X035008Y016812D01*
X035034Y016838D01*
X035052Y016870D01*
X035062Y016905D01*
X035062Y017141D01*
X034783Y017141D01*
X034783Y017179D01*
X035038Y017179D01*
X035102Y017115D01*
X036718Y017115D01*
X036720Y017117D01*
X036720Y016739D01*
X036361Y016380D01*
X036319Y016380D01*
X036289Y016350D01*
X034081Y016350D01*
X033970Y016239D01*
X033831Y016100D01*
X033671Y016100D01*
X033591Y016180D01*
X033473Y016229D01*
X033347Y016229D01*
X033229Y016180D01*
X033140Y016091D01*
X033091Y015973D01*
X033091Y015847D01*
X033140Y015729D01*
X033229Y015640D01*
X033347Y015591D01*
X033473Y015591D01*
X033591Y015640D01*
X033671Y015720D01*
X033989Y015720D01*
X034239Y015970D01*
X034326Y015970D01*
X033686Y015329D01*
X033574Y015218D01*
X033574Y015036D01*
X033549Y015036D01*
X033467Y014954D01*
X033467Y014366D01*
X033549Y014284D01*
X033980Y014284D01*
X034062Y014366D01*
X034062Y014470D01*
X034081Y014470D01*
X034345Y014206D01*
X034456Y014095D01*
X034649Y014095D01*
X034720Y014024D01*
X034720Y013831D01*
X034831Y013720D01*
X034925Y013627D01*
X034925Y013451D01*
X034926Y013451D01*
X034926Y013428D01*
X034823Y013428D01*
X034651Y013428D01*
X034603Y013415D01*
X034560Y013390D01*
X034524Y013355D01*
X034499Y013312D01*
X034487Y013264D01*
X034487Y013239D01*
X034823Y013239D01*
X034823Y013239D01*
X034487Y013239D01*
X034487Y013214D01*
X034499Y013166D01*
X034511Y013145D01*
X034487Y013120D01*
X034487Y012964D01*
X034511Y012939D01*
X034499Y012918D01*
X034487Y012870D01*
X034487Y012845D01*
X034487Y012838D01*
X034376Y012838D01*
X033601Y013613D01*
X033601Y013915D01*
X033519Y013997D01*
X032970Y013997D01*
X032910Y013937D01*
X032850Y013997D01*
X032301Y013997D01*
X032219Y013915D01*
X032219Y013850D01*
X031922Y013850D01*
X031922Y014305D01*
X031840Y014387D01*
X030936Y014387D01*
X030854Y014305D01*
X030854Y013595D01*
X030809Y013550D01*
X030700Y013550D01*
X030700Y013568D01*
X030618Y013650D01*
X030202Y013650D01*
X030120Y013568D01*
X030120Y013550D01*
X029950Y013550D01*
X029950Y013568D01*
X029868Y013650D01*
X029452Y013650D01*
X029370Y013568D01*
X029370Y013550D01*
X029200Y013550D01*
X029200Y013568D01*
X029118Y013650D01*
X028702Y013650D01*
X028620Y013568D01*
X028620Y013152D01*
X028702Y013070D01*
X029118Y013070D01*
X029200Y013152D01*
X029200Y013170D01*
X029370Y013170D01*
X029370Y013152D01*
X029452Y013070D01*
X029868Y013070D01*
X029950Y013152D01*
X029950Y013170D01*
X030120Y013170D01*
X030120Y013152D01*
X030202Y013070D01*
X030618Y013070D01*
X030700Y013152D01*
X030700Y013170D01*
X030967Y013170D01*
X031116Y013319D01*
X031840Y013319D01*
X031922Y013401D01*
X031922Y013470D01*
X032219Y013470D01*
X032219Y013405D01*
X032301Y013323D01*
X032850Y013323D01*
X032910Y013383D01*
X032970Y013323D01*
X033353Y013323D01*
X034035Y012641D01*
X033562Y012641D01*
X033562Y012704D01*
X033480Y012786D01*
X033049Y012786D01*
X032967Y012704D01*
X032967Y012116D01*
X033049Y012034D01*
X033480Y012034D01*
X033562Y012116D01*
X033562Y012261D01*
X033868Y012261D01*
X033226Y011620D01*
X033226Y011665D01*
X033144Y011747D01*
X032595Y011747D01*
X032535Y011687D01*
X032475Y011747D01*
X031926Y011747D01*
X031922Y011743D01*
X031922Y011861D01*
X031840Y011943D01*
X031123Y011943D01*
X030966Y012100D01*
X030976Y012098D01*
X031328Y012098D01*
X031328Y012571D01*
X031448Y012571D01*
X031448Y012098D01*
X031800Y012098D01*
X031836Y012107D01*
X031868Y012126D01*
X031894Y012152D01*
X031912Y012184D01*
X031922Y012219D01*
X031922Y012571D01*
X031448Y012571D01*
X031448Y012691D01*
X031922Y012691D01*
X031922Y013043D01*
X031912Y013079D01*
X031894Y013111D01*
X031868Y013137D01*
X031836Y013155D01*
X031800Y013165D01*
X031448Y013165D01*
X031448Y012691D01*
X031328Y012691D01*
X031328Y012571D01*
X030854Y012571D01*
X030854Y012219D01*
X030864Y012184D01*
X030882Y012152D01*
X030884Y012150D01*
X030700Y012150D01*
X030700Y012168D01*
X030618Y012250D01*
X030202Y012250D01*
X030120Y012168D01*
X030120Y012150D01*
X029950Y012150D01*
X029950Y012168D01*
X029868Y012250D01*
X029452Y012250D01*
X029370Y012168D01*
X029370Y012150D01*
X029200Y012150D01*
X029200Y012168D01*
X029118Y012250D01*
X028702Y012250D01*
X028620Y012168D01*
X028620Y011752D01*
X028702Y011670D01*
X029118Y011670D01*
X029200Y011752D01*
X029200Y011770D01*
X029370Y011770D01*
X029370Y011752D01*
X029452Y011670D01*
X029868Y011670D01*
X029950Y011752D01*
X029950Y011770D01*
X030120Y011770D01*
X030120Y011752D01*
X030202Y011670D01*
X030618Y011670D01*
X030700Y011752D01*
X030700Y011770D01*
X030759Y011770D01*
X030854Y011675D01*
X030854Y010958D01*
X030936Y010876D01*
X031198Y010876D01*
X031198Y010594D01*
X030936Y010594D01*
X030854Y010512D01*
X030854Y009608D01*
X030936Y009526D01*
X031820Y009526D01*
X031820Y009202D01*
X031902Y009120D01*
X032119Y009120D01*
X032220Y009019D01*
X032331Y008908D01*
X033476Y008908D01*
X033889Y009320D01*
X034118Y009320D01*
X034200Y009402D01*
X034200Y009631D01*
X034412Y009844D01*
X034412Y010781D01*
X034909Y011278D01*
X034926Y011278D01*
X034926Y011176D01*
X035115Y011176D01*
X035115Y010839D01*
X035140Y010839D01*
X035188Y010852D01*
X035208Y010864D01*
X035233Y010839D01*
X035390Y010839D01*
X035410Y010859D01*
X035430Y010839D01*
X035515Y010839D01*
X035515Y010184D01*
X035446Y010114D01*
X035446Y010637D01*
X035364Y010719D01*
X034500Y010719D01*
X034418Y010637D01*
X034418Y010088D01*
X034500Y010006D01*
X035338Y010006D01*
X035145Y009814D01*
X034500Y009814D01*
X034418Y009732D01*
X034418Y009183D01*
X034500Y009101D01*
X034670Y009101D01*
X034670Y008950D01*
X034652Y008950D01*
X034570Y008868D01*
X034570Y008452D01*
X034652Y008370D01*
X035068Y008370D01*
X035150Y008452D01*
X035150Y008868D01*
X035068Y008950D01*
X035050Y008950D01*
X035050Y009101D01*
X035364Y009101D01*
X035446Y009183D01*
X035446Y009577D01*
X035895Y010027D01*
X035895Y010067D01*
X035956Y010006D01*
X036608Y010006D01*
X036783Y009831D01*
X036783Y009814D01*
X035956Y009814D01*
X035874Y009732D01*
X035874Y009183D01*
X035956Y009101D01*
X036783Y009101D01*
X036783Y008989D01*
X036744Y008950D01*
X036502Y008950D01*
X036420Y008868D01*
X036420Y008452D01*
X036502Y008370D01*
X036918Y008370D01*
X037000Y008452D01*
X037000Y008669D01*
X037051Y008720D01*
X037162Y008831D01*
X037162Y009989D01*
X036902Y010249D01*
X036902Y010637D01*
X036820Y010719D01*
X036129Y010719D01*
X036092Y010757D01*
X036092Y010839D01*
X036099Y010839D01*
X036124Y010839D01*
X036172Y010852D01*
X036197Y010866D01*
X036223Y010852D01*
X036271Y010839D01*
X036296Y010839D01*
X036321Y010839D01*
X036369Y010852D01*
X036394Y010866D01*
X036420Y010852D01*
X036468Y010839D01*
X036493Y010839D01*
X036493Y011176D01*
X036493Y011176D01*
X036493Y011176D01*
X036485Y011176D01*
X036296Y011176D01*
X036296Y011176D01*
X036493Y011176D01*
X036493Y011087D02*
X036493Y011087D01*
X036493Y010968D02*
X036493Y010968D01*
X036493Y010850D02*
X036493Y010850D01*
X036557Y010850D02*
X036601Y010850D01*
X036428Y010850D02*
X036360Y010850D01*
X036296Y010850D02*
X036296Y010850D01*
X036296Y010839D02*
X036296Y011176D01*
X036296Y011176D01*
X036107Y011176D01*
X036099Y011176D01*
X036099Y011176D01*
X036296Y011176D01*
X036296Y011176D01*
X036296Y010839D01*
X036231Y010850D02*
X036164Y010850D01*
X036099Y010850D02*
X036099Y010850D01*
X036099Y010839D02*
X036099Y011176D01*
X036099Y011176D01*
X036099Y010839D01*
X036118Y010731D02*
X037333Y010731D01*
X037333Y010692D02*
X037342Y010656D01*
X037360Y010624D01*
X037387Y010598D01*
X037418Y010580D01*
X037454Y010570D01*
X037607Y010570D01*
X037607Y010845D01*
X037333Y010845D01*
X037333Y010692D01*
X037372Y010613D02*
X036902Y010613D01*
X036902Y010494D02*
X046725Y010494D01*
X046725Y010376D02*
X036902Y010376D01*
X036902Y010257D02*
X046725Y010257D01*
X046725Y010242D02*
X046807Y010160D01*
X047386Y010160D01*
X047386Y010210D01*
X047386Y010210D01*
X047386Y010210D01*
X047386Y010160D01*
X048804Y010160D01*
X049276Y010160D01*
X049276Y010210D01*
X049276Y010210D01*
X049276Y010210D01*
X049276Y010160D01*
X049344Y010160D01*
X049355Y010163D01*
X049366Y010160D01*
X049434Y010160D01*
X049501Y010160D01*
X049512Y010163D01*
X049523Y010160D01*
X049591Y010160D01*
X049591Y010210D01*
X049591Y010210D01*
X049591Y010210D01*
X049591Y010160D01*
X049856Y010160D01*
X050013Y010160D01*
X050095Y010242D01*
X050095Y010988D01*
X050013Y011070D01*
X049591Y011070D01*
X049523Y011070D01*
X049512Y011067D01*
X049501Y011070D01*
X049434Y011070D01*
X049434Y011019D01*
X049434Y011019D01*
X049434Y011019D01*
X049434Y011070D01*
X049366Y011070D01*
X049355Y011067D01*
X049344Y011070D01*
X049276Y011070D01*
X048804Y011070D01*
X048804Y011019D01*
X048804Y011019D01*
X048804Y011019D01*
X048804Y011070D01*
X047386Y011070D01*
X046807Y011070D01*
X046725Y010988D01*
X046725Y010242D01*
X046578Y010095D02*
X045832Y010095D01*
X045750Y010013D01*
X045750Y009434D01*
X045801Y009434D01*
X045801Y009434D01*
X045801Y009434D01*
X045750Y009434D01*
X045750Y008489D01*
X045801Y008489D01*
X045801Y008489D01*
X045801Y008489D01*
X045750Y008489D01*
X045750Y008016D01*
X045750Y007949D01*
X045753Y007938D01*
X045750Y007926D01*
X045750Y007859D01*
X045801Y007859D01*
X045801Y007859D01*
X045801Y007859D01*
X045750Y007859D01*
X045750Y007386D01*
X045750Y007071D01*
X045750Y007004D01*
X045753Y006993D01*
X045750Y006982D01*
X045750Y006914D01*
X045801Y006914D01*
X045750Y006914D01*
X045750Y006846D01*
X045760Y006811D01*
X045778Y006779D01*
X045804Y006753D01*
X045836Y006734D01*
X045872Y006725D01*
X046205Y006725D01*
X046205Y006914D01*
X046205Y007040D01*
X046205Y007040D01*
X046205Y006914D01*
X046205Y006914D01*
X046205Y006914D01*
X046205Y006725D01*
X046539Y006725D01*
X046574Y006734D01*
X046606Y006753D01*
X046632Y006779D01*
X046651Y006811D01*
X046660Y006846D01*
X046660Y006914D01*
X046660Y006982D01*
X046657Y006993D01*
X046660Y007004D01*
X046660Y007071D01*
X046610Y007071D01*
X046610Y007071D01*
X046610Y007071D01*
X046660Y007071D01*
X046660Y007386D01*
X046610Y007386D01*
X046610Y007386D01*
X046610Y007386D01*
X046660Y007386D01*
X046660Y007859D01*
X046660Y007926D01*
X046657Y007938D01*
X046660Y007949D01*
X046660Y008016D01*
X046610Y008016D01*
X046610Y008016D01*
X046610Y008016D01*
X046660Y008016D01*
X046660Y008489D01*
X046660Y009434D01*
X046660Y009799D01*
X046660Y010013D01*
X046578Y010095D01*
X046653Y010020D02*
X050167Y010020D01*
X050160Y010013D02*
X050160Y008961D01*
X050160Y008894D01*
X050163Y008882D01*
X050160Y008871D01*
X050160Y008804D01*
X050210Y008804D01*
X050210Y008804D01*
X050210Y008804D01*
X050160Y008804D01*
X050160Y008736D01*
X050163Y008725D01*
X050160Y008714D01*
X050160Y008646D01*
X050160Y008579D01*
X050163Y008567D01*
X050160Y008556D01*
X050160Y008489D01*
X050210Y008489D01*
X050210Y008489D01*
X050210Y008489D01*
X050160Y008489D01*
X050160Y008421D01*
X050163Y008410D01*
X050160Y008399D01*
X050160Y008331D01*
X050160Y008264D01*
X050163Y008253D01*
X050160Y008241D01*
X050160Y008174D01*
X050210Y008174D01*
X050210Y008174D01*
X050210Y008174D01*
X050160Y008174D01*
X050160Y008106D01*
X050163Y008095D01*
X050160Y008084D01*
X050160Y008016D01*
X050160Y007949D01*
X050163Y007938D01*
X050160Y007926D01*
X050160Y007859D01*
X050210Y007859D01*
X050210Y007859D01*
X050210Y007859D01*
X050160Y007859D01*
X050160Y007791D01*
X050163Y007780D01*
X050160Y007769D01*
X050160Y007701D01*
X050160Y007634D01*
X050163Y007623D01*
X050160Y007612D01*
X050160Y007544D01*
X050210Y007544D01*
X050210Y007544D01*
X050210Y007544D01*
X050160Y007544D01*
X050160Y007229D01*
X050210Y007229D01*
X050210Y007229D01*
X050210Y007229D01*
X050160Y007229D01*
X050160Y007161D01*
X050163Y007150D01*
X050160Y007139D01*
X050160Y007071D01*
X050160Y007004D01*
X050163Y006993D01*
X050160Y006982D01*
X050160Y006914D01*
X050210Y006914D01*
X050210Y006914D01*
X050160Y006914D01*
X050160Y006846D01*
X050169Y006811D01*
X050188Y006779D01*
X050214Y006753D01*
X050246Y006734D01*
X050281Y006725D01*
X050615Y006725D01*
X050948Y006725D01*
X050984Y006734D01*
X051016Y006753D01*
X051042Y006779D01*
X051060Y006811D01*
X051070Y006846D01*
X051070Y006914D01*
X051070Y006982D01*
X051067Y006993D01*
X051070Y007004D01*
X051070Y007071D01*
X051019Y007071D01*
X051019Y007071D01*
X051019Y007071D01*
X051070Y007071D01*
X051070Y007139D01*
X051067Y007150D01*
X051070Y007161D01*
X051070Y007229D01*
X051070Y007544D01*
X051070Y007612D01*
X051067Y007623D01*
X051070Y007634D01*
X051070Y007701D01*
X051019Y007701D01*
X051019Y007701D01*
X051019Y007701D01*
X051070Y007701D01*
X051070Y007769D01*
X051067Y007780D01*
X051070Y007791D01*
X051070Y007859D01*
X051070Y007926D01*
X051067Y007938D01*
X051070Y007949D01*
X051070Y008016D01*
X051019Y008016D01*
X051019Y008016D01*
X051019Y008016D01*
X051070Y008016D01*
X051070Y008084D01*
X051067Y008095D01*
X051070Y008106D01*
X051070Y008174D01*
X051070Y008241D01*
X051067Y008253D01*
X051070Y008264D01*
X051070Y008331D01*
X051019Y008331D01*
X051019Y008331D01*
X051019Y008331D01*
X051070Y008331D01*
X051070Y008399D01*
X051067Y008410D01*
X051070Y008421D01*
X051070Y008489D01*
X051070Y008556D01*
X051067Y008567D01*
X051070Y008579D01*
X051070Y008646D01*
X051019Y008646D01*
X051019Y008646D01*
X051019Y008646D01*
X051070Y008646D01*
X051070Y008714D01*
X051067Y008725D01*
X051070Y008736D01*
X051070Y008804D01*
X051070Y008871D01*
X051067Y008882D01*
X051070Y008894D01*
X051070Y008961D01*
X051019Y008961D01*
X051019Y008961D01*
X051019Y008961D01*
X051070Y008961D01*
X051070Y010013D01*
X050988Y010095D01*
X050242Y010095D01*
X050160Y010013D01*
X050160Y009902D02*
X046660Y009902D01*
X046660Y009783D02*
X050160Y009783D01*
X050160Y009665D02*
X046660Y009665D01*
X046660Y009546D02*
X050160Y009546D01*
X050160Y009428D02*
X046660Y009428D01*
X046660Y009434D02*
X046610Y009434D01*
X046660Y009434D01*
X046610Y009434D02*
X046610Y009434D01*
X046610Y009434D01*
X046660Y009309D02*
X050160Y009309D01*
X050160Y009191D02*
X046660Y009191D01*
X046660Y009072D02*
X050160Y009072D01*
X050160Y008961D02*
X050210Y008961D01*
X050160Y008961D01*
X050160Y008954D02*
X046660Y008954D01*
X046660Y008835D02*
X050160Y008835D01*
X050160Y008717D02*
X046660Y008717D01*
X046660Y008598D02*
X050160Y008598D01*
X050160Y008646D02*
X050210Y008646D01*
X050210Y008646D01*
X050210Y008646D01*
X050160Y008646D01*
X050160Y008480D02*
X046660Y008480D01*
X046660Y008489D02*
X046610Y008489D01*
X046660Y008489D01*
X046610Y008489D02*
X046610Y008489D01*
X046610Y008489D01*
X046660Y008361D02*
X050160Y008361D01*
X050160Y008331D02*
X050210Y008331D01*
X050160Y008331D01*
X050210Y008331D02*
X050210Y008331D01*
X050210Y008331D01*
X050160Y008243D02*
X046660Y008243D01*
X046660Y008124D02*
X050160Y008124D01*
X050160Y008016D02*
X050210Y008016D01*
X050160Y008016D01*
X050160Y008006D02*
X046660Y008006D01*
X046660Y007887D02*
X050160Y007887D01*
X050160Y007769D02*
X046660Y007769D01*
X046660Y007859D02*
X046610Y007859D01*
X046660Y007859D01*
X046610Y007859D02*
X046610Y007859D01*
X046610Y007859D01*
X046660Y007650D02*
X050160Y007650D01*
X050160Y007701D02*
X050210Y007701D01*
X050210Y007701D01*
X050210Y007701D01*
X050160Y007701D01*
X050160Y007532D02*
X046660Y007532D01*
X046660Y007413D02*
X050160Y007413D01*
X050160Y007295D02*
X046660Y007295D01*
X046660Y007176D02*
X050160Y007176D01*
X050160Y007071D02*
X050210Y007071D01*
X050160Y007071D01*
X050160Y007058D02*
X046660Y007058D01*
X046660Y006939D02*
X050160Y006939D01*
X050167Y006821D02*
X046653Y006821D01*
X046660Y006914D02*
X046610Y006914D01*
X046660Y006914D01*
X046610Y006914D02*
X046610Y006914D01*
X046779Y006632D02*
X046753Y006606D01*
X046734Y006574D01*
X046725Y006539D01*
X046725Y006205D01*
X046725Y005872D01*
X046734Y005836D01*
X046753Y005804D01*
X046779Y005778D01*
X046811Y005760D01*
X046846Y005750D01*
X046914Y005750D01*
X046982Y005750D01*
X046993Y005753D01*
X047004Y005750D01*
X047071Y005750D01*
X047071Y005801D01*
X047071Y005801D01*
X047071Y005801D01*
X047071Y005750D01*
X047139Y005750D01*
X047150Y005753D01*
X047161Y005750D01*
X047229Y005750D01*
X047297Y005750D01*
X047308Y005753D01*
X047319Y005750D01*
X047386Y005750D01*
X047386Y005801D01*
X047386Y005801D01*
X047386Y005801D01*
X047386Y005750D01*
X047454Y005750D01*
X047465Y005753D01*
X047476Y005750D01*
X047544Y005750D01*
X047612Y005750D01*
X047623Y005753D01*
X047634Y005750D01*
X047701Y005750D01*
X047701Y005801D01*
X047701Y005801D01*
X047701Y005801D01*
X047701Y005750D01*
X048646Y005750D01*
X048646Y005801D01*
X048646Y005801D01*
X048646Y005801D01*
X048646Y005750D01*
X048961Y005750D01*
X048961Y005801D01*
X048961Y005801D01*
X048961Y005801D01*
X048961Y005750D01*
X049029Y005750D01*
X049040Y005753D01*
X049051Y005750D01*
X049119Y005750D01*
X049186Y005750D01*
X049197Y005753D01*
X049208Y005750D01*
X049276Y005750D01*
X049276Y005801D01*
X049276Y005801D01*
X049276Y005801D01*
X049276Y005750D01*
X049344Y005750D01*
X049355Y005753D01*
X049366Y005750D01*
X049434Y005750D01*
X049501Y005750D01*
X049512Y005753D01*
X049523Y005750D01*
X049591Y005750D01*
X049591Y005801D01*
X049591Y005801D01*
X049591Y005801D01*
X049591Y005750D01*
X049659Y005750D01*
X049670Y005753D01*
X049681Y005750D01*
X049749Y005750D01*
X049816Y005750D01*
X049827Y005753D01*
X049838Y005750D01*
X049906Y005750D01*
X049906Y005801D01*
X049906Y005750D01*
X049974Y005750D01*
X050009Y005760D01*
X050041Y005778D01*
X050067Y005804D01*
X050086Y005836D01*
X050095Y005872D01*
X050095Y006205D01*
X049906Y006205D01*
X049749Y006205D01*
X049749Y006205D01*
X049906Y006205D01*
X049906Y006205D01*
X049906Y006205D01*
X050095Y006205D01*
X050095Y006539D01*
X050086Y006574D01*
X050067Y006606D01*
X050041Y006632D01*
X050009Y006651D01*
X049974Y006660D01*
X049906Y006660D01*
X049838Y006660D01*
X049827Y006657D01*
X049816Y006660D01*
X049749Y006660D01*
X049749Y006610D01*
X049749Y006610D01*
X049749Y006610D01*
X049749Y006660D01*
X049681Y006660D01*
X049670Y006657D01*
X049659Y006660D01*
X049591Y006660D01*
X049523Y006660D01*
X049512Y006657D01*
X049501Y006660D01*
X049434Y006660D01*
X049434Y006610D01*
X049434Y006610D01*
X049434Y006610D01*
X049434Y006660D01*
X049366Y006660D01*
X049355Y006657D01*
X049344Y006660D01*
X049276Y006660D01*
X049208Y006660D01*
X049197Y006657D01*
X049186Y006660D01*
X049119Y006660D01*
X049119Y006610D01*
X049119Y006610D01*
X049119Y006610D01*
X049119Y006660D01*
X049051Y006660D01*
X049040Y006657D01*
X049029Y006660D01*
X048961Y006660D01*
X048646Y006660D01*
X047701Y006660D01*
X047634Y006660D01*
X047623Y006657D01*
X047612Y006660D01*
X047544Y006660D01*
X047544Y006610D01*
X047544Y006610D01*
X047544Y006610D01*
X047544Y006660D01*
X047476Y006660D01*
X047465Y006657D01*
X047454Y006660D01*
X047386Y006660D01*
X047319Y006660D01*
X047308Y006657D01*
X047297Y006660D01*
X047229Y006660D01*
X047229Y006610D01*
X047229Y006610D01*
X047229Y006610D01*
X047229Y006660D01*
X047161Y006660D01*
X047150Y006657D01*
X047139Y006660D01*
X047071Y006660D01*
X047004Y006660D01*
X046993Y006657D01*
X046982Y006660D01*
X046914Y006660D01*
X046914Y006610D01*
X046914Y006610D01*
X046914Y006660D01*
X046846Y006660D01*
X046811Y006651D01*
X046779Y006632D01*
X046740Y006584D02*
X026660Y006584D01*
X026660Y006702D02*
X053763Y006702D01*
X053763Y006739D02*
X053763Y006581D01*
X053823Y006435D01*
X053935Y006323D01*
X054081Y006263D01*
X054239Y006263D01*
X054385Y006323D01*
X054497Y006435D01*
X054557Y006581D01*
X054557Y006739D01*
X054497Y006885D01*
X054385Y006997D01*
X054239Y007057D01*
X054081Y007057D01*
X053935Y006997D01*
X053823Y006885D01*
X053763Y006739D01*
X053797Y006821D02*
X053378Y006821D01*
X053385Y006823D02*
X053497Y006935D01*
X053557Y007081D01*
X053557Y007239D01*
X053497Y007385D01*
X053385Y007497D01*
X053239Y007557D01*
X053081Y007557D01*
X052935Y007497D01*
X052823Y007385D01*
X052763Y007239D01*
X052763Y007081D01*
X052823Y006935D01*
X052935Y006823D01*
X053081Y006763D01*
X053239Y006763D01*
X053385Y006823D01*
X053498Y006939D02*
X053877Y006939D01*
X053547Y007058D02*
X056476Y007058D01*
X056481Y007060D02*
X056150Y006923D01*
X055897Y006670D01*
X055760Y006339D01*
X055760Y005981D01*
X055871Y005714D01*
X055683Y005902D01*
X055519Y005902D01*
X055519Y005421D01*
X055399Y005421D01*
X055399Y005902D01*
X055235Y005902D01*
X054918Y005585D01*
X054918Y005421D01*
X055399Y005421D01*
X055399Y005301D01*
X054918Y005301D01*
X054918Y005137D01*
X055235Y004820D01*
X055399Y004820D01*
X055399Y005301D01*
X055519Y005301D01*
X055519Y004820D01*
X055683Y004820D01*
X056000Y005137D01*
X056000Y005301D01*
X055519Y005301D01*
X055519Y005421D01*
X056000Y005421D01*
X056000Y005547D01*
X056150Y005397D01*
X056481Y005260D01*
X056839Y005260D01*
X057170Y005397D01*
X057423Y005650D01*
X057560Y005981D01*
X057560Y006339D01*
X057423Y006670D01*
X057170Y006923D01*
X056839Y007060D01*
X056481Y007060D01*
X056189Y006939D02*
X054443Y006939D01*
X054523Y006821D02*
X056048Y006821D01*
X055930Y006702D02*
X054557Y006702D01*
X054557Y006584D02*
X055862Y006584D01*
X055812Y006465D02*
X054509Y006465D01*
X054408Y006347D02*
X055763Y006347D01*
X055760Y006228D02*
X053557Y006228D01*
X053557Y006110D02*
X055760Y006110D01*
X055760Y005991D02*
X053557Y005991D01*
X053557Y005873D02*
X055206Y005873D01*
X055088Y005754D02*
X049987Y005754D01*
X049906Y005754D02*
X049906Y005754D01*
X049906Y005801D02*
X049906Y005801D01*
X049749Y005801D02*
X049749Y005750D01*
X049749Y005801D01*
X049749Y005801D01*
X049749Y005801D01*
X049749Y005754D02*
X049749Y005754D01*
X049591Y005754D02*
X049591Y005754D01*
X049434Y005754D02*
X049434Y005754D01*
X049434Y005750D02*
X049434Y005801D01*
X049434Y005801D01*
X049434Y005801D01*
X049434Y005750D01*
X049276Y005754D02*
X049276Y005754D01*
X049119Y005754D02*
X049119Y005754D01*
X049119Y005750D02*
X049119Y005801D01*
X049119Y005801D01*
X049119Y005801D01*
X049119Y005750D01*
X048961Y005754D02*
X048961Y005754D01*
X048646Y005754D02*
X048646Y005754D01*
X047701Y005754D02*
X047701Y005754D01*
X047544Y005754D02*
X047544Y005754D01*
X047544Y005750D02*
X047544Y005801D01*
X047544Y005801D01*
X047544Y005801D01*
X047544Y005750D01*
X047386Y005754D02*
X047386Y005754D01*
X047229Y005754D02*
X047229Y005754D01*
X047229Y005750D02*
X047229Y005801D01*
X047229Y005801D01*
X047229Y005801D01*
X047229Y005750D01*
X047071Y005754D02*
X047071Y005754D01*
X046914Y005754D02*
X046914Y005754D01*
X046914Y005750D02*
X046914Y005801D01*
X046914Y005801D01*
X046914Y005750D01*
X046833Y005754D02*
X026660Y005754D01*
X026660Y005636D02*
X054969Y005636D01*
X054918Y005517D02*
X026660Y005517D01*
X026660Y005399D02*
X055399Y005399D01*
X055399Y005517D02*
X055519Y005517D01*
X055519Y005399D02*
X056149Y005399D01*
X056031Y005517D02*
X056000Y005517D01*
X056000Y005280D02*
X056433Y005280D01*
X056000Y005162D02*
X060900Y005162D01*
X060900Y005280D02*
X056887Y005280D01*
X057171Y005399D02*
X058142Y005399D01*
X058183Y005382D02*
X058350Y005382D01*
X058504Y005446D01*
X058622Y005564D01*
X058686Y005718D01*
X058686Y005885D01*
X058622Y006040D01*
X058504Y006158D01*
X058350Y006222D01*
X058183Y006222D01*
X058028Y006158D01*
X057910Y006040D01*
X057846Y005885D01*
X057846Y005718D01*
X057910Y005564D01*
X058028Y005446D01*
X058183Y005382D01*
X058390Y005399D02*
X060900Y005399D01*
X060900Y005517D02*
X058576Y005517D01*
X058652Y005636D02*
X060900Y005636D01*
X060900Y005754D02*
X058686Y005754D01*
X058686Y005873D02*
X060900Y005873D01*
X060900Y005991D02*
X058643Y005991D01*
X058552Y006110D02*
X060900Y006110D01*
X060900Y006228D02*
X057560Y006228D01*
X057560Y006110D02*
X057980Y006110D01*
X057890Y005991D02*
X057560Y005991D01*
X057515Y005873D02*
X057846Y005873D01*
X057846Y005754D02*
X057466Y005754D01*
X057408Y005636D02*
X057881Y005636D01*
X057957Y005517D02*
X057289Y005517D01*
X057557Y006347D02*
X060900Y006347D01*
X060900Y006465D02*
X058524Y006465D01*
X058504Y006446D02*
X058622Y006564D01*
X058686Y006718D01*
X058686Y006885D01*
X058622Y007040D01*
X058504Y007158D01*
X058350Y007222D01*
X058183Y007222D01*
X058028Y007158D01*
X057910Y007040D01*
X057846Y006885D01*
X057846Y006718D01*
X057910Y006564D01*
X058028Y006446D01*
X058183Y006382D01*
X058350Y006382D01*
X058504Y006446D01*
X058631Y006584D02*
X060900Y006584D01*
X060900Y006702D02*
X058680Y006702D01*
X058686Y006821D02*
X060900Y006821D01*
X060900Y006939D02*
X058664Y006939D01*
X058604Y007058D02*
X060900Y007058D01*
X060900Y007176D02*
X058460Y007176D01*
X058072Y007176D02*
X053557Y007176D01*
X053534Y007295D02*
X054005Y007295D01*
X053935Y007323D02*
X054081Y007263D01*
X054239Y007263D01*
X054385Y007323D01*
X054497Y007435D01*
X054557Y007581D01*
X054557Y007739D01*
X054497Y007885D01*
X054385Y007997D01*
X054239Y008057D01*
X054081Y008057D01*
X053935Y007997D01*
X053823Y007885D01*
X053763Y007739D01*
X053763Y007581D01*
X053823Y007435D01*
X053935Y007323D01*
X053845Y007413D02*
X053469Y007413D01*
X053301Y007532D02*
X053783Y007532D01*
X053763Y007650D02*
X051070Y007650D01*
X051070Y007544D02*
X051019Y007544D01*
X051019Y007544D01*
X051019Y007544D01*
X051070Y007544D01*
X051070Y007532D02*
X053019Y007532D01*
X052851Y007413D02*
X051070Y007413D01*
X051070Y007295D02*
X052786Y007295D01*
X052763Y007176D02*
X051070Y007176D01*
X051070Y007229D02*
X051019Y007229D01*
X051019Y007229D01*
X051019Y007229D01*
X051070Y007229D01*
X051070Y007058D02*
X052773Y007058D01*
X052822Y006939D02*
X051070Y006939D01*
X051070Y006914D02*
X051019Y006914D01*
X051019Y006914D01*
X051070Y006914D01*
X051063Y006821D02*
X052942Y006821D01*
X052845Y006557D02*
X052763Y006475D01*
X052763Y005845D01*
X052845Y005763D01*
X053475Y005763D01*
X053557Y005845D01*
X053557Y006475D01*
X053475Y006557D01*
X052845Y006557D01*
X052763Y006465D02*
X050095Y006465D01*
X050095Y006347D02*
X052763Y006347D01*
X052763Y006228D02*
X050095Y006228D01*
X050095Y006110D02*
X052763Y006110D01*
X052763Y005991D02*
X050095Y005991D01*
X050095Y005873D02*
X052763Y005873D01*
X053557Y006347D02*
X053912Y006347D01*
X053811Y006465D02*
X053557Y006465D01*
X053763Y006584D02*
X050080Y006584D01*
X049906Y006610D02*
X049906Y006610D01*
X049906Y006660D01*
X049906Y006610D01*
X049591Y006610D02*
X049591Y006610D01*
X049591Y006660D01*
X049591Y006610D01*
X049591Y006610D01*
X049276Y006610D02*
X049276Y006610D01*
X049276Y006660D01*
X049276Y006610D01*
X049276Y006610D01*
X048961Y006610D02*
X048961Y006610D01*
X048961Y006660D01*
X048961Y006610D01*
X048961Y006610D01*
X048646Y006610D02*
X048646Y006610D01*
X048646Y006660D01*
X048646Y006610D01*
X048646Y006610D01*
X048993Y006205D02*
X049119Y006205D01*
X049244Y006205D01*
X049276Y006205D01*
X049276Y006205D01*
X049119Y006205D01*
X049119Y006205D01*
X049087Y006205D01*
X048993Y006205D01*
X048993Y006205D01*
X049119Y006205D02*
X049119Y006205D01*
X049276Y006205D02*
X049434Y006205D01*
X049591Y006205D01*
X049591Y006205D01*
X049591Y006205D01*
X049623Y006205D01*
X049717Y006205D01*
X049749Y006205D01*
X049749Y006205D01*
X049591Y006205D01*
X049434Y006205D01*
X049434Y006205D01*
X049434Y006205D01*
X049276Y006205D01*
X049276Y006205D01*
X050210Y007071D02*
X050210Y007071D01*
X050210Y007071D01*
X050615Y007071D02*
X050615Y007197D01*
X050615Y007071D01*
X050615Y007040D01*
X050615Y006914D01*
X050615Y006914D01*
X050615Y006725D01*
X050615Y006914D01*
X050615Y006914D01*
X050615Y007071D01*
X050615Y007071D01*
X050615Y007071D01*
X050615Y007058D02*
X050615Y007058D01*
X050615Y007176D02*
X050615Y007176D01*
X050615Y007197D02*
X050615Y007197D01*
X050615Y006939D02*
X050615Y006939D01*
X050615Y006821D02*
X050615Y006821D01*
X050615Y007576D02*
X050615Y007701D01*
X050615Y007701D01*
X050615Y007576D01*
X050615Y007576D01*
X050615Y007650D02*
X050615Y007650D01*
X050615Y007701D02*
X050615Y007859D01*
X050615Y007985D01*
X050615Y008016D01*
X050615Y008016D01*
X050615Y007859D01*
X050615Y007859D01*
X050615Y007827D01*
X050615Y007733D01*
X050615Y007701D01*
X050615Y007701D01*
X050615Y007769D02*
X050615Y007769D01*
X050615Y007859D02*
X050615Y007859D01*
X050615Y007887D02*
X050615Y007887D01*
X050615Y008006D02*
X050615Y008006D01*
X050615Y008016D02*
X050615Y008142D01*
X050615Y008174D01*
X050615Y008300D01*
X050615Y008331D01*
X050615Y008331D01*
X050615Y008174D01*
X050615Y008174D01*
X050615Y008174D01*
X050615Y008016D01*
X050615Y008016D01*
X050615Y008124D02*
X050615Y008124D01*
X050615Y008243D02*
X050615Y008243D01*
X050615Y008331D02*
X050615Y008457D01*
X050615Y008489D01*
X050615Y008646D01*
X050615Y008646D01*
X050615Y008489D01*
X050615Y008489D01*
X050615Y008489D01*
X050615Y008331D01*
X050615Y008331D01*
X050615Y008361D02*
X050615Y008361D01*
X050615Y008480D02*
X050615Y008480D01*
X050615Y008598D02*
X050615Y008598D01*
X050615Y008646D02*
X050615Y008804D01*
X050615Y008804D01*
X050615Y008835D01*
X050615Y008835D01*
X050615Y008929D01*
X050615Y008929D01*
X050615Y008804D01*
X050615Y008804D01*
X050615Y008646D01*
X050615Y008646D01*
X050615Y008717D02*
X050615Y008717D01*
X051019Y008804D02*
X051019Y008804D01*
X051019Y008804D01*
X051070Y008804D01*
X051019Y008804D01*
X051070Y008835D02*
X052923Y008835D01*
X052935Y008823D02*
X053081Y008763D01*
X053239Y008763D01*
X053385Y008823D01*
X053497Y008935D01*
X053557Y009081D01*
X053557Y009239D01*
X053497Y009385D01*
X053385Y009497D01*
X053239Y009557D01*
X053081Y009557D01*
X052935Y009497D01*
X052823Y009385D01*
X052763Y009239D01*
X052763Y009081D01*
X052823Y008935D01*
X052935Y008823D01*
X052816Y008954D02*
X051070Y008954D01*
X051070Y009072D02*
X052767Y009072D01*
X052763Y009191D02*
X051070Y009191D01*
X051070Y009309D02*
X052792Y009309D01*
X052866Y009428D02*
X051070Y009428D01*
X051070Y009546D02*
X053054Y009546D01*
X053266Y009546D02*
X053777Y009546D01*
X053763Y009581D02*
X053823Y009435D01*
X053935Y009323D01*
X054081Y009263D01*
X054239Y009263D01*
X054385Y009323D01*
X054497Y009435D01*
X054557Y009581D01*
X054557Y009739D01*
X054497Y009885D01*
X054385Y009997D01*
X054239Y010057D01*
X054081Y010057D01*
X053935Y009997D01*
X053823Y009885D01*
X053763Y009739D01*
X053763Y009581D01*
X053763Y009665D02*
X051070Y009665D01*
X051070Y009783D02*
X053032Y009783D01*
X053081Y009763D02*
X052935Y009823D01*
X052823Y009935D01*
X052763Y010081D01*
X052763Y010239D01*
X052823Y010385D01*
X052935Y010497D01*
X053081Y010557D01*
X053239Y010557D01*
X053385Y010497D01*
X053497Y010385D01*
X053557Y010239D01*
X053557Y010081D01*
X053497Y009935D01*
X053385Y009823D01*
X053239Y009763D01*
X053081Y009763D01*
X053288Y009783D02*
X053781Y009783D01*
X053840Y009902D02*
X053463Y009902D01*
X053532Y010020D02*
X053991Y010020D01*
X054081Y010263D02*
X054239Y010263D01*
X054385Y010323D01*
X054497Y010435D01*
X054557Y010581D01*
X054557Y010739D01*
X054497Y010885D01*
X054385Y010997D01*
X054239Y011057D01*
X054081Y011057D01*
X053935Y010997D01*
X053823Y010885D01*
X053763Y010739D01*
X053763Y010581D01*
X053823Y010435D01*
X053935Y010323D01*
X054081Y010263D01*
X053883Y010376D02*
X053501Y010376D01*
X053550Y010257D02*
X055853Y010257D01*
X055897Y010150D02*
X056150Y009897D01*
X056481Y009760D01*
X056839Y009760D01*
X057170Y009897D01*
X057423Y010150D01*
X057560Y010481D01*
X057560Y010839D01*
X057423Y011170D01*
X057170Y011423D01*
X056839Y011560D01*
X056481Y011560D01*
X056150Y011423D01*
X056000Y011273D01*
X056000Y011399D01*
X055519Y011399D01*
X055519Y010918D01*
X055683Y010918D01*
X055871Y011106D01*
X055760Y010839D01*
X055760Y010481D01*
X055897Y010150D01*
X055909Y010139D02*
X053557Y010139D01*
X053388Y010494D02*
X053799Y010494D01*
X053763Y010613D02*
X050095Y010613D01*
X050095Y010731D02*
X053763Y010731D01*
X053809Y010850D02*
X050095Y010850D01*
X050095Y010968D02*
X053906Y010968D01*
X054414Y010968D02*
X055186Y010968D01*
X055235Y010918D02*
X055399Y010918D01*
X055399Y011399D01*
X055519Y011399D01*
X055519Y011519D01*
X056000Y011519D01*
X056000Y011683D01*
X055683Y012000D01*
X055519Y012000D01*
X055519Y011519D01*
X055399Y011519D01*
X055399Y011399D01*
X054918Y011399D01*
X054918Y011235D01*
X055235Y010918D01*
X055399Y010968D02*
X055519Y010968D01*
X055519Y011087D02*
X055399Y011087D01*
X055399Y011205D02*
X055519Y011205D01*
X055519Y011324D02*
X055399Y011324D01*
X055399Y011442D02*
X037912Y011442D01*
X037912Y011324D02*
X054918Y011324D01*
X054949Y011205D02*
X037866Y011205D01*
X037827Y011140D02*
X037791Y011150D01*
X037638Y011150D01*
X037638Y010875D01*
X037912Y010875D01*
X037912Y011028D01*
X037903Y011064D01*
X037885Y011096D01*
X037858Y011122D01*
X037827Y011140D01*
X037890Y011087D02*
X055067Y011087D01*
X054918Y011519D02*
X055399Y011519D01*
X055399Y012000D01*
X055235Y012000D01*
X054918Y011683D01*
X054918Y011519D01*
X054918Y011561D02*
X037912Y011561D01*
X037901Y011679D02*
X054918Y011679D01*
X055033Y011798D02*
X037566Y011798D01*
X037867Y011916D02*
X055151Y011916D01*
X055399Y011916D02*
X055519Y011916D01*
X055519Y011798D02*
X055399Y011798D01*
X055399Y011679D02*
X055519Y011679D01*
X055519Y011561D02*
X055399Y011561D01*
X055519Y011442D02*
X056197Y011442D01*
X056051Y011324D02*
X056000Y011324D01*
X056000Y011561D02*
X060900Y011561D01*
X060900Y011679D02*
X056000Y011679D01*
X055886Y011798D02*
X060900Y011798D01*
X060900Y011916D02*
X055767Y011916D01*
X055851Y011087D02*
X055863Y011087D01*
X055814Y010968D02*
X055733Y010968D01*
X055765Y010850D02*
X054511Y010850D01*
X054557Y010731D02*
X055760Y010731D01*
X055760Y010613D02*
X054557Y010613D01*
X054521Y010494D02*
X055760Y010494D01*
X055804Y010376D02*
X054437Y010376D01*
X054329Y010020D02*
X056028Y010020D01*
X056146Y009902D02*
X054480Y009902D01*
X054539Y009783D02*
X056426Y009783D01*
X056894Y009783D02*
X057909Y009783D01*
X057910Y009780D02*
X058028Y009662D01*
X058183Y009598D01*
X058350Y009598D01*
X058504Y009662D01*
X058622Y009780D01*
X058686Y009935D01*
X058686Y010102D01*
X058622Y010256D01*
X058504Y010374D01*
X058350Y010438D01*
X058183Y010438D01*
X058028Y010374D01*
X057910Y010256D01*
X057846Y010102D01*
X057846Y009935D01*
X057910Y009780D01*
X057860Y009902D02*
X057174Y009902D01*
X057292Y010020D02*
X057846Y010020D01*
X057862Y010139D02*
X057411Y010139D01*
X057467Y010257D02*
X057911Y010257D01*
X058031Y010376D02*
X057516Y010376D01*
X057560Y010494D02*
X060900Y010494D01*
X060900Y010376D02*
X058501Y010376D01*
X058622Y010257D02*
X060900Y010257D01*
X060900Y010139D02*
X058671Y010139D01*
X058686Y010020D02*
X060900Y010020D01*
X060900Y009902D02*
X058673Y009902D01*
X058623Y009783D02*
X060900Y009783D01*
X060900Y009665D02*
X058507Y009665D01*
X058026Y009665D02*
X054557Y009665D01*
X054543Y009546D02*
X060900Y009546D01*
X060900Y009428D02*
X054489Y009428D01*
X054350Y009309D02*
X060900Y009309D01*
X060900Y009191D02*
X053557Y009191D01*
X053553Y009072D02*
X060900Y009072D01*
X060900Y008954D02*
X054428Y008954D01*
X054385Y008997D02*
X054239Y009057D01*
X054081Y009057D01*
X053935Y008997D01*
X053823Y008885D01*
X053763Y008739D01*
X053763Y008581D01*
X053823Y008435D01*
X053935Y008323D01*
X054081Y008263D01*
X054239Y008263D01*
X054385Y008323D01*
X054497Y008435D01*
X054557Y008581D01*
X054557Y008739D01*
X054497Y008885D01*
X054385Y008997D01*
X054517Y008835D02*
X060900Y008835D01*
X060900Y008717D02*
X054557Y008717D01*
X054557Y008598D02*
X060900Y008598D01*
X060900Y008480D02*
X054515Y008480D01*
X054423Y008361D02*
X060900Y008361D01*
X060900Y008243D02*
X053556Y008243D01*
X053557Y008239D02*
X053497Y008385D01*
X053385Y008497D01*
X053239Y008557D01*
X053081Y008557D01*
X052935Y008497D01*
X052823Y008385D01*
X052763Y008239D01*
X052763Y008081D01*
X052823Y007935D01*
X052935Y007823D01*
X053081Y007763D01*
X053239Y007763D01*
X053385Y007823D01*
X053497Y007935D01*
X053557Y008081D01*
X053557Y008239D01*
X053557Y008124D02*
X060900Y008124D01*
X060900Y008006D02*
X054364Y008006D01*
X054495Y007887D02*
X060900Y007887D01*
X060900Y007769D02*
X054545Y007769D01*
X054557Y007650D02*
X060900Y007650D01*
X060900Y007532D02*
X054537Y007532D01*
X054475Y007413D02*
X060900Y007413D01*
X060900Y007295D02*
X054315Y007295D01*
X053775Y007769D02*
X053253Y007769D01*
X053067Y007769D02*
X051070Y007769D01*
X051070Y007859D02*
X051019Y007859D01*
X051019Y007859D01*
X051019Y007859D01*
X051070Y007859D01*
X051070Y007887D02*
X052871Y007887D01*
X052794Y008006D02*
X051070Y008006D01*
X051070Y008124D02*
X052763Y008124D01*
X052764Y008243D02*
X051069Y008243D01*
X051070Y008174D02*
X051019Y008174D01*
X051019Y008174D01*
X051019Y008174D01*
X051070Y008174D01*
X051070Y008361D02*
X052813Y008361D01*
X052918Y008480D02*
X051070Y008480D01*
X051070Y008489D02*
X051019Y008489D01*
X051019Y008489D01*
X051019Y008489D01*
X051070Y008489D01*
X051070Y008598D02*
X053763Y008598D01*
X053763Y008717D02*
X051069Y008717D01*
X050210Y008961D02*
X050210Y008961D01*
X050210Y008961D01*
X050210Y008016D02*
X050210Y008016D01*
X050210Y008016D01*
X047701Y006660D02*
X047701Y006610D01*
X047701Y006660D01*
X047701Y006610D02*
X047701Y006610D01*
X047701Y006610D01*
X047386Y006610D02*
X047386Y006610D01*
X047386Y006660D01*
X047386Y006610D01*
X047386Y006610D01*
X047071Y006610D02*
X047071Y006610D01*
X047071Y006660D01*
X047071Y006610D01*
X047071Y006610D01*
X046725Y006465D02*
X026660Y006465D01*
X026660Y006347D02*
X046725Y006347D01*
X046725Y006228D02*
X026660Y006228D01*
X026660Y006110D02*
X046725Y006110D01*
X046725Y006205D02*
X046914Y006205D01*
X047040Y006205D01*
X047071Y006205D01*
X047071Y006205D01*
X046914Y006205D01*
X046914Y006205D01*
X046914Y006205D01*
X046725Y006205D01*
X046725Y005991D02*
X026660Y005991D01*
X026660Y005873D02*
X046725Y005873D01*
X047071Y006205D02*
X047197Y006205D01*
X047229Y006205D01*
X047355Y006205D01*
X047386Y006205D01*
X047386Y006205D01*
X047229Y006205D01*
X047229Y006205D01*
X047229Y006205D01*
X047071Y006205D01*
X047071Y006205D01*
X047386Y006205D02*
X047544Y006205D01*
X047670Y006205D01*
X047670Y006205D01*
X047544Y006205D01*
X047544Y006205D01*
X047544Y006205D01*
X047386Y006205D01*
X047386Y006205D01*
X046205Y006821D02*
X046205Y006821D01*
X046205Y006939D02*
X046205Y006939D01*
X045801Y006914D02*
X045801Y006914D01*
X045750Y006939D02*
X026660Y006939D01*
X026660Y006821D02*
X045757Y006821D01*
X045750Y007058D02*
X037000Y007058D01*
X037008Y007062D02*
X037034Y007088D01*
X037052Y007120D01*
X037062Y007155D01*
X037062Y007391D01*
X036783Y007391D01*
X036783Y007034D01*
X036940Y007034D01*
X036976Y007043D01*
X037008Y007062D01*
X037062Y007176D02*
X045750Y007176D01*
X045750Y007071D02*
X045801Y007071D01*
X045801Y007071D01*
X045801Y007071D01*
X045750Y007071D01*
X045750Y007295D02*
X037062Y007295D01*
X037062Y007429D02*
X037062Y007665D01*
X037052Y007700D01*
X037034Y007732D01*
X037008Y007758D01*
X036976Y007777D01*
X036940Y007786D01*
X036783Y007786D01*
X036783Y007429D01*
X036746Y007429D01*
X036746Y007786D01*
X036588Y007786D01*
X036553Y007777D01*
X036521Y007758D01*
X036495Y007732D01*
X036476Y007700D01*
X036467Y007665D01*
X036467Y007429D01*
X036746Y007429D01*
X036746Y007391D01*
X036783Y007391D01*
X036783Y007429D01*
X037062Y007429D01*
X037062Y007532D02*
X045750Y007532D01*
X045750Y007650D02*
X037062Y007650D01*
X036990Y007769D02*
X045750Y007769D01*
X045750Y007887D02*
X034307Y007887D01*
X034302Y007870D02*
X034312Y007905D01*
X034312Y008141D01*
X034033Y008141D01*
X034033Y007784D01*
X034190Y007784D01*
X034226Y007793D01*
X034258Y007812D01*
X034284Y007838D01*
X034302Y007870D01*
X034352Y007750D02*
X034302Y007700D01*
X034002Y007700D01*
X033920Y007618D01*
X033920Y007202D01*
X034002Y007120D01*
X034270Y007120D01*
X034270Y007052D01*
X034352Y006970D01*
X034968Y006970D01*
X035050Y007052D01*
X035050Y007668D01*
X034968Y007750D01*
X034352Y007750D01*
X034312Y008006D02*
X045750Y008006D01*
X045750Y008016D02*
X045801Y008016D01*
X045801Y008016D01*
X045801Y008016D01*
X045750Y008016D01*
X045750Y008124D02*
X034312Y008124D01*
X034312Y008179D02*
X034312Y008415D01*
X034302Y008450D01*
X034284Y008482D01*
X034258Y008508D01*
X034226Y008527D01*
X034190Y008536D01*
X034033Y008536D01*
X034033Y008179D01*
X033996Y008179D01*
X033996Y008536D01*
X033838Y008536D01*
X033803Y008527D01*
X033771Y008508D01*
X033745Y008482D01*
X033726Y008450D01*
X033717Y008415D01*
X033717Y008179D01*
X033996Y008179D01*
X033996Y008141D01*
X034033Y008141D01*
X034033Y008179D01*
X034312Y008179D01*
X034312Y008243D02*
X045750Y008243D01*
X045750Y008361D02*
X034312Y008361D01*
X034285Y008480D02*
X034570Y008480D01*
X034570Y008598D02*
X032995Y008598D01*
X032990Y008614D02*
X032972Y008646D01*
X032946Y008672D01*
X032914Y008690D01*
X032878Y008700D01*
X032725Y008700D01*
X032725Y008425D01*
X033000Y008425D01*
X033000Y008578D01*
X032990Y008614D01*
X033090Y008536D02*
X033008Y008454D01*
X033008Y007866D01*
X033090Y007784D01*
X033521Y007784D01*
X033603Y007866D01*
X033603Y008454D01*
X033521Y008536D01*
X033090Y008536D01*
X033033Y008480D02*
X033000Y008480D01*
X033000Y008395D02*
X032725Y008395D01*
X032725Y008425D01*
X032695Y008425D01*
X032695Y008700D01*
X032542Y008700D01*
X032506Y008690D01*
X032474Y008672D01*
X032448Y008646D01*
X032430Y008614D01*
X032420Y008578D01*
X032420Y008425D01*
X032695Y008425D01*
X032695Y008395D01*
X032725Y008395D01*
X032725Y008120D01*
X032878Y008120D01*
X032914Y008130D01*
X032946Y008148D01*
X032972Y008174D01*
X032990Y008206D01*
X033000Y008242D01*
X033000Y008395D01*
X033000Y008361D02*
X033008Y008361D01*
X033000Y008243D02*
X033008Y008243D01*
X033008Y008124D02*
X032893Y008124D01*
X033008Y008006D02*
X026660Y008006D01*
X026660Y008124D02*
X030648Y008124D01*
X030652Y008120D02*
X031068Y008120D01*
X031150Y008202D01*
X031150Y008618D01*
X031068Y008700D01*
X030652Y008700D01*
X030570Y008618D01*
X030570Y008202D01*
X030652Y008120D01*
X030570Y008243D02*
X026660Y008243D01*
X026660Y008361D02*
X030570Y008361D01*
X030570Y008480D02*
X026660Y008480D01*
X026660Y008598D02*
X030570Y008598D01*
X031150Y008598D02*
X031175Y008598D01*
X031180Y008614D02*
X031170Y008578D01*
X031170Y008425D01*
X031445Y008425D01*
X031445Y008700D01*
X031292Y008700D01*
X031256Y008690D01*
X031224Y008672D01*
X031198Y008646D01*
X031180Y008614D01*
X031170Y008480D02*
X031150Y008480D01*
X031170Y008395D02*
X031170Y008242D01*
X031180Y008206D01*
X031198Y008174D01*
X031224Y008148D01*
X031256Y008130D01*
X031292Y008120D01*
X031445Y008120D01*
X031445Y008395D01*
X031475Y008395D01*
X031475Y008425D01*
X031750Y008425D01*
X031750Y008578D01*
X031740Y008614D01*
X031722Y008646D01*
X031696Y008672D01*
X031664Y008690D01*
X031628Y008700D01*
X031475Y008700D01*
X031475Y008425D01*
X031445Y008425D01*
X031445Y008395D01*
X031170Y008395D01*
X031170Y008361D02*
X031150Y008361D01*
X031150Y008243D02*
X031170Y008243D01*
X031072Y008124D02*
X031277Y008124D01*
X031445Y008124D02*
X031475Y008124D01*
X031475Y008120D02*
X031628Y008120D01*
X031664Y008130D01*
X031696Y008148D01*
X031722Y008174D01*
X031740Y008206D01*
X031750Y008242D01*
X031750Y008395D01*
X031475Y008395D01*
X031475Y008120D01*
X031475Y008243D02*
X031445Y008243D01*
X031445Y008361D02*
X031475Y008361D01*
X031475Y008480D02*
X031445Y008480D01*
X031445Y008598D02*
X031475Y008598D01*
X031745Y008598D02*
X031820Y008598D01*
X031820Y008618D02*
X031820Y008202D01*
X031902Y008120D01*
X032318Y008120D01*
X032400Y008202D01*
X032400Y008618D01*
X032318Y008700D01*
X031902Y008700D01*
X031820Y008618D01*
X031820Y008480D02*
X031750Y008480D01*
X031750Y008361D02*
X031820Y008361D01*
X031820Y008243D02*
X031750Y008243D01*
X031643Y008124D02*
X031898Y008124D01*
X032322Y008124D02*
X032527Y008124D01*
X032542Y008120D02*
X032695Y008120D01*
X032695Y008395D01*
X032420Y008395D01*
X032420Y008242D01*
X032430Y008206D01*
X032448Y008174D01*
X032474Y008148D01*
X032506Y008130D01*
X032542Y008120D01*
X032695Y008124D02*
X032725Y008124D01*
X032725Y008243D02*
X032695Y008243D01*
X032695Y008361D02*
X032725Y008361D01*
X032725Y008480D02*
X032695Y008480D01*
X032695Y008598D02*
X032725Y008598D01*
X032425Y008598D02*
X032400Y008598D01*
X032400Y008480D02*
X032420Y008480D01*
X032420Y008361D02*
X032400Y008361D01*
X032400Y008243D02*
X032420Y008243D01*
X032402Y007700D02*
X032320Y007618D01*
X032320Y007202D01*
X032402Y007120D01*
X032818Y007120D01*
X032900Y007202D01*
X032900Y007618D01*
X032818Y007700D01*
X032402Y007700D01*
X032352Y007650D02*
X026660Y007650D01*
X026660Y007532D02*
X032320Y007532D01*
X032320Y007413D02*
X026660Y007413D01*
X026660Y007295D02*
X032320Y007295D01*
X032346Y007176D02*
X026660Y007176D01*
X026660Y007058D02*
X034270Y007058D01*
X033946Y007176D02*
X033874Y007176D01*
X033900Y007202D02*
X033900Y007618D01*
X033818Y007700D01*
X033402Y007700D01*
X033397Y007695D01*
X033378Y007700D01*
X033225Y007700D01*
X033225Y007425D01*
X033195Y007425D01*
X033195Y007700D01*
X033042Y007700D01*
X033006Y007690D01*
X032974Y007672D01*
X032948Y007646D01*
X032930Y007614D01*
X032920Y007578D01*
X032920Y007425D01*
X033195Y007425D01*
X033195Y007395D01*
X033225Y007395D01*
X033225Y007120D01*
X033378Y007120D01*
X033397Y007125D01*
X033402Y007120D01*
X033818Y007120D01*
X033900Y007202D01*
X033900Y007295D02*
X033920Y007295D01*
X033920Y007413D02*
X033900Y007413D01*
X033900Y007532D02*
X033920Y007532D01*
X033952Y007650D02*
X033868Y007650D01*
X033838Y007784D02*
X033996Y007784D01*
X033996Y008141D01*
X033717Y008141D01*
X033717Y007905D01*
X033726Y007870D01*
X033745Y007838D01*
X033771Y007812D01*
X033803Y007793D01*
X033838Y007784D01*
X033722Y007887D02*
X033603Y007887D01*
X033603Y008006D02*
X033717Y008006D01*
X033717Y008124D02*
X033603Y008124D01*
X033603Y008243D02*
X033717Y008243D01*
X033717Y008361D02*
X033603Y008361D01*
X033578Y008480D02*
X033743Y008480D01*
X033996Y008480D02*
X034033Y008480D01*
X034033Y008361D02*
X033996Y008361D01*
X033996Y008243D02*
X034033Y008243D01*
X034033Y008124D02*
X033996Y008124D01*
X033996Y008006D02*
X034033Y008006D01*
X034033Y007887D02*
X033996Y007887D01*
X033225Y007650D02*
X033195Y007650D01*
X033195Y007532D02*
X033225Y007532D01*
X033195Y007413D02*
X032900Y007413D01*
X032920Y007395D02*
X032920Y007242D01*
X032930Y007206D01*
X032948Y007174D01*
X032974Y007148D01*
X033006Y007130D01*
X033042Y007120D01*
X033195Y007120D01*
X033195Y007395D01*
X032920Y007395D01*
X032920Y007295D02*
X032900Y007295D01*
X032874Y007176D02*
X032947Y007176D01*
X033195Y007176D02*
X033225Y007176D01*
X033225Y007295D02*
X033195Y007295D01*
X032920Y007532D02*
X032900Y007532D01*
X032868Y007650D02*
X032952Y007650D01*
X033008Y007887D02*
X026660Y007887D01*
X026660Y007769D02*
X035822Y007769D01*
X035840Y007786D02*
X035786Y007732D01*
X035768Y007750D01*
X035152Y007750D01*
X035070Y007668D01*
X035070Y007052D01*
X035152Y006970D01*
X035768Y006970D01*
X035836Y007038D01*
X035840Y007034D01*
X036271Y007034D01*
X036353Y007116D01*
X036353Y007704D01*
X036271Y007786D01*
X035840Y007786D01*
X036289Y007769D02*
X036539Y007769D01*
X036467Y007650D02*
X036353Y007650D01*
X036353Y007532D02*
X036467Y007532D01*
X036467Y007391D02*
X036467Y007155D01*
X036476Y007120D01*
X036495Y007088D01*
X036521Y007062D01*
X036553Y007043D01*
X036588Y007034D01*
X036746Y007034D01*
X036746Y007391D01*
X036467Y007391D01*
X036467Y007295D02*
X036353Y007295D01*
X036353Y007413D02*
X036746Y007413D01*
X036783Y007413D02*
X045750Y007413D01*
X045750Y007386D02*
X045801Y007386D01*
X045801Y007386D01*
X045801Y007386D01*
X045750Y007386D01*
X046205Y007891D02*
X046205Y007985D01*
X046205Y007985D01*
X046205Y007891D01*
X046205Y007891D01*
X045750Y008480D02*
X037000Y008480D01*
X037000Y008598D02*
X045750Y008598D01*
X045750Y008717D02*
X037048Y008717D01*
X037162Y008835D02*
X045750Y008835D01*
X045750Y008954D02*
X037162Y008954D01*
X037162Y009072D02*
X045750Y009072D01*
X045750Y009191D02*
X037162Y009191D01*
X037162Y009309D02*
X045750Y009309D01*
X045750Y009428D02*
X037162Y009428D01*
X037162Y009546D02*
X045750Y009546D01*
X045750Y009665D02*
X037162Y009665D01*
X037162Y009783D02*
X045750Y009783D01*
X045750Y009902D02*
X037162Y009902D01*
X037131Y010020D02*
X045757Y010020D01*
X046725Y010613D02*
X037873Y010613D01*
X037885Y010624D02*
X037903Y010656D01*
X037912Y010692D01*
X037912Y010845D01*
X037638Y010845D01*
X037638Y010875D01*
X037607Y010875D01*
X037607Y010845D01*
X037638Y010845D01*
X037638Y010570D01*
X037791Y010570D01*
X037827Y010580D01*
X037858Y010598D01*
X037885Y010624D01*
X037912Y010731D02*
X046725Y010731D01*
X046725Y010850D02*
X037638Y010850D01*
X037607Y010850D02*
X036975Y010850D01*
X037076Y010968D02*
X037333Y010968D01*
X037333Y011028D02*
X037333Y010875D01*
X037607Y010875D01*
X037607Y011150D01*
X037454Y011150D01*
X037418Y011140D01*
X037387Y011122D01*
X037360Y011096D01*
X037342Y011064D01*
X037333Y011028D01*
X037355Y011087D02*
X037076Y011087D01*
X037076Y011205D02*
X037379Y011205D01*
X037607Y011087D02*
X037638Y011087D01*
X037638Y010968D02*
X037607Y010968D01*
X037607Y010731D02*
X037638Y010731D01*
X037638Y010613D02*
X037607Y010613D01*
X037912Y010968D02*
X046725Y010968D01*
X047386Y011019D02*
X047386Y011070D01*
X047386Y011019D01*
X047386Y011019D01*
X047386Y011019D01*
X048804Y010210D02*
X048804Y010210D01*
X048804Y010160D01*
X048804Y010210D01*
X048804Y010210D01*
X049434Y010210D02*
X049434Y010210D01*
X049434Y010160D01*
X049434Y010210D01*
X049434Y010210D01*
X049434Y010615D02*
X049434Y010615D01*
X049465Y010615D01*
X049559Y010615D01*
X049559Y010615D01*
X049434Y010615D01*
X049308Y010615D01*
X049308Y010615D01*
X049434Y010615D01*
X049434Y010615D01*
X049591Y011019D02*
X049591Y011019D01*
X049591Y011019D01*
X049591Y011070D01*
X049591Y011019D01*
X049276Y011019D02*
X049276Y011019D01*
X049276Y011019D01*
X049276Y011070D01*
X049276Y011019D01*
X050095Y010494D02*
X052932Y010494D01*
X052819Y010376D02*
X050095Y010376D01*
X050095Y010257D02*
X052770Y010257D01*
X052763Y010139D02*
X037013Y010139D01*
X036712Y009902D02*
X035770Y009902D01*
X035889Y010020D02*
X035943Y010020D01*
X035926Y009783D02*
X035652Y009783D01*
X035533Y009665D02*
X035874Y009665D01*
X035874Y009546D02*
X035446Y009546D01*
X035446Y009428D02*
X035874Y009428D01*
X035874Y009309D02*
X035446Y009309D01*
X035446Y009191D02*
X035874Y009191D01*
X035942Y008950D02*
X035906Y008940D01*
X035874Y008922D01*
X035848Y008896D01*
X035830Y008864D01*
X035820Y008828D01*
X035820Y008675D01*
X036095Y008675D01*
X036095Y008950D01*
X035942Y008950D01*
X035822Y008835D02*
X035748Y008835D01*
X035750Y008828D02*
X035740Y008864D01*
X035722Y008896D01*
X035696Y008922D01*
X035664Y008940D01*
X035628Y008950D01*
X035475Y008950D01*
X035475Y008675D01*
X035750Y008675D01*
X035750Y008828D01*
X035750Y008717D02*
X035820Y008717D01*
X035820Y008645D02*
X035820Y008492D01*
X035830Y008456D01*
X035848Y008424D01*
X035874Y008398D01*
X035906Y008380D01*
X035942Y008370D01*
X036095Y008370D01*
X036095Y008645D01*
X035820Y008645D01*
X035820Y008598D02*
X035750Y008598D01*
X035750Y008645D02*
X035475Y008645D01*
X035475Y008675D01*
X035445Y008675D01*
X035445Y008950D01*
X035292Y008950D01*
X035256Y008940D01*
X035224Y008922D01*
X035198Y008896D01*
X035180Y008864D01*
X035170Y008828D01*
X035170Y008675D01*
X035445Y008675D01*
X035445Y008645D01*
X035475Y008645D01*
X035475Y008370D01*
X035628Y008370D01*
X035664Y008380D01*
X035696Y008398D01*
X035722Y008424D01*
X035740Y008456D01*
X035750Y008492D01*
X035750Y008645D01*
X035747Y008480D02*
X035823Y008480D01*
X036095Y008480D02*
X036125Y008480D01*
X036125Y008370D02*
X036278Y008370D01*
X036314Y008380D01*
X036346Y008398D01*
X036372Y008424D01*
X036390Y008456D01*
X036400Y008492D01*
X036400Y008645D01*
X036125Y008645D01*
X036125Y008675D01*
X036095Y008675D01*
X036095Y008645D01*
X036125Y008645D01*
X036125Y008370D01*
X036125Y008598D02*
X036095Y008598D01*
X036125Y008675D02*
X036400Y008675D01*
X036400Y008828D01*
X036390Y008864D01*
X036372Y008896D01*
X036346Y008922D01*
X036314Y008940D01*
X036278Y008950D01*
X036125Y008950D01*
X036125Y008675D01*
X036125Y008717D02*
X036095Y008717D01*
X036095Y008835D02*
X036125Y008835D01*
X036398Y008835D02*
X036420Y008835D01*
X036420Y008717D02*
X036400Y008717D01*
X036400Y008598D02*
X036420Y008598D01*
X036420Y008480D02*
X036397Y008480D01*
X036747Y008954D02*
X035050Y008954D01*
X035050Y009072D02*
X036783Y009072D01*
X035475Y008835D02*
X035445Y008835D01*
X035445Y008717D02*
X035475Y008717D01*
X035445Y008645D02*
X035170Y008645D01*
X035170Y008492D01*
X035180Y008456D01*
X035198Y008424D01*
X035224Y008398D01*
X035256Y008380D01*
X035292Y008370D01*
X035445Y008370D01*
X035445Y008645D01*
X035445Y008598D02*
X035475Y008598D01*
X035475Y008480D02*
X035445Y008480D01*
X035173Y008480D02*
X035150Y008480D01*
X035150Y008598D02*
X035170Y008598D01*
X035170Y008717D02*
X035150Y008717D01*
X035150Y008835D02*
X035172Y008835D01*
X034670Y008954D02*
X033522Y008954D01*
X033641Y009072D02*
X034670Y009072D01*
X034570Y008835D02*
X026660Y008835D01*
X026660Y008717D02*
X034570Y008717D01*
X034418Y009191D02*
X033759Y009191D01*
X033878Y009309D02*
X034418Y009309D01*
X034418Y009428D02*
X034200Y009428D01*
X034200Y009546D02*
X034418Y009546D01*
X034418Y009665D02*
X034233Y009665D01*
X034352Y009783D02*
X034469Y009783D01*
X034412Y009902D02*
X035233Y009902D01*
X035446Y010139D02*
X035470Y010139D01*
X035446Y010257D02*
X035515Y010257D01*
X035515Y010376D02*
X035446Y010376D01*
X035446Y010494D02*
X035515Y010494D01*
X035515Y010613D02*
X035446Y010613D01*
X035515Y010731D02*
X034412Y010731D01*
X034412Y010613D02*
X034418Y010613D01*
X034412Y010494D02*
X034418Y010494D01*
X034412Y010376D02*
X034418Y010376D01*
X034412Y010257D02*
X034418Y010257D01*
X034412Y010139D02*
X034418Y010139D01*
X034412Y010020D02*
X034486Y010020D01*
X033951Y009920D02*
X033931Y009900D01*
X033702Y009900D01*
X033620Y009818D01*
X033620Y009589D01*
X033319Y009287D01*
X033000Y009287D01*
X033000Y009618D01*
X032975Y009643D01*
X033039Y009708D01*
X033150Y009819D01*
X033150Y009870D01*
X033168Y009870D01*
X033250Y009952D01*
X033250Y010368D01*
X033168Y010450D01*
X032752Y010450D01*
X032670Y010368D01*
X032670Y009952D01*
X032708Y009914D01*
X032520Y009726D01*
X032520Y009700D01*
X032502Y009700D01*
X032420Y009618D01*
X032420Y009356D01*
X032400Y009376D01*
X032400Y009618D01*
X032318Y009700D01*
X031922Y009700D01*
X031922Y009970D01*
X032070Y009970D01*
X032070Y009952D01*
X032152Y009870D01*
X032568Y009870D01*
X032650Y009952D01*
X032650Y010368D01*
X032568Y010450D01*
X032152Y010450D01*
X032070Y010368D01*
X032070Y010350D01*
X031922Y010350D01*
X031922Y010512D01*
X031840Y010594D01*
X031578Y010594D01*
X031578Y010876D01*
X031840Y010876D01*
X031922Y010958D01*
X031922Y011077D01*
X031926Y011073D01*
X032475Y011073D01*
X032535Y011133D01*
X032595Y011073D01*
X032685Y011073D01*
X032656Y011065D01*
X032624Y011047D01*
X032598Y011021D01*
X032580Y010989D01*
X032570Y010953D01*
X032570Y010800D01*
X032845Y010800D01*
X032845Y010770D01*
X032875Y010770D01*
X032875Y010800D01*
X033150Y010800D01*
X033150Y010953D01*
X033140Y010989D01*
X033122Y011021D01*
X033096Y011047D01*
X033064Y011065D01*
X033035Y011073D01*
X033144Y011073D01*
X033226Y011155D01*
X033226Y011220D01*
X033364Y011220D01*
X033475Y011331D01*
X034208Y012064D01*
X034487Y012064D01*
X034487Y012058D01*
X034823Y012058D01*
X034823Y012058D01*
X034487Y012058D01*
X034487Y012033D01*
X034499Y011985D01*
X034511Y011964D01*
X034487Y011939D01*
X034487Y011850D01*
X034269Y011850D01*
X034158Y011739D01*
X033494Y011075D01*
X033252Y011075D01*
X033170Y010993D01*
X033170Y010577D01*
X033252Y010495D01*
X033283Y010495D01*
X033283Y010331D01*
X033483Y010131D01*
X033594Y010020D01*
X033620Y010020D01*
X033620Y010002D01*
X033702Y009920D01*
X033951Y009920D01*
X033933Y009902D02*
X033200Y009902D01*
X033250Y010020D02*
X033594Y010020D01*
X033475Y010139D02*
X033250Y010139D01*
X033250Y010257D02*
X033357Y010257D01*
X033283Y010376D02*
X033242Y010376D01*
X033283Y010494D02*
X031922Y010494D01*
X031922Y010376D02*
X032078Y010376D01*
X032120Y009902D02*
X031922Y009902D01*
X031922Y009783D02*
X032577Y009783D01*
X032600Y009902D02*
X032695Y009902D01*
X032670Y010020D02*
X032650Y010020D01*
X032650Y010139D02*
X032670Y010139D01*
X032670Y010257D02*
X032650Y010257D01*
X032642Y010376D02*
X032678Y010376D01*
X032692Y010495D02*
X032845Y010495D01*
X032845Y010770D01*
X032570Y010770D01*
X032570Y010617D01*
X032580Y010581D01*
X032598Y010549D01*
X032624Y010523D01*
X032656Y010505D01*
X032692Y010495D01*
X032571Y010613D02*
X031578Y010613D01*
X031578Y010731D02*
X032570Y010731D01*
X032570Y010850D02*
X031578Y010850D01*
X031922Y010968D02*
X032574Y010968D01*
X032582Y011087D02*
X032488Y011087D01*
X032875Y010770D02*
X032875Y010495D01*
X033028Y010495D01*
X033064Y010505D01*
X033096Y010523D01*
X033122Y010549D01*
X033140Y010581D01*
X033150Y010617D01*
X033150Y010770D01*
X032875Y010770D01*
X032875Y010731D02*
X032845Y010731D01*
X032845Y010613D02*
X032875Y010613D01*
X033149Y010613D02*
X033170Y010613D01*
X033170Y010731D02*
X033150Y010731D01*
X033150Y010850D02*
X033170Y010850D01*
X033170Y010968D02*
X033146Y010968D01*
X033158Y011087D02*
X033505Y011087D01*
X033624Y011205D02*
X033226Y011205D01*
X033467Y011324D02*
X033742Y011324D01*
X033861Y011442D02*
X033586Y011442D01*
X033704Y011561D02*
X033979Y011561D01*
X034098Y011679D02*
X033823Y011679D01*
X033941Y011798D02*
X034216Y011798D01*
X034060Y011916D02*
X034487Y011916D01*
X034487Y012035D02*
X034178Y012035D01*
X033759Y012153D02*
X033562Y012153D01*
X033641Y012035D02*
X033481Y012035D01*
X033522Y011916D02*
X031867Y011916D01*
X031922Y011798D02*
X033404Y011798D01*
X033285Y011679D02*
X033212Y011679D01*
X033048Y012035D02*
X032734Y012035D01*
X032732Y012034D02*
X032767Y012043D01*
X032799Y012062D01*
X032825Y012088D01*
X032844Y012120D01*
X032853Y012155D01*
X032853Y012391D01*
X032574Y012391D01*
X032574Y012034D01*
X032732Y012034D01*
X032574Y012035D02*
X032537Y012035D01*
X032537Y012034D02*
X032380Y012034D01*
X032344Y012043D01*
X032312Y012062D01*
X032286Y012088D01*
X032268Y012120D01*
X032258Y012155D01*
X032258Y012391D01*
X032537Y012391D01*
X032574Y012391D01*
X032574Y012429D01*
X032537Y012429D01*
X032537Y012786D01*
X032380Y012786D01*
X032344Y012777D01*
X032312Y012758D01*
X032286Y012732D01*
X032268Y012700D01*
X032258Y012665D01*
X032258Y012429D01*
X032537Y012429D01*
X032537Y012391D01*
X032537Y012034D01*
X032537Y012153D02*
X032574Y012153D01*
X032574Y012272D02*
X032537Y012272D01*
X032537Y012390D02*
X032574Y012390D01*
X032574Y012429D02*
X032853Y012429D01*
X032853Y012665D01*
X032844Y012700D01*
X032825Y012732D01*
X032799Y012758D01*
X032767Y012777D01*
X032732Y012786D01*
X032574Y012786D01*
X032574Y012429D01*
X032574Y012509D02*
X032537Y012509D01*
X032537Y012627D02*
X032574Y012627D01*
X032574Y012746D02*
X032537Y012746D01*
X032300Y012746D02*
X031922Y012746D01*
X031922Y012864D02*
X033812Y012864D01*
X033694Y012983D02*
X031922Y012983D01*
X031899Y013101D02*
X033575Y013101D01*
X033457Y013220D02*
X031016Y013220D01*
X030976Y013165D02*
X030940Y013155D01*
X030908Y013137D01*
X030882Y013111D01*
X030864Y013079D01*
X030854Y013043D01*
X030854Y012691D01*
X031328Y012691D01*
X031328Y013165D01*
X030976Y013165D01*
X030877Y013101D02*
X030649Y013101D01*
X030854Y012983D02*
X027076Y012983D01*
X027076Y013043D02*
X027076Y012691D01*
X026660Y012691D01*
X026660Y012571D01*
X027076Y012571D01*
X027076Y012219D01*
X027067Y012184D01*
X027048Y012152D01*
X027022Y012126D01*
X026990Y012107D01*
X026955Y012098D01*
X026660Y012098D01*
X026660Y011750D01*
X026868Y011750D01*
X026948Y011670D01*
X027072Y011670D01*
X027147Y011595D01*
X027202Y011650D01*
X027618Y011650D01*
X027700Y011568D01*
X027700Y011550D01*
X027870Y011550D01*
X027870Y011568D01*
X027952Y011650D01*
X028368Y011650D01*
X028450Y011568D01*
X028450Y011550D01*
X028620Y011550D01*
X028620Y011568D01*
X028702Y011650D01*
X029118Y011650D01*
X029200Y011568D01*
X029200Y011550D01*
X029370Y011550D01*
X029370Y011568D01*
X029452Y011650D01*
X029868Y011650D01*
X029950Y011568D01*
X029950Y011152D01*
X029868Y011070D01*
X029452Y011070D01*
X029370Y011152D01*
X029370Y011170D01*
X029200Y011170D01*
X029200Y011152D01*
X029118Y011070D01*
X028702Y011070D01*
X028620Y011152D01*
X028620Y011170D01*
X028450Y011170D01*
X028450Y011152D01*
X028368Y011070D01*
X027952Y011070D01*
X027870Y011152D01*
X027870Y011170D01*
X027700Y011170D01*
X027700Y011152D01*
X027618Y011070D01*
X027202Y011070D01*
X027122Y011150D01*
X026998Y011150D01*
X026923Y011225D01*
X026868Y011170D01*
X026660Y011170D01*
X026660Y011150D01*
X026868Y011150D01*
X026950Y011068D01*
X026950Y010652D01*
X026870Y010572D01*
X026870Y010511D01*
X026853Y010493D01*
X026993Y010493D01*
X027075Y010411D01*
X027075Y009508D01*
X026993Y009426D01*
X026660Y009426D01*
X026660Y000670D01*
X058714Y000670D01*
X058580Y000722D01*
X058580Y000722D01*
X058193Y001031D01*
X058193Y001031D01*
X057914Y001440D01*
X057914Y001440D01*
X057769Y001913D01*
X057769Y002407D01*
X057914Y002880D01*
X057914Y002880D01*
X058193Y003289D01*
X058193Y003289D01*
X058580Y003598D01*
X058580Y003598D01*
X059041Y003778D01*
X059041Y003778D01*
X059534Y003815D01*
X059534Y003815D01*
X060016Y003705D01*
X060016Y003705D01*
X060445Y003458D01*
X060445Y003458D01*
X060782Y003095D01*
X060782Y003095D01*
X060900Y002849D01*
X060900Y024721D01*
X060782Y024475D01*
X060782Y024475D01*
X060445Y024112D01*
X060445Y024112D01*
X060016Y023865D01*
X060016Y023865D01*
X059534Y023755D01*
X059534Y023755D01*
X059041Y023792D01*
X059041Y023792D01*
X058580Y023972D01*
X058580Y023972D01*
X058193Y024281D01*
X058193Y024281D01*
X057914Y024690D01*
X057914Y024690D01*
X057769Y025163D01*
X057769Y025657D01*
X057914Y026130D01*
X057914Y026130D01*
X058193Y026539D01*
X058193Y026539D01*
X058193Y026539D01*
X058580Y026848D01*
X058714Y026900D01*
X026660Y026900D01*
X026660Y015837D01*
X026993Y015837D01*
X027075Y015755D01*
X027075Y014851D01*
X026993Y014769D01*
X026870Y014769D01*
X026870Y014748D01*
X026950Y014668D01*
X026950Y014252D01*
X026868Y014170D01*
X026660Y014170D01*
X026660Y014150D01*
X026868Y014150D01*
X026923Y014095D01*
X026998Y014170D01*
X027122Y014170D01*
X027202Y014250D01*
X027618Y014250D01*
X027700Y014168D01*
X027700Y014150D01*
X027870Y014150D01*
X027870Y014168D01*
X027952Y014250D01*
X028368Y014250D01*
X028450Y014168D01*
X028450Y014150D01*
X028620Y014150D01*
X028620Y014168D01*
X028702Y014250D01*
X029118Y014250D01*
X029200Y014168D01*
X029200Y014150D01*
X029370Y014150D01*
X029370Y014168D01*
X029452Y014250D01*
X029868Y014250D01*
X029950Y014168D01*
X029950Y013752D01*
X029868Y013670D01*
X029452Y013670D01*
X029370Y013752D01*
X029370Y013770D01*
X029200Y013770D01*
X029200Y013752D01*
X029118Y013670D01*
X028702Y013670D01*
X028620Y013752D01*
X028620Y013770D01*
X028450Y013770D01*
X028450Y013752D01*
X028368Y013670D01*
X027952Y013670D01*
X027870Y013752D01*
X027870Y013770D01*
X027700Y013770D01*
X027700Y013752D01*
X027618Y013670D01*
X027202Y013670D01*
X027147Y013725D01*
X027072Y013650D01*
X026948Y013650D01*
X026868Y013570D01*
X026660Y013570D01*
X026660Y013165D01*
X026955Y013165D01*
X026990Y013155D01*
X027022Y013137D01*
X027048Y013111D01*
X027067Y013079D01*
X027076Y013043D01*
X027054Y013101D02*
X027171Y013101D01*
X027174Y013098D02*
X027206Y013080D01*
X027242Y013070D01*
X027395Y013070D01*
X027395Y013345D01*
X027425Y013345D01*
X027425Y013375D01*
X027395Y013375D01*
X027395Y013650D01*
X027242Y013650D01*
X027206Y013640D01*
X027174Y013622D01*
X027148Y013596D01*
X027130Y013564D01*
X027120Y013528D01*
X027120Y013375D01*
X027395Y013375D01*
X027395Y013345D01*
X027120Y013345D01*
X027120Y013192D01*
X027130Y013156D01*
X027148Y013124D01*
X027174Y013098D01*
X027120Y013220D02*
X026660Y013220D01*
X026660Y013338D02*
X027120Y013338D01*
X027120Y013457D02*
X026660Y013457D01*
X026873Y013575D02*
X027136Y013575D01*
X027116Y013694D02*
X027178Y013694D01*
X027395Y013575D02*
X027425Y013575D01*
X027425Y013650D02*
X027425Y013375D01*
X027700Y013375D01*
X027700Y013528D01*
X027690Y013564D01*
X027672Y013596D01*
X027646Y013622D01*
X027614Y013640D01*
X027578Y013650D01*
X027425Y013650D01*
X027425Y013457D02*
X027395Y013457D01*
X027425Y013345D02*
X027700Y013345D01*
X027700Y013192D01*
X027690Y013156D01*
X027672Y013124D01*
X027646Y013098D01*
X027614Y013080D01*
X027578Y013070D01*
X027425Y013070D01*
X027425Y013345D01*
X027425Y013338D02*
X027395Y013338D01*
X027395Y013220D02*
X027425Y013220D01*
X027425Y013101D02*
X027395Y013101D01*
X027649Y013101D02*
X027921Y013101D01*
X027924Y013098D02*
X027956Y013080D01*
X027992Y013070D01*
X028145Y013070D01*
X028145Y013345D01*
X028175Y013345D01*
X028175Y013375D01*
X028145Y013375D01*
X028145Y013650D01*
X027992Y013650D01*
X027956Y013640D01*
X027924Y013622D01*
X027898Y013596D01*
X027880Y013564D01*
X027870Y013528D01*
X027870Y013375D01*
X028145Y013375D01*
X028145Y013345D01*
X027870Y013345D01*
X027870Y013192D01*
X027880Y013156D01*
X027898Y013124D01*
X027924Y013098D01*
X027870Y013220D02*
X027700Y013220D01*
X027700Y013338D02*
X027870Y013338D01*
X027870Y013457D02*
X027700Y013457D01*
X027684Y013575D02*
X027886Y013575D01*
X027928Y013694D02*
X027642Y013694D01*
X028145Y013575D02*
X028175Y013575D01*
X028175Y013650D02*
X028175Y013375D01*
X028450Y013375D01*
X028450Y013528D01*
X028440Y013564D01*
X028422Y013596D01*
X028396Y013622D01*
X028364Y013640D01*
X028328Y013650D01*
X028175Y013650D01*
X028175Y013457D02*
X028145Y013457D01*
X028175Y013345D02*
X028450Y013345D01*
X028450Y013192D01*
X028440Y013156D01*
X028422Y013124D01*
X028396Y013098D01*
X028364Y013080D01*
X028328Y013070D01*
X028175Y013070D01*
X028175Y013345D01*
X028175Y013338D02*
X028145Y013338D01*
X028145Y013220D02*
X028175Y013220D01*
X028175Y013101D02*
X028145Y013101D01*
X028399Y013101D02*
X028671Y013101D01*
X028620Y013220D02*
X028450Y013220D01*
X028450Y013338D02*
X028620Y013338D01*
X028620Y013457D02*
X028450Y013457D01*
X028434Y013575D02*
X028627Y013575D01*
X028678Y013694D02*
X028392Y013694D01*
X029142Y013694D02*
X029428Y013694D01*
X029377Y013575D02*
X029193Y013575D01*
X029149Y013101D02*
X029421Y013101D01*
X029899Y013101D02*
X030171Y013101D01*
X030127Y013575D02*
X029943Y013575D01*
X029892Y013694D02*
X030182Y013694D01*
X030174Y013698D02*
X030206Y013680D01*
X030242Y013670D01*
X030395Y013670D01*
X030395Y013945D01*
X030425Y013945D01*
X030425Y013975D01*
X030395Y013975D01*
X030395Y014250D01*
X030242Y014250D01*
X030206Y014240D01*
X030174Y014222D01*
X030148Y014196D01*
X030130Y014164D01*
X030120Y014128D01*
X030120Y013975D01*
X030395Y013975D01*
X030395Y013945D01*
X030120Y013945D01*
X030120Y013792D01*
X030130Y013756D01*
X030148Y013724D01*
X030174Y013698D01*
X030120Y013812D02*
X029950Y013812D01*
X029950Y013931D02*
X030120Y013931D01*
X030120Y014049D02*
X029950Y014049D01*
X029950Y014168D02*
X030132Y014168D01*
X030395Y014168D02*
X030425Y014168D01*
X030425Y014250D02*
X030425Y013975D01*
X030700Y013975D01*
X030700Y014128D01*
X030690Y014164D01*
X030672Y014196D01*
X030646Y014222D01*
X030614Y014240D01*
X030578Y014250D01*
X030425Y014250D01*
X030425Y014049D02*
X030395Y014049D01*
X030425Y013945D02*
X030700Y013945D01*
X030700Y013792D01*
X030690Y013756D01*
X030672Y013724D01*
X030646Y013698D01*
X030614Y013680D01*
X030578Y013670D01*
X030425Y013670D01*
X030425Y013945D01*
X030425Y013931D02*
X030395Y013931D01*
X030395Y013812D02*
X030425Y013812D01*
X030425Y013694D02*
X030395Y013694D01*
X030638Y013694D02*
X030854Y013694D01*
X030854Y013812D02*
X030700Y013812D01*
X030700Y013931D02*
X030854Y013931D01*
X030854Y014049D02*
X030700Y014049D01*
X030688Y014168D02*
X030854Y014168D01*
X030854Y014286D02*
X026950Y014286D01*
X026950Y014405D02*
X032758Y014405D01*
X032768Y014370D01*
X032786Y014338D01*
X032812Y014312D01*
X032844Y014293D01*
X032880Y014284D01*
X033037Y014284D01*
X033037Y014641D01*
X033074Y014641D01*
X033074Y014284D01*
X033232Y014284D01*
X033267Y014293D01*
X033299Y014312D01*
X033325Y014338D01*
X033344Y014370D01*
X033353Y014405D01*
X033353Y014641D01*
X033074Y014641D01*
X033074Y014679D01*
X033037Y014679D01*
X033037Y015036D01*
X032880Y015036D01*
X032844Y015027D01*
X032812Y015008D01*
X032786Y014982D01*
X032768Y014950D01*
X032758Y014915D01*
X032758Y014679D01*
X033037Y014679D01*
X033037Y014641D01*
X032758Y014641D01*
X032758Y014405D01*
X032758Y014523D02*
X026950Y014523D01*
X026950Y014642D02*
X033037Y014642D01*
X033074Y014642D02*
X033467Y014642D01*
X033467Y014760D02*
X033353Y014760D01*
X033353Y014679D02*
X033353Y014915D01*
X033344Y014950D01*
X033325Y014982D01*
X033299Y015008D01*
X033267Y015027D01*
X033232Y015036D01*
X033074Y015036D01*
X033074Y014679D01*
X033353Y014679D01*
X033353Y014523D02*
X033467Y014523D01*
X033467Y014405D02*
X033353Y014405D01*
X033240Y014286D02*
X033547Y014286D01*
X033585Y013931D02*
X034720Y013931D01*
X034739Y013812D02*
X033601Y013812D01*
X033601Y013694D02*
X034858Y013694D01*
X034925Y013575D02*
X033639Y013575D01*
X033757Y013457D02*
X034925Y013457D01*
X034823Y013428D02*
X034823Y013420D01*
X034823Y013428D01*
X034823Y013420D02*
X034823Y013420D01*
X034515Y013338D02*
X033876Y013338D01*
X033994Y013220D02*
X034487Y013220D01*
X034487Y013101D02*
X034113Y013101D01*
X034231Y012983D02*
X034487Y012983D01*
X034487Y012864D02*
X034350Y012864D01*
X034487Y012845D02*
X034823Y012845D01*
X034487Y012845D01*
X034823Y012845D02*
X034823Y012845D01*
X033931Y012746D02*
X033520Y012746D01*
X033008Y012746D02*
X032812Y012746D01*
X032853Y012627D02*
X032967Y012627D01*
X032967Y012509D02*
X032853Y012509D01*
X032853Y012390D02*
X032967Y012390D01*
X032967Y012272D02*
X032853Y012272D01*
X032853Y012153D02*
X032967Y012153D01*
X032377Y012035D02*
X031032Y012035D01*
X030881Y012153D02*
X030700Y012153D01*
X030854Y012272D02*
X027076Y012272D01*
X027148Y012196D02*
X027130Y012164D01*
X027120Y012128D01*
X027120Y011975D01*
X027395Y011975D01*
X027395Y012250D01*
X027242Y012250D01*
X027206Y012240D01*
X027174Y012222D01*
X027148Y012196D01*
X027127Y012153D02*
X027049Y012153D01*
X027120Y012035D02*
X026660Y012035D01*
X026660Y011916D02*
X027120Y011916D01*
X027120Y011945D02*
X027120Y011792D01*
X027130Y011756D01*
X027148Y011724D01*
X027174Y011698D01*
X027206Y011680D01*
X027242Y011670D01*
X027395Y011670D01*
X027395Y011945D01*
X027425Y011945D01*
X027425Y011975D01*
X027395Y011975D01*
X027395Y011945D01*
X027120Y011945D01*
X027120Y011798D02*
X026660Y011798D01*
X026939Y011679D02*
X027208Y011679D01*
X027395Y011679D02*
X027425Y011679D01*
X027425Y011670D02*
X027578Y011670D01*
X027614Y011680D01*
X027646Y011698D01*
X027672Y011724D01*
X027690Y011756D01*
X027700Y011792D01*
X027700Y011945D01*
X027425Y011945D01*
X027425Y011670D01*
X027425Y011798D02*
X027395Y011798D01*
X027395Y011916D02*
X027425Y011916D01*
X027425Y011975D02*
X027700Y011975D01*
X027700Y012128D01*
X027690Y012164D01*
X027672Y012196D01*
X027646Y012222D01*
X027614Y012240D01*
X027578Y012250D01*
X027425Y012250D01*
X027425Y011975D01*
X027425Y012035D02*
X027395Y012035D01*
X027395Y012153D02*
X027425Y012153D01*
X027693Y012153D02*
X027877Y012153D01*
X027880Y012164D02*
X027870Y012128D01*
X027870Y011975D01*
X028145Y011975D01*
X028145Y012250D01*
X027992Y012250D01*
X027956Y012240D01*
X027924Y012222D01*
X027898Y012196D01*
X027880Y012164D01*
X027870Y012035D02*
X027700Y012035D01*
X027700Y011916D02*
X027870Y011916D01*
X027870Y011945D02*
X027870Y011792D01*
X027880Y011756D01*
X027898Y011724D01*
X027924Y011698D01*
X027956Y011680D01*
X027992Y011670D01*
X028145Y011670D01*
X028145Y011945D01*
X028175Y011945D01*
X028175Y011975D01*
X028145Y011975D01*
X028145Y011945D01*
X027870Y011945D01*
X027870Y011798D02*
X027700Y011798D01*
X027612Y011679D02*
X027958Y011679D01*
X027870Y011561D02*
X027700Y011561D01*
X028145Y011679D02*
X028175Y011679D01*
X028175Y011670D02*
X028328Y011670D01*
X028364Y011680D01*
X028396Y011698D01*
X028422Y011724D01*
X028440Y011756D01*
X028450Y011792D01*
X028450Y011945D01*
X028175Y011945D01*
X028175Y011670D01*
X028175Y011798D02*
X028145Y011798D01*
X028145Y011916D02*
X028175Y011916D01*
X028175Y011975D02*
X028450Y011975D01*
X028450Y012128D01*
X028440Y012164D01*
X028422Y012196D01*
X028396Y012222D01*
X028364Y012240D01*
X028328Y012250D01*
X028175Y012250D01*
X028175Y011975D01*
X028175Y012035D02*
X028145Y012035D01*
X028145Y012153D02*
X028175Y012153D01*
X028443Y012153D02*
X028620Y012153D01*
X028620Y012035D02*
X028450Y012035D01*
X028450Y011916D02*
X028620Y011916D01*
X028620Y011798D02*
X028450Y011798D01*
X028362Y011679D02*
X028693Y011679D01*
X028620Y011561D02*
X028450Y011561D01*
X028385Y011087D02*
X028685Y011087D01*
X029135Y011087D02*
X029435Y011087D01*
X029885Y011087D02*
X030194Y011087D01*
X030206Y011080D02*
X030242Y011070D01*
X030395Y011070D01*
X030395Y011345D01*
X030425Y011345D01*
X030425Y011375D01*
X030395Y011375D01*
X030395Y011650D01*
X030242Y011650D01*
X030206Y011640D01*
X030174Y011622D01*
X030148Y011596D01*
X030130Y011564D01*
X030120Y011528D01*
X030120Y011375D01*
X030395Y011375D01*
X030395Y011345D01*
X030120Y011345D01*
X030120Y011192D01*
X030130Y011156D01*
X030148Y011124D01*
X030174Y011098D01*
X030206Y011080D01*
X030120Y011205D02*
X029950Y011205D01*
X029950Y011324D02*
X030120Y011324D01*
X030120Y011442D02*
X029950Y011442D01*
X029950Y011561D02*
X030129Y011561D01*
X030193Y011679D02*
X029877Y011679D01*
X029443Y011679D02*
X029127Y011679D01*
X029200Y011561D02*
X029370Y011561D01*
X029370Y012153D02*
X029200Y012153D01*
X029950Y012153D02*
X030120Y012153D01*
X030425Y011650D02*
X030425Y011375D01*
X030700Y011375D01*
X030700Y011528D01*
X030690Y011564D01*
X030672Y011596D01*
X030646Y011622D01*
X030614Y011640D01*
X030578Y011650D01*
X030425Y011650D01*
X030425Y011561D02*
X030395Y011561D01*
X030395Y011442D02*
X030425Y011442D01*
X030425Y011345D02*
X030700Y011345D01*
X030700Y011192D01*
X030690Y011156D01*
X030672Y011124D01*
X030646Y011098D01*
X030614Y011080D01*
X030578Y011070D01*
X030425Y011070D01*
X030425Y011345D01*
X030425Y011324D02*
X030395Y011324D01*
X030395Y011205D02*
X030425Y011205D01*
X030425Y011087D02*
X030395Y011087D01*
X030626Y011087D02*
X030854Y011087D01*
X030854Y011205D02*
X030700Y011205D01*
X030700Y011324D02*
X030854Y011324D01*
X030854Y011442D02*
X030700Y011442D01*
X030691Y011561D02*
X030854Y011561D01*
X030850Y011679D02*
X030627Y011679D01*
X030854Y010968D02*
X026950Y010968D01*
X026950Y010850D02*
X031198Y010850D01*
X031198Y010731D02*
X026950Y010731D01*
X026911Y010613D02*
X031198Y010613D01*
X030854Y010494D02*
X026853Y010494D01*
X027075Y010376D02*
X030854Y010376D01*
X030854Y010257D02*
X027075Y010257D01*
X027075Y010139D02*
X030854Y010139D01*
X030854Y010020D02*
X027075Y010020D01*
X027075Y009902D02*
X030854Y009902D01*
X030854Y009783D02*
X027075Y009783D01*
X027075Y009665D02*
X030854Y009665D01*
X030917Y009546D02*
X027075Y009546D01*
X026994Y009428D02*
X031820Y009428D01*
X031820Y009309D02*
X026660Y009309D01*
X026660Y009191D02*
X031831Y009191D01*
X032167Y009072D02*
X026660Y009072D01*
X026660Y008954D02*
X032285Y008954D01*
X033000Y009309D02*
X033340Y009309D01*
X033459Y009428D02*
X033000Y009428D01*
X033000Y009546D02*
X033577Y009546D01*
X033620Y009665D02*
X032996Y009665D01*
X033114Y009783D02*
X033620Y009783D01*
X032467Y009665D02*
X032353Y009665D01*
X032400Y009546D02*
X032420Y009546D01*
X032420Y009428D02*
X032400Y009428D01*
X034481Y010850D02*
X035050Y010850D01*
X035042Y010852D02*
X035090Y010839D01*
X035115Y010839D01*
X035115Y011176D01*
X035115Y011176D01*
X035115Y011176D01*
X034926Y011176D01*
X034926Y011003D01*
X034938Y010955D01*
X034963Y010912D01*
X034999Y010877D01*
X035042Y010852D01*
X035115Y010850D02*
X035115Y010850D01*
X035179Y010850D02*
X035223Y010850D01*
X035115Y010968D02*
X035115Y010968D01*
X035115Y011087D02*
X035115Y011087D01*
X034926Y011087D02*
X034718Y011087D01*
X034836Y011205D02*
X034926Y011205D01*
X034935Y010968D02*
X034599Y010968D01*
X035401Y010850D02*
X035419Y010850D01*
X036099Y010968D02*
X036099Y010968D01*
X036099Y011087D02*
X036099Y011087D01*
X036296Y011087D02*
X036296Y011087D01*
X036296Y010968D02*
X036296Y010968D01*
X036779Y010850D02*
X036797Y010850D01*
X037953Y012035D02*
X060900Y012035D01*
X060900Y012153D02*
X037979Y012153D01*
X037959Y012272D02*
X060900Y012272D01*
X060900Y012390D02*
X037881Y012390D01*
X037777Y012509D02*
X059231Y012509D01*
X059227Y012523D02*
X059236Y012488D01*
X059255Y012456D01*
X059281Y012430D01*
X059313Y012411D01*
X059348Y012402D01*
X059681Y012402D01*
X059681Y012757D01*
X059801Y012757D01*
X059801Y012402D01*
X060133Y012402D01*
X060169Y012411D01*
X060201Y012430D01*
X060227Y012456D01*
X060245Y012488D01*
X060255Y012523D01*
X060255Y012757D01*
X059801Y012757D01*
X059801Y012877D01*
X060255Y012877D01*
X060255Y013112D01*
X060245Y013147D01*
X060227Y013179D01*
X060201Y013205D01*
X060169Y013224D01*
X060133Y013233D01*
X059801Y013233D01*
X059801Y012877D01*
X059681Y012877D01*
X059681Y012757D01*
X059227Y012757D01*
X059227Y012523D01*
X059227Y012627D02*
X037896Y012627D01*
X038014Y012746D02*
X059227Y012746D01*
X059227Y012877D02*
X059227Y013112D01*
X059236Y013147D01*
X059255Y013179D01*
X059281Y013205D01*
X059313Y013224D01*
X059348Y013233D01*
X059681Y013233D01*
X059681Y012877D01*
X059227Y012877D01*
X059227Y012983D02*
X059034Y012983D01*
X059034Y012976D02*
X059034Y013368D01*
X059014Y013388D01*
X059034Y013409D01*
X059034Y013760D01*
X059070Y013760D01*
X059106Y013770D01*
X059138Y013788D01*
X059164Y013814D01*
X059182Y013846D01*
X059192Y013882D01*
X059192Y014029D01*
X058765Y014029D01*
X058765Y014047D01*
X059192Y014047D01*
X059192Y014194D01*
X059182Y014230D01*
X059164Y014262D01*
X059138Y014288D01*
X059106Y014306D01*
X059070Y014316D01*
X059034Y014316D01*
X059034Y014626D01*
X059110Y014626D01*
X059192Y014708D01*
X059192Y015100D01*
X059110Y015182D01*
X059034Y015182D01*
X059034Y015533D01*
X058952Y015615D01*
X058877Y015615D01*
X058877Y015926D01*
X058952Y015926D01*
X059034Y016008D01*
X059034Y016399D01*
X058952Y016481D01*
X058246Y016481D01*
X058164Y016399D01*
X058164Y016048D01*
X058088Y016048D01*
X058006Y015966D01*
X058006Y015574D01*
X058088Y015492D01*
X058164Y015492D01*
X058164Y015141D01*
X058246Y015059D01*
X058321Y015059D01*
X058321Y014749D01*
X058246Y014749D01*
X058164Y014667D01*
X058164Y014275D01*
X058246Y014193D01*
X058321Y014193D01*
X058321Y014047D01*
X058748Y014047D01*
X058748Y014029D01*
X058321Y014029D01*
X058321Y013883D01*
X058246Y013883D01*
X058164Y013801D01*
X058164Y013409D01*
X058184Y013388D01*
X058164Y013368D01*
X058164Y012976D01*
X058246Y012894D01*
X058952Y012894D01*
X059034Y012976D01*
X059034Y013101D02*
X059227Y013101D01*
X059306Y013220D02*
X059034Y013220D01*
X059034Y013338D02*
X060900Y013338D01*
X060900Y013220D02*
X060176Y013220D01*
X060255Y013101D02*
X060900Y013101D01*
X060900Y012983D02*
X060255Y012983D01*
X060255Y012746D02*
X060900Y012746D01*
X060900Y012864D02*
X059801Y012864D01*
X059801Y012746D02*
X059681Y012746D01*
X059681Y012864D02*
X038100Y012864D01*
X038100Y012983D02*
X054220Y012983D01*
X054250Y012953D02*
X054917Y012953D01*
X054999Y013035D01*
X054999Y013860D01*
X054917Y013942D01*
X054250Y013942D01*
X054168Y013860D01*
X054168Y013035D01*
X054250Y012953D01*
X054168Y013101D02*
X038100Y013101D01*
X038100Y013220D02*
X054168Y013220D01*
X054168Y013338D02*
X038100Y013338D01*
X038100Y013457D02*
X054168Y013457D01*
X054168Y013575D02*
X038100Y013575D01*
X038100Y013694D02*
X054168Y013694D01*
X054168Y013812D02*
X038100Y013812D01*
X038100Y013931D02*
X046808Y013931D01*
X046808Y013912D02*
X046890Y013830D01*
X049430Y013830D01*
X049512Y013912D01*
X049512Y014528D01*
X049430Y014610D01*
X047205Y014610D01*
X046890Y014610D01*
X046808Y014528D01*
X046808Y013912D01*
X046808Y014049D02*
X038100Y014049D01*
X038100Y014168D02*
X046808Y014168D01*
X046808Y014286D02*
X038100Y014286D01*
X038100Y014405D02*
X046808Y014405D01*
X046808Y014523D02*
X038100Y014523D01*
X038100Y014642D02*
X046080Y014642D01*
X046080Y014640D02*
X046162Y014558D01*
X046778Y014558D01*
X046860Y014640D01*
X046860Y015606D01*
X046856Y015609D01*
X046860Y015624D01*
X046860Y015753D01*
X046860Y015881D01*
X046856Y015896D01*
X046860Y015899D01*
X046860Y016235D01*
X046856Y016239D01*
X046860Y016254D01*
X046860Y016382D01*
X046470Y016382D01*
X046080Y016382D01*
X046080Y016254D01*
X046084Y016239D01*
X046080Y016235D01*
X046080Y015899D01*
X046084Y015896D01*
X046080Y015881D01*
X046080Y015753D01*
X046470Y015753D01*
X046470Y015753D01*
X046860Y015753D01*
X046470Y015753D01*
X046470Y015753D01*
X046080Y015753D01*
X046080Y015624D01*
X046084Y015609D01*
X046080Y015606D01*
X046080Y014640D01*
X046080Y014760D02*
X038100Y014760D01*
X038100Y014879D02*
X046080Y014879D01*
X046080Y014997D02*
X038100Y014997D01*
X038100Y015116D02*
X046080Y015116D01*
X046080Y015234D02*
X038100Y015234D01*
X038100Y015353D02*
X046080Y015353D01*
X046080Y015471D02*
X038172Y015471D01*
X038226Y015590D02*
X046080Y015590D01*
X046080Y015708D02*
X038229Y015708D01*
X038186Y015827D02*
X046080Y015827D01*
X046080Y015945D02*
X038055Y015945D01*
X037765Y015945D02*
X037600Y015945D01*
X037600Y015827D02*
X037634Y015827D01*
X037600Y016064D02*
X046080Y016064D01*
X046080Y016182D02*
X037701Y016182D01*
X037819Y016301D02*
X046080Y016301D01*
X046080Y016382D02*
X046470Y016382D01*
X046470Y016382D01*
X046470Y016382D01*
X046860Y016382D01*
X046860Y016511D01*
X046856Y016525D01*
X046860Y016529D01*
X046860Y017180D01*
X046778Y017262D01*
X046162Y017262D01*
X046080Y017180D01*
X046080Y016529D01*
X046084Y016525D01*
X046080Y016511D01*
X046080Y016382D01*
X046080Y016419D02*
X038120Y016419D01*
X038204Y016538D02*
X046080Y016538D01*
X046080Y016656D02*
X038229Y016656D01*
X038208Y016775D02*
X046080Y016775D01*
X046080Y016893D02*
X038128Y016893D01*
X037692Y016893D02*
X037100Y016893D01*
X037100Y016775D02*
X037612Y016775D01*
X037591Y016656D02*
X037100Y016656D01*
X037056Y016538D02*
X037519Y016538D01*
X037400Y016419D02*
X036938Y016419D01*
X036819Y016301D02*
X037282Y016301D01*
X037220Y016182D02*
X036701Y016182D01*
X036818Y016064D02*
X037220Y016064D01*
X037220Y015945D02*
X036936Y015945D01*
X037009Y015827D02*
X037220Y015827D01*
X037220Y015708D02*
X037009Y015708D01*
X036554Y015705D02*
X036467Y015705D01*
X036385Y015623D01*
X036385Y014717D01*
X036467Y014635D01*
X037173Y014635D01*
X037220Y014682D01*
X037220Y013831D01*
X037470Y013581D01*
X037470Y013362D01*
X037404Y013428D01*
X037076Y013428D01*
X037076Y013756D01*
X036965Y013867D01*
X036808Y013867D01*
X036788Y013847D01*
X036768Y013867D01*
X036611Y013867D01*
X036591Y013847D01*
X036571Y013867D01*
X036414Y013867D01*
X036394Y013847D01*
X036374Y013867D01*
X036217Y013867D01*
X036197Y013847D01*
X036177Y013867D01*
X036035Y013867D01*
X036091Y013890D01*
X036180Y013979D01*
X036229Y014097D01*
X036229Y014223D01*
X036180Y014341D01*
X036091Y014430D01*
X035973Y014479D01*
X035847Y014479D01*
X035729Y014430D01*
X035640Y014341D01*
X035591Y014223D01*
X035591Y014110D01*
X035515Y014034D01*
X035515Y013867D01*
X035430Y013867D01*
X035410Y013847D01*
X035390Y013867D01*
X035233Y013867D01*
X035227Y013861D01*
X035100Y013989D01*
X035100Y014024D01*
X035180Y014104D01*
X035229Y014222D01*
X035229Y014348D01*
X035180Y014466D01*
X035091Y014555D01*
X034973Y014604D01*
X034847Y014604D01*
X034729Y014555D01*
X034649Y014475D01*
X034614Y014475D01*
X034239Y014850D01*
X034062Y014850D01*
X034062Y014954D01*
X033980Y015036D01*
X033954Y015036D01*
X033954Y015061D01*
X034614Y015720D01*
X035581Y015720D01*
X035596Y015705D01*
X035567Y015705D01*
X035485Y015623D01*
X035485Y014717D01*
X035567Y014635D01*
X036273Y014635D01*
X036355Y014717D01*
X036355Y015623D01*
X036273Y015705D01*
X036110Y015705D01*
X036110Y015729D01*
X035869Y015970D01*
X036289Y015970D01*
X036554Y015705D01*
X036551Y015708D02*
X036110Y015708D01*
X036012Y015827D02*
X036432Y015827D01*
X036314Y015945D02*
X035894Y015945D01*
X035593Y015708D02*
X034602Y015708D01*
X034639Y015677D02*
X034613Y015651D01*
X034595Y015619D01*
X034585Y015583D01*
X034585Y015230D01*
X034960Y015230D01*
X034960Y015705D01*
X034707Y015705D01*
X034671Y015695D01*
X034639Y015677D01*
X034587Y015590D02*
X034483Y015590D01*
X034585Y015471D02*
X034365Y015471D01*
X034246Y015353D02*
X034585Y015353D01*
X034585Y015234D02*
X034128Y015234D01*
X034009Y015116D02*
X034960Y015116D01*
X034960Y015110D02*
X034585Y015110D01*
X034585Y014757D01*
X034595Y014721D01*
X034613Y014689D01*
X034639Y014663D01*
X034671Y014645D01*
X034707Y014635D01*
X034960Y014635D01*
X034960Y015110D01*
X035080Y015110D01*
X035080Y015230D01*
X035455Y015230D01*
X035455Y015583D01*
X035445Y015619D01*
X035427Y015651D01*
X035401Y015677D01*
X035369Y015695D01*
X035333Y015705D01*
X035080Y015705D01*
X035080Y015230D01*
X034960Y015230D01*
X034960Y015110D01*
X034960Y014997D02*
X035080Y014997D01*
X035080Y015110D02*
X035080Y014635D01*
X035333Y014635D01*
X035369Y014645D01*
X035401Y014663D01*
X035427Y014689D01*
X035445Y014721D01*
X035455Y014757D01*
X035455Y015110D01*
X035080Y015110D01*
X035080Y015116D02*
X035485Y015116D01*
X035485Y015234D02*
X035455Y015234D01*
X035455Y015353D02*
X035485Y015353D01*
X035485Y015471D02*
X035455Y015471D01*
X035453Y015590D02*
X035485Y015590D01*
X035080Y015590D02*
X034960Y015590D01*
X034960Y015471D02*
X035080Y015471D01*
X035080Y015353D02*
X034960Y015353D01*
X034960Y015234D02*
X035080Y015234D01*
X035080Y014879D02*
X034960Y014879D01*
X034960Y014760D02*
X035080Y014760D01*
X035080Y014642D02*
X034960Y014642D01*
X035123Y014523D02*
X037220Y014523D01*
X037220Y014405D02*
X036116Y014405D01*
X036203Y014286D02*
X037220Y014286D01*
X037220Y014168D02*
X036229Y014168D01*
X036209Y014049D02*
X037220Y014049D01*
X037220Y013931D02*
X036131Y013931D01*
X035591Y014168D02*
X035206Y014168D01*
X035229Y014286D02*
X035617Y014286D01*
X035704Y014405D02*
X035205Y014405D01*
X035358Y014642D02*
X035560Y014642D01*
X035485Y014760D02*
X035455Y014760D01*
X035455Y014879D02*
X035485Y014879D01*
X035485Y014997D02*
X035455Y014997D01*
X034682Y014642D02*
X034447Y014642D01*
X034329Y014760D02*
X034585Y014760D01*
X034585Y014879D02*
X034062Y014879D01*
X034019Y014997D02*
X034585Y014997D01*
X034566Y014523D02*
X034697Y014523D01*
X034384Y014168D02*
X031922Y014168D01*
X031922Y014286D02*
X032871Y014286D01*
X033037Y014286D02*
X033074Y014286D01*
X033074Y014405D02*
X033037Y014405D01*
X033037Y014523D02*
X033074Y014523D01*
X033074Y014760D02*
X033037Y014760D01*
X033037Y014879D02*
X033074Y014879D01*
X033074Y014997D02*
X033037Y014997D01*
X032801Y014997D02*
X027075Y014997D01*
X027075Y014879D02*
X032758Y014879D01*
X032758Y014760D02*
X026870Y014760D01*
X027075Y015116D02*
X033574Y015116D01*
X033590Y015234D02*
X027075Y015234D01*
X027075Y015353D02*
X027868Y015353D01*
X027845Y015376D02*
X027927Y015294D01*
X029893Y015294D01*
X029975Y015376D01*
X029975Y015687D01*
X030181Y015688D01*
X030229Y015640D01*
X030347Y015591D01*
X030473Y015591D01*
X030591Y015640D01*
X030641Y015690D01*
X030904Y015690D01*
X030904Y015321D01*
X030986Y015239D01*
X031732Y015239D01*
X031814Y015321D01*
X031814Y016499D01*
X031732Y016581D01*
X030986Y016581D01*
X030904Y016499D01*
X030904Y016130D01*
X030641Y016130D01*
X030591Y016180D01*
X030473Y016229D01*
X030347Y016229D01*
X030229Y016180D01*
X030177Y016128D01*
X029975Y016127D01*
X029975Y016181D01*
X029893Y016263D01*
X027927Y016263D01*
X027845Y016181D01*
X027845Y015376D01*
X027845Y015471D02*
X027075Y015471D01*
X027075Y015590D02*
X027845Y015590D01*
X027845Y015708D02*
X027075Y015708D01*
X027003Y015827D02*
X027845Y015827D01*
X027845Y015945D02*
X026660Y015945D01*
X026660Y016064D02*
X027845Y016064D01*
X027846Y016182D02*
X026660Y016182D01*
X026660Y016301D02*
X030904Y016301D01*
X030904Y016419D02*
X026660Y016419D01*
X026660Y016538D02*
X030942Y016538D01*
X030904Y016182D02*
X030586Y016182D01*
X030234Y016182D02*
X029974Y016182D01*
X029975Y015590D02*
X030904Y015590D01*
X030904Y015471D02*
X029975Y015471D01*
X029952Y015353D02*
X030904Y015353D01*
X031814Y015353D02*
X032008Y015353D01*
X032006Y015360D02*
X032016Y015324D01*
X032034Y015293D01*
X032060Y015266D01*
X032092Y015248D01*
X032128Y015239D01*
X032401Y015239D01*
X032401Y015850D01*
X032006Y015850D01*
X032006Y015360D01*
X032006Y015471D02*
X031814Y015471D01*
X031814Y015590D02*
X032006Y015590D01*
X032006Y015708D02*
X031814Y015708D01*
X031814Y015827D02*
X032006Y015827D01*
X032006Y015970D02*
X032401Y015970D01*
X032401Y015850D01*
X032521Y015850D01*
X032521Y015239D01*
X032795Y015239D01*
X032830Y015248D01*
X032862Y015266D01*
X032888Y015293D01*
X032907Y015324D01*
X032916Y015360D01*
X032916Y015850D01*
X032521Y015850D01*
X032521Y015970D01*
X032401Y015970D01*
X032401Y016581D01*
X032128Y016581D01*
X032092Y016572D01*
X032060Y016554D01*
X032034Y016527D01*
X032016Y016496D01*
X032006Y016460D01*
X032006Y015970D01*
X032006Y016064D02*
X031814Y016064D01*
X031814Y016182D02*
X032006Y016182D01*
X032006Y016301D02*
X031814Y016301D01*
X031814Y016419D02*
X032006Y016419D01*
X032044Y016538D02*
X031776Y016538D01*
X031814Y015945D02*
X032401Y015945D01*
X032401Y015827D02*
X032521Y015827D01*
X032521Y015945D02*
X033091Y015945D01*
X033100Y015827D02*
X032916Y015827D01*
X032916Y015708D02*
X033161Y015708D01*
X032916Y015590D02*
X033946Y015590D01*
X034064Y015708D02*
X033659Y015708D01*
X033827Y015471D02*
X032916Y015471D01*
X032914Y015353D02*
X033709Y015353D01*
X033510Y014997D02*
X033310Y014997D01*
X033353Y014879D02*
X033467Y014879D01*
X034062Y014405D02*
X034147Y014405D01*
X034265Y014286D02*
X033982Y014286D01*
X034695Y014049D02*
X031922Y014049D01*
X031922Y013931D02*
X032235Y013931D01*
X032219Y013457D02*
X031922Y013457D01*
X031858Y013338D02*
X032286Y013338D01*
X032865Y013338D02*
X032955Y013338D01*
X032258Y012627D02*
X031448Y012627D01*
X031448Y012509D02*
X031328Y012509D01*
X031328Y012627D02*
X026660Y012627D01*
X027076Y012509D02*
X030854Y012509D01*
X030854Y012390D02*
X027076Y012390D01*
X027076Y012746D02*
X030854Y012746D01*
X030854Y012864D02*
X027076Y012864D01*
X026996Y014168D02*
X026660Y014168D01*
X027700Y014168D02*
X027870Y014168D01*
X028450Y014168D02*
X028620Y014168D01*
X029200Y014168D02*
X029370Y014168D01*
X030693Y013575D02*
X030834Y013575D01*
X031328Y013101D02*
X031448Y013101D01*
X031448Y012983D02*
X031328Y012983D01*
X031328Y012864D02*
X031448Y012864D01*
X031448Y012746D02*
X031328Y012746D01*
X031328Y012390D02*
X031448Y012390D01*
X031448Y012272D02*
X031328Y012272D01*
X031328Y012153D02*
X031448Y012153D01*
X031895Y012153D02*
X032259Y012153D01*
X032258Y012272D02*
X031922Y012272D01*
X031922Y012390D02*
X032258Y012390D01*
X032258Y012509D02*
X031922Y012509D01*
X035158Y013931D02*
X035515Y013931D01*
X035530Y014049D02*
X035125Y014049D01*
X036280Y014642D02*
X036460Y014642D01*
X036385Y014760D02*
X036355Y014760D01*
X036355Y014879D02*
X036385Y014879D01*
X036385Y014997D02*
X036355Y014997D01*
X036355Y015116D02*
X036385Y015116D01*
X036385Y015234D02*
X036355Y015234D01*
X036355Y015353D02*
X036385Y015353D01*
X036385Y015471D02*
X036355Y015471D01*
X036355Y015590D02*
X036385Y015590D01*
X036400Y016419D02*
X032916Y016419D01*
X032916Y016460D02*
X032907Y016496D01*
X032888Y016527D01*
X032862Y016554D01*
X032830Y016572D01*
X032795Y016581D01*
X032521Y016581D01*
X032521Y015970D01*
X032916Y015970D01*
X032916Y016460D01*
X032878Y016538D02*
X036519Y016538D01*
X036637Y016656D02*
X026660Y016656D01*
X026660Y016775D02*
X036720Y016775D01*
X036720Y016893D02*
X035059Y016893D01*
X035062Y017012D02*
X036720Y017012D01*
X037100Y017012D02*
X046080Y017012D01*
X046080Y017130D02*
X037100Y017130D01*
X037100Y017249D02*
X046148Y017249D01*
X046792Y017249D02*
X046851Y017249D01*
X046890Y017210D02*
X049430Y017210D01*
X049512Y017292D01*
X049512Y017908D01*
X049430Y017990D01*
X046890Y017990D01*
X046808Y017908D01*
X046808Y017292D01*
X046890Y017210D01*
X046860Y017130D02*
X049460Y017130D01*
X049460Y017180D02*
X049460Y016214D01*
X049464Y016211D01*
X049460Y016196D01*
X049460Y016067D01*
X049460Y015939D01*
X049464Y015924D01*
X049460Y015921D01*
X049460Y014640D01*
X049542Y014558D01*
X050158Y014558D01*
X050240Y014640D01*
X050240Y015921D01*
X050236Y015924D01*
X050240Y015939D01*
X050240Y016067D01*
X049850Y016067D01*
X049850Y016067D01*
X049460Y016067D01*
X049850Y016067D01*
X049850Y016067D01*
X050240Y016067D01*
X050240Y016196D01*
X050236Y016211D01*
X050240Y016214D01*
X050240Y017180D01*
X050158Y017262D01*
X049542Y017262D01*
X049460Y017180D01*
X049469Y017249D02*
X049528Y017249D01*
X049512Y017367D02*
X060900Y017367D01*
X060900Y017249D02*
X050172Y017249D01*
X050240Y017130D02*
X060900Y017130D01*
X060900Y017012D02*
X050240Y017012D01*
X050240Y016893D02*
X060900Y016893D01*
X060900Y016775D02*
X050240Y016775D01*
X050240Y016656D02*
X060900Y016656D01*
X060900Y016538D02*
X050240Y016538D01*
X050240Y016419D02*
X058184Y016419D01*
X058164Y016301D02*
X054920Y016301D01*
X054917Y016304D02*
X054250Y016304D01*
X054168Y016222D01*
X054168Y015397D01*
X054250Y015315D01*
X054917Y015315D01*
X054999Y015397D01*
X054999Y016222D01*
X054917Y016304D01*
X054999Y016182D02*
X058164Y016182D01*
X058164Y016064D02*
X054999Y016064D01*
X054999Y015945D02*
X058006Y015945D01*
X058006Y015827D02*
X054999Y015827D01*
X054999Y015708D02*
X058006Y015708D01*
X058006Y015590D02*
X054999Y015590D01*
X054999Y015471D02*
X058164Y015471D01*
X058164Y015353D02*
X054954Y015353D01*
X054212Y015353D02*
X050240Y015353D01*
X050240Y015471D02*
X054168Y015471D01*
X054168Y015590D02*
X050240Y015590D01*
X050240Y015708D02*
X054168Y015708D01*
X054168Y015827D02*
X050240Y015827D01*
X050240Y015945D02*
X054168Y015945D01*
X054168Y016064D02*
X050240Y016064D01*
X050240Y016182D02*
X054168Y016182D01*
X054246Y016301D02*
X050240Y016301D01*
X049460Y016301D02*
X046860Y016301D01*
X046860Y016419D02*
X049460Y016419D01*
X049460Y016538D02*
X046860Y016538D01*
X046860Y016656D02*
X049460Y016656D01*
X049460Y016775D02*
X046860Y016775D01*
X046860Y016893D02*
X049460Y016893D01*
X049460Y017012D02*
X046860Y017012D01*
X046808Y017367D02*
X038036Y017367D01*
X038091Y017390D02*
X038180Y017479D01*
X038229Y017597D01*
X038229Y017723D01*
X038180Y017841D01*
X046808Y017841D01*
X046808Y017723D02*
X038229Y017723D01*
X038229Y017604D02*
X046808Y017604D01*
X046808Y017486D02*
X038183Y017486D01*
X038091Y017390D02*
X037973Y017341D01*
X037847Y017341D01*
X037729Y017390D01*
X037640Y017479D01*
X037591Y017597D01*
X037591Y017723D01*
X037640Y017841D01*
X037100Y017841D01*
X037100Y017723D02*
X037591Y017723D01*
X037591Y017604D02*
X037100Y017604D01*
X037100Y017486D02*
X037637Y017486D01*
X037784Y017367D02*
X037100Y017367D01*
X037100Y017960D02*
X037690Y017960D01*
X037690Y017891D02*
X037640Y017841D01*
X037690Y017891D02*
X037690Y021069D01*
X035069Y023690D01*
X034238Y023690D01*
X034168Y023620D01*
X033752Y023620D01*
X033670Y023702D01*
X033670Y024118D01*
X033752Y024200D01*
X034168Y024200D01*
X034238Y024130D01*
X035251Y024130D01*
X038001Y021380D01*
X038130Y021251D01*
X038130Y017891D01*
X038180Y017841D01*
X038130Y017960D02*
X046859Y017960D01*
X049461Y017960D02*
X060035Y017960D01*
X060035Y017954D02*
X059581Y017954D01*
X059581Y017720D01*
X059591Y017685D01*
X059609Y017653D01*
X059635Y017627D01*
X059667Y017608D01*
X059703Y017599D01*
X060035Y017599D01*
X060035Y017954D01*
X060155Y017954D01*
X060155Y017599D01*
X060487Y017599D01*
X060523Y017608D01*
X060555Y017627D01*
X060581Y017653D01*
X060600Y017685D01*
X060609Y017720D01*
X060609Y017954D01*
X060155Y017954D01*
X060155Y018074D01*
X060609Y018074D01*
X060609Y018308D01*
X060600Y018344D01*
X060581Y018376D01*
X060555Y018402D01*
X060523Y018420D01*
X060487Y018430D01*
X060155Y018430D01*
X060155Y018074D01*
X060035Y018074D01*
X060035Y017954D01*
X060035Y017841D02*
X060155Y017841D01*
X060155Y017723D02*
X060035Y017723D01*
X060035Y017604D02*
X060155Y017604D01*
X060507Y017604D02*
X060900Y017604D01*
X060900Y017486D02*
X049512Y017486D01*
X049512Y017604D02*
X059683Y017604D01*
X059581Y017723D02*
X049512Y017723D01*
X049512Y017841D02*
X059581Y017841D01*
X059581Y018074D02*
X059581Y018308D01*
X059591Y018344D01*
X059609Y018376D01*
X059635Y018402D01*
X059667Y018420D01*
X059703Y018430D01*
X060035Y018430D01*
X060035Y018074D01*
X059581Y018074D01*
X059581Y018078D02*
X038130Y018078D01*
X038130Y018197D02*
X059581Y018197D01*
X059583Y018315D02*
X038130Y018315D01*
X038130Y018434D02*
X060900Y018434D01*
X060900Y018552D02*
X038130Y018552D01*
X038130Y018671D02*
X060900Y018671D01*
X060900Y018789D02*
X038130Y018789D01*
X038130Y018908D02*
X060900Y018908D01*
X060900Y019026D02*
X038130Y019026D01*
X038130Y019145D02*
X060900Y019145D01*
X060900Y019263D02*
X038130Y019263D01*
X038130Y019382D02*
X060900Y019382D01*
X060900Y019500D02*
X038130Y019500D01*
X038130Y019619D02*
X060900Y019619D01*
X060900Y019737D02*
X057480Y019737D01*
X057452Y019733D02*
X057535Y019746D01*
X057615Y019772D01*
X057690Y019810D01*
X057758Y019859D01*
X057817Y019919D01*
X057866Y019987D01*
X057905Y020061D01*
X057931Y020141D01*
X057944Y020224D01*
X057944Y020622D01*
X057448Y020622D01*
X057448Y020698D01*
X057944Y020698D01*
X057944Y021096D01*
X057931Y021179D01*
X057905Y021259D01*
X057866Y021333D01*
X057817Y021401D01*
X057758Y021461D01*
X057690Y021510D01*
X057615Y021548D01*
X057535Y021574D01*
X057452Y021587D01*
X057448Y021587D01*
X057448Y020698D01*
X057372Y020698D01*
X057372Y020622D01*
X057448Y020622D01*
X057448Y019733D01*
X057452Y019733D01*
X057448Y019737D02*
X057372Y019737D01*
X057372Y019733D02*
X057372Y020622D01*
X056876Y020622D01*
X056876Y020224D01*
X056889Y020141D01*
X056915Y020061D01*
X056954Y019987D01*
X057003Y019919D01*
X057062Y019859D01*
X057130Y019810D01*
X057205Y019772D01*
X057285Y019746D01*
X057368Y019733D01*
X057372Y019733D01*
X057340Y019737D02*
X055127Y019737D01*
X055116Y019733D02*
X055312Y019814D01*
X055462Y019964D01*
X055544Y020160D01*
X055544Y021160D01*
X055462Y021356D01*
X055312Y021506D01*
X055116Y021587D01*
X054904Y021587D01*
X054708Y021506D01*
X054558Y021356D01*
X054476Y021160D01*
X054476Y020160D01*
X054558Y019964D01*
X054708Y019814D01*
X054904Y019733D01*
X055116Y019733D01*
X054893Y019737D02*
X038130Y019737D01*
X038130Y019856D02*
X054666Y019856D01*
X054553Y019974D02*
X038130Y019974D01*
X038130Y020093D02*
X054504Y020093D01*
X054476Y020211D02*
X038130Y020211D01*
X038130Y020330D02*
X054476Y020330D01*
X054476Y020448D02*
X038130Y020448D01*
X038130Y020567D02*
X054476Y020567D01*
X054476Y020685D02*
X038130Y020685D01*
X038130Y020804D02*
X054476Y020804D01*
X054476Y020922D02*
X038130Y020922D01*
X038130Y021041D02*
X054476Y021041D01*
X054476Y021159D02*
X038130Y021159D01*
X038104Y021278D02*
X054525Y021278D01*
X054598Y021396D02*
X037985Y021396D01*
X037867Y021515D02*
X054728Y021515D01*
X055292Y021515D02*
X057139Y021515D01*
X057130Y021510D02*
X057062Y021461D01*
X057003Y021401D01*
X056954Y021333D01*
X056915Y021259D01*
X056889Y021179D01*
X056876Y021096D01*
X056876Y020698D01*
X057372Y020698D01*
X057372Y021587D01*
X057368Y021587D01*
X057285Y021574D01*
X057205Y021548D01*
X057130Y021510D01*
X056999Y021396D02*
X055422Y021396D01*
X055495Y021278D02*
X056925Y021278D01*
X056886Y021159D02*
X055544Y021159D01*
X055544Y021041D02*
X056876Y021041D01*
X056876Y020922D02*
X055544Y020922D01*
X055544Y020804D02*
X056876Y020804D01*
X056876Y020567D02*
X055544Y020567D01*
X055544Y020685D02*
X057372Y020685D01*
X057448Y020685D02*
X060900Y020685D01*
X060900Y020567D02*
X057944Y020567D01*
X057944Y020448D02*
X060900Y020448D01*
X060900Y020330D02*
X057944Y020330D01*
X057942Y020211D02*
X060900Y020211D01*
X060900Y020093D02*
X057915Y020093D01*
X057857Y019974D02*
X060900Y019974D01*
X060900Y019856D02*
X057753Y019856D01*
X057448Y019856D02*
X057372Y019856D01*
X057372Y019974D02*
X057448Y019974D01*
X057448Y020093D02*
X057372Y020093D01*
X057372Y020211D02*
X057448Y020211D01*
X057448Y020330D02*
X057372Y020330D01*
X057372Y020448D02*
X057448Y020448D01*
X057448Y020567D02*
X057372Y020567D01*
X057372Y020804D02*
X057448Y020804D01*
X057448Y020922D02*
X057372Y020922D01*
X057372Y021041D02*
X057448Y021041D01*
X057448Y021159D02*
X057372Y021159D01*
X057372Y021278D02*
X057448Y021278D01*
X057448Y021396D02*
X057372Y021396D01*
X057372Y021515D02*
X057448Y021515D01*
X057681Y021515D02*
X060900Y021515D01*
X060900Y021633D02*
X037748Y021633D01*
X037630Y021752D02*
X060900Y021752D01*
X060900Y021870D02*
X037511Y021870D01*
X037393Y021989D02*
X060900Y021989D01*
X060900Y022107D02*
X056905Y022107D01*
X056906Y022108D02*
X057056Y022258D01*
X057137Y022454D01*
X057137Y022666D01*
X057056Y022862D01*
X056906Y023012D01*
X056710Y023094D01*
X055710Y023094D01*
X055514Y023012D01*
X055364Y022862D01*
X055283Y022666D01*
X055283Y022454D01*
X055364Y022258D01*
X055514Y022108D01*
X055710Y022026D01*
X056710Y022026D01*
X056906Y022108D01*
X057024Y022226D02*
X060900Y022226D01*
X060900Y022344D02*
X057092Y022344D01*
X057137Y022463D02*
X060900Y022463D01*
X060900Y022581D02*
X057137Y022581D01*
X057124Y022700D02*
X060900Y022700D01*
X060900Y022818D02*
X057074Y022818D01*
X056982Y022937D02*
X060900Y022937D01*
X060900Y023055D02*
X056803Y023055D01*
X055617Y023055D02*
X036326Y023055D01*
X036208Y023174D02*
X060900Y023174D01*
X060900Y023292D02*
X036089Y023292D01*
X035971Y023411D02*
X060900Y023411D01*
X060900Y023529D02*
X035852Y023529D01*
X035734Y023648D02*
X060900Y023648D01*
X060900Y023766D02*
X059584Y023766D01*
X059382Y023766D02*
X035615Y023766D01*
X035497Y023885D02*
X058804Y023885D01*
X058542Y024003D02*
X035378Y024003D01*
X035260Y024122D02*
X050817Y024122D01*
X050817Y024118D02*
X050899Y024036D01*
X052708Y024036D01*
X052790Y024118D01*
X052790Y024370D01*
X053992Y024370D01*
X054233Y024270D01*
X054587Y024270D01*
X054914Y024405D01*
X055165Y024656D01*
X055300Y024983D01*
X055300Y025337D01*
X055165Y025664D01*
X054914Y025915D01*
X054587Y026050D01*
X054233Y026050D01*
X053992Y025950D01*
X052790Y025950D01*
X052790Y026202D01*
X052708Y026284D01*
X050899Y026284D01*
X050817Y026202D01*
X050817Y024118D01*
X050782Y024214D02*
X050782Y024606D01*
X050728Y024660D01*
X050728Y024660D01*
X050754Y024686D01*
X050773Y024718D01*
X050782Y024754D01*
X050782Y024901D01*
X050376Y024901D01*
X050376Y024919D01*
X050782Y024919D01*
X050782Y025066D01*
X050773Y025102D01*
X050754Y025134D01*
X050728Y025160D01*
X050728Y025160D01*
X050728Y025160D01*
X050754Y025186D01*
X050773Y025218D01*
X050782Y025254D01*
X050782Y025401D01*
X050376Y025401D01*
X050376Y025419D01*
X050782Y025419D01*
X050782Y025566D01*
X050773Y025602D01*
X050754Y025634D01*
X050728Y025660D01*
X050728Y025660D01*
X050728Y025660D01*
X050754Y025686D01*
X050773Y025718D01*
X050782Y025754D01*
X050782Y025901D01*
X050376Y025901D01*
X050376Y025919D01*
X050782Y025919D01*
X050782Y026066D01*
X050773Y026102D01*
X050754Y026134D01*
X050728Y026160D01*
X050696Y026178D01*
X050661Y026188D01*
X050376Y026188D01*
X050376Y025919D01*
X050358Y025919D01*
X050358Y026188D01*
X050073Y026188D01*
X050037Y026178D01*
X050005Y026160D01*
X049979Y026134D01*
X049961Y026102D01*
X049951Y026066D01*
X049951Y025919D01*
X050358Y025919D01*
X050358Y025901D01*
X050376Y025901D01*
X050376Y025419D01*
X050358Y025419D01*
X050358Y025688D01*
X050358Y025901D01*
X049951Y025901D01*
X049951Y025754D01*
X049961Y025718D01*
X049979Y025686D01*
X050005Y025660D01*
X050005Y025660D01*
X049979Y025634D01*
X049961Y025602D01*
X049951Y025566D01*
X049951Y025419D01*
X050358Y025419D01*
X050358Y025401D01*
X050376Y025401D01*
X050376Y024919D01*
X050358Y024919D01*
X050358Y025188D01*
X050376Y025188D01*
X050358Y025188D02*
X050358Y025401D01*
X049951Y025401D01*
X049951Y025254D01*
X049961Y025218D01*
X049979Y025186D01*
X050005Y025160D01*
X050005Y025160D01*
X049979Y025134D01*
X049961Y025102D01*
X049951Y025066D01*
X049951Y024919D01*
X050358Y024919D01*
X050358Y024901D01*
X049951Y024901D01*
X049951Y024754D01*
X049961Y024718D01*
X049979Y024686D01*
X050005Y024660D01*
X050005Y024660D01*
X049988Y024643D01*
X049751Y024880D01*
X049569Y024880D01*
X049440Y024751D01*
X049440Y024569D01*
X049690Y024319D01*
X049819Y024190D01*
X049975Y024190D01*
X050033Y024132D01*
X050700Y024132D01*
X050782Y024214D01*
X050782Y024240D02*
X050817Y024240D01*
X050817Y024359D02*
X050782Y024359D01*
X050782Y024477D02*
X050817Y024477D01*
X050817Y024596D02*
X050782Y024596D01*
X050770Y024714D02*
X050817Y024714D01*
X050817Y024833D02*
X050782Y024833D01*
X050782Y024951D02*
X050817Y024951D01*
X050817Y025070D02*
X050781Y025070D01*
X050755Y025188D02*
X050817Y025188D01*
X050817Y025307D02*
X050782Y025307D01*
X050782Y025425D02*
X050817Y025425D01*
X050817Y025544D02*
X050782Y025544D01*
X050817Y025662D02*
X050730Y025662D01*
X050782Y025781D02*
X050817Y025781D01*
X050817Y025899D02*
X050782Y025899D01*
X050782Y026018D02*
X050817Y026018D01*
X050817Y026136D02*
X050752Y026136D01*
X050870Y026255D02*
X034000Y026255D01*
X034000Y026202D02*
X034000Y026618D01*
X033918Y026700D01*
X033502Y026700D01*
X033420Y026618D01*
X033420Y026202D01*
X033502Y026120D01*
X033918Y026120D01*
X034000Y026202D01*
X033934Y026136D02*
X049981Y026136D01*
X049951Y026018D02*
X026660Y026018D01*
X026660Y026136D02*
X031645Y026136D01*
X031656Y026130D02*
X031692Y026120D01*
X031845Y026120D01*
X031845Y026395D01*
X031875Y026395D01*
X031875Y026425D01*
X032150Y026425D01*
X032150Y026578D01*
X032140Y026614D01*
X032122Y026646D01*
X032096Y026672D01*
X032064Y026690D01*
X032028Y026700D01*
X031875Y026700D01*
X031875Y026425D01*
X031845Y026425D01*
X031845Y026700D01*
X031692Y026700D01*
X031656Y026690D01*
X031624Y026672D01*
X031598Y026646D01*
X031580Y026614D01*
X031570Y026578D01*
X031570Y026425D01*
X031845Y026425D01*
X031845Y026395D01*
X031570Y026395D01*
X031570Y026242D01*
X031580Y026206D01*
X031598Y026174D01*
X031624Y026148D01*
X031656Y026130D01*
X031570Y026255D02*
X026660Y026255D01*
X026660Y026373D02*
X031570Y026373D01*
X031570Y026492D02*
X026660Y026492D01*
X026660Y026610D02*
X031578Y026610D01*
X031845Y026610D02*
X031875Y026610D01*
X031875Y026492D02*
X031845Y026492D01*
X031875Y026395D02*
X032150Y026395D01*
X032150Y026242D01*
X032140Y026206D01*
X032122Y026174D01*
X032096Y026148D01*
X032064Y026130D01*
X032028Y026120D01*
X031875Y026120D01*
X031875Y026395D01*
X031875Y026373D02*
X031845Y026373D01*
X031845Y026255D02*
X031875Y026255D01*
X031875Y026136D02*
X031845Y026136D01*
X032075Y026136D02*
X032236Y026136D01*
X032252Y026120D02*
X032668Y026120D01*
X032750Y026202D01*
X032750Y026618D01*
X032668Y026700D01*
X032252Y026700D01*
X032170Y026618D01*
X032170Y026202D01*
X032252Y026120D01*
X032170Y026255D02*
X032150Y026255D01*
X032150Y026373D02*
X032170Y026373D01*
X032170Y026492D02*
X032150Y026492D01*
X032142Y026610D02*
X032170Y026610D01*
X032750Y026610D02*
X032828Y026610D01*
X032830Y026614D02*
X032820Y026578D01*
X032820Y026425D01*
X033095Y026425D01*
X033095Y026700D01*
X032942Y026700D01*
X032906Y026690D01*
X032874Y026672D01*
X032848Y026646D01*
X032830Y026614D01*
X032820Y026492D02*
X032750Y026492D01*
X032750Y026373D02*
X032820Y026373D01*
X032820Y026395D02*
X032820Y026242D01*
X032830Y026206D01*
X032848Y026174D01*
X032874Y026148D01*
X032906Y026130D01*
X032942Y026120D01*
X033095Y026120D01*
X033095Y026395D01*
X032820Y026395D01*
X032820Y026255D02*
X032750Y026255D01*
X032684Y026136D02*
X032895Y026136D01*
X033095Y026136D02*
X033125Y026136D01*
X033125Y026120D02*
X033278Y026120D01*
X033314Y026130D01*
X033346Y026148D01*
X033372Y026174D01*
X033390Y026206D01*
X033400Y026242D01*
X033400Y026395D01*
X033125Y026395D01*
X033125Y026425D01*
X033095Y026425D01*
X033095Y026395D01*
X033125Y026395D01*
X033125Y026120D01*
X033125Y026255D02*
X033095Y026255D01*
X033095Y026373D02*
X033125Y026373D01*
X033125Y026425D02*
X033400Y026425D01*
X033400Y026578D01*
X033390Y026614D01*
X033372Y026646D01*
X033346Y026672D01*
X033314Y026690D01*
X033278Y026700D01*
X033125Y026700D01*
X033125Y026425D01*
X033125Y026492D02*
X033095Y026492D01*
X033095Y026610D02*
X033125Y026610D01*
X033392Y026610D02*
X033420Y026610D01*
X033420Y026492D02*
X033400Y026492D01*
X033400Y026373D02*
X033420Y026373D01*
X033420Y026255D02*
X033400Y026255D01*
X033325Y026136D02*
X033486Y026136D01*
X033402Y025700D02*
X033320Y025618D01*
X033320Y025202D01*
X033402Y025120D01*
X033818Y025120D01*
X033900Y025202D01*
X033900Y025618D01*
X033818Y025700D01*
X033402Y025700D01*
X033364Y025662D02*
X026660Y025662D01*
X026660Y025544D02*
X033320Y025544D01*
X033320Y025425D02*
X026660Y025425D01*
X026660Y025307D02*
X033320Y025307D01*
X033334Y025188D02*
X026660Y025188D01*
X026660Y025070D02*
X034470Y025070D01*
X034470Y024951D02*
X026660Y024951D01*
X026660Y024833D02*
X034470Y024833D01*
X034445Y024714D02*
X026660Y024714D01*
X026660Y024596D02*
X033077Y024596D01*
X032958Y024477D02*
X026660Y024477D01*
X026660Y024359D02*
X032840Y024359D01*
X032721Y024240D02*
X026660Y024240D01*
X026660Y024122D02*
X032603Y024122D01*
X032484Y024003D02*
X026660Y024003D01*
X026660Y023885D02*
X032470Y023885D01*
X032470Y023766D02*
X026660Y023766D01*
X026660Y023648D02*
X032470Y023648D01*
X032470Y023529D02*
X029887Y023529D01*
X029916Y023499D02*
X029834Y023581D01*
X029088Y023581D01*
X029006Y023499D01*
X029006Y022321D01*
X029088Y022239D01*
X029190Y022239D01*
X029190Y021973D01*
X029160Y021943D01*
X029088Y022015D01*
X028732Y022015D01*
X028660Y021943D01*
X028630Y021973D01*
X028630Y022239D01*
X028732Y022239D01*
X028814Y022321D01*
X028814Y023499D01*
X028732Y023581D01*
X027986Y023581D01*
X027904Y023499D01*
X027904Y022321D01*
X027986Y022239D01*
X028190Y022239D01*
X028190Y021973D01*
X028150Y021933D01*
X028150Y020947D01*
X028190Y020907D01*
X028190Y019913D01*
X028150Y019873D01*
X028150Y018887D01*
X028232Y018805D01*
X028588Y018805D01*
X028660Y018877D01*
X028690Y018847D01*
X028690Y018644D01*
X027927Y018644D01*
X027845Y018562D01*
X027845Y017758D01*
X027927Y017676D01*
X029893Y017676D01*
X029975Y017758D01*
X029975Y017940D01*
X030069Y017940D01*
X030190Y017819D01*
X030319Y017690D01*
X030681Y017690D01*
X030681Y017380D01*
X030763Y017298D01*
X031824Y017298D01*
X031906Y017380D01*
X031906Y018440D01*
X031824Y018522D01*
X030763Y018522D01*
X030681Y018440D01*
X030681Y018130D01*
X030501Y018130D01*
X030251Y018380D01*
X029975Y018380D01*
X029975Y018562D01*
X029893Y018644D01*
X029130Y018644D01*
X029130Y018847D01*
X029160Y018877D01*
X029232Y018805D01*
X029588Y018805D01*
X029665Y018882D01*
X029678Y018859D01*
X029704Y018833D01*
X029736Y018815D01*
X029772Y018805D01*
X029910Y018805D01*
X030048Y018805D01*
X030084Y018815D01*
X030116Y018833D01*
X030142Y018859D01*
X030160Y018891D01*
X030170Y018927D01*
X030170Y019380D01*
X030170Y019833D01*
X030160Y019869D01*
X030142Y019901D01*
X030116Y019927D01*
X030093Y019940D01*
X030131Y019940D01*
X030390Y019681D01*
X030390Y019438D01*
X030320Y019368D01*
X030320Y018952D01*
X030402Y018870D01*
X030818Y018870D01*
X030900Y018952D01*
X030900Y019368D01*
X030830Y019438D01*
X030830Y019864D01*
X030314Y020380D01*
X029729Y020380D01*
X029729Y020473D01*
X029680Y020591D01*
X029630Y020641D01*
X029630Y020907D01*
X029660Y020937D01*
X029732Y020865D01*
X030088Y020865D01*
X030163Y020940D01*
X030332Y020940D01*
X030402Y020870D01*
X030818Y020870D01*
X030900Y020952D01*
X030900Y021368D01*
X030818Y021450D01*
X030402Y021450D01*
X030332Y021380D01*
X030170Y021380D01*
X030170Y021933D01*
X030088Y022015D01*
X029732Y022015D01*
X029660Y021943D01*
X029630Y021973D01*
X029630Y022239D01*
X029834Y022239D01*
X029916Y022321D01*
X029916Y022593D01*
X029940Y022569D01*
X030069Y022440D01*
X030509Y022440D01*
X030524Y022402D01*
X030652Y022274D01*
X030819Y022205D01*
X031001Y022205D01*
X031168Y022274D01*
X031296Y022402D01*
X031365Y022569D01*
X031365Y022751D01*
X031296Y022918D01*
X031168Y023046D01*
X031001Y023115D01*
X030819Y023115D01*
X030652Y023046D01*
X030524Y022918D01*
X030509Y022880D01*
X030251Y022880D01*
X030001Y023130D01*
X029916Y023130D01*
X029916Y023499D01*
X029916Y023411D02*
X032470Y023411D01*
X032470Y023292D02*
X029916Y023292D01*
X029916Y023174D02*
X032470Y023174D01*
X032470Y023055D02*
X032158Y023055D01*
X032098Y023115D02*
X031930Y023115D01*
X031930Y022680D01*
X032365Y022680D01*
X032365Y022848D01*
X032098Y023115D01*
X031930Y023055D02*
X031890Y023055D01*
X031890Y023115D02*
X031722Y023115D01*
X031455Y022848D01*
X031455Y022680D01*
X031890Y022680D01*
X031890Y023115D01*
X031890Y022937D02*
X031930Y022937D01*
X031930Y022818D02*
X031890Y022818D01*
X031890Y022700D02*
X031930Y022700D01*
X031930Y022680D02*
X031890Y022680D01*
X031890Y022640D01*
X031930Y022640D01*
X031930Y022680D01*
X031930Y022640D02*
X032365Y022640D01*
X032365Y022472D01*
X032098Y022205D01*
X031930Y022205D01*
X031930Y022640D01*
X031890Y022640D02*
X031890Y022205D01*
X031722Y022205D01*
X031455Y022472D01*
X031455Y022640D01*
X031890Y022640D01*
X031890Y022581D02*
X031930Y022581D01*
X031930Y022463D02*
X031890Y022463D01*
X031890Y022344D02*
X031930Y022344D01*
X031930Y022226D02*
X031890Y022226D01*
X031701Y022226D02*
X031050Y022226D01*
X031238Y022344D02*
X031582Y022344D01*
X031464Y022463D02*
X031321Y022463D01*
X031365Y022581D02*
X031455Y022581D01*
X031455Y022700D02*
X031365Y022700D01*
X031337Y022818D02*
X031455Y022818D01*
X031543Y022937D02*
X031277Y022937D01*
X031145Y023055D02*
X031662Y023055D01*
X032277Y022937D02*
X032470Y022937D01*
X032470Y022818D02*
X032365Y022818D01*
X032365Y022700D02*
X032470Y022700D01*
X032470Y022581D02*
X032365Y022581D01*
X032356Y022463D02*
X032470Y022463D01*
X032470Y022344D02*
X032238Y022344D01*
X032119Y022226D02*
X032470Y022226D01*
X032470Y022107D02*
X029630Y022107D01*
X029630Y021989D02*
X029706Y021989D01*
X029630Y022226D02*
X030770Y022226D01*
X030582Y022344D02*
X029916Y022344D01*
X029916Y022463D02*
X030046Y022463D01*
X029928Y022581D02*
X029916Y022581D01*
X030195Y022937D02*
X030543Y022937D01*
X030675Y023055D02*
X030076Y023055D01*
X029006Y023055D02*
X028814Y023055D01*
X028814Y022937D02*
X029006Y022937D01*
X029006Y022818D02*
X028814Y022818D01*
X028814Y022700D02*
X029006Y022700D01*
X029006Y022581D02*
X028814Y022581D01*
X028814Y022463D02*
X029006Y022463D01*
X029006Y022344D02*
X028814Y022344D01*
X028630Y022226D02*
X029190Y022226D01*
X029190Y022107D02*
X028630Y022107D01*
X028630Y021989D02*
X028706Y021989D01*
X029114Y021989D02*
X029190Y021989D01*
X030114Y021989D02*
X032470Y021989D01*
X032470Y021870D02*
X030170Y021870D01*
X030170Y021752D02*
X032470Y021752D01*
X032470Y021633D02*
X030170Y021633D01*
X030170Y021515D02*
X032470Y021515D01*
X032470Y021396D02*
X031472Y021396D01*
X030948Y021396D02*
X030872Y021396D01*
X030900Y021278D02*
X030920Y021278D01*
X030920Y021159D02*
X030900Y021159D01*
X030900Y021041D02*
X030920Y021041D01*
X030950Y020922D02*
X030870Y020922D01*
X030880Y020854D02*
X030753Y020854D01*
X030636Y020805D01*
X030546Y020716D01*
X030498Y020598D01*
X030498Y020472D01*
X030546Y020354D01*
X030636Y020265D01*
X030753Y020216D01*
X030880Y020216D01*
X030997Y020265D01*
X031046Y020314D01*
X031067Y020314D01*
X031157Y020314D01*
X031158Y020314D01*
X031204Y020314D01*
X031281Y020237D01*
X031751Y020237D01*
X031833Y020319D01*
X031833Y020749D01*
X031751Y020831D01*
X031281Y020831D01*
X031204Y020754D01*
X031068Y020754D01*
X031048Y020754D01*
X030997Y020805D01*
X030880Y020854D01*
X030998Y020804D02*
X031253Y020804D01*
X031470Y020922D02*
X033099Y020922D01*
X033095Y021041D02*
X032852Y021041D01*
X032970Y021159D02*
X033095Y021159D01*
X033089Y021278D02*
X033095Y021278D01*
X032992Y020804D02*
X031779Y020804D01*
X031833Y020685D02*
X032874Y020685D01*
X032755Y020567D02*
X031833Y020567D01*
X031833Y020448D02*
X032098Y020448D01*
X032026Y020330D02*
X031833Y020330D01*
X032026Y020211D02*
X030483Y020211D01*
X030571Y020330D02*
X030364Y020330D01*
X030507Y020448D02*
X029729Y020448D01*
X029690Y020567D02*
X030498Y020567D01*
X030533Y020685D02*
X029630Y020685D01*
X029630Y020804D02*
X030634Y020804D01*
X030350Y020922D02*
X030145Y020922D01*
X029675Y020922D02*
X029645Y020922D01*
X030170Y021396D02*
X030348Y021396D01*
X030601Y020093D02*
X032026Y020093D01*
X032026Y019974D02*
X031830Y019974D01*
X031833Y019962D02*
X031824Y019998D01*
X031805Y020029D01*
X031779Y020055D01*
X031748Y020074D01*
X031712Y020083D01*
X031535Y020083D01*
X031535Y019805D01*
X031498Y019805D01*
X031498Y020083D01*
X031321Y020083D01*
X031285Y020074D01*
X031253Y020055D01*
X031227Y020029D01*
X031209Y019998D01*
X031199Y019962D01*
X031199Y019805D01*
X031498Y019805D01*
X031498Y019767D01*
X031535Y019767D01*
X031535Y019489D01*
X031712Y019489D01*
X031748Y019498D01*
X031779Y019516D01*
X031805Y019543D01*
X031824Y019574D01*
X031833Y019610D01*
X031833Y019767D01*
X031535Y019767D01*
X031535Y019805D01*
X031833Y019805D01*
X031833Y019962D01*
X031833Y019856D02*
X034820Y019856D01*
X034820Y019974D02*
X032785Y019974D01*
X032904Y020093D02*
X034820Y020093D01*
X034820Y020118D02*
X034820Y019702D01*
X034902Y019620D01*
X035318Y019620D01*
X035400Y019702D01*
X035400Y020118D01*
X035318Y020200D01*
X034902Y020200D01*
X034820Y020118D01*
X034820Y019737D02*
X034498Y019737D01*
X034500Y019728D02*
X034490Y019764D01*
X034472Y019796D01*
X034446Y019822D01*
X034414Y019840D01*
X034378Y019850D01*
X034225Y019850D01*
X034225Y019575D01*
X034500Y019575D01*
X034500Y019728D01*
X034500Y019619D02*
X036470Y019619D01*
X036470Y019737D02*
X035999Y019737D01*
X036000Y019742D02*
X036000Y019895D01*
X035725Y019895D01*
X035725Y019925D01*
X036000Y019925D01*
X036000Y020078D01*
X035990Y020114D01*
X035972Y020146D01*
X035946Y020172D01*
X035914Y020190D01*
X035878Y020200D01*
X035725Y020200D01*
X035725Y019925D01*
X035695Y019925D01*
X035695Y020200D01*
X035542Y020200D01*
X035506Y020190D01*
X035474Y020172D01*
X035448Y020146D01*
X035430Y020114D01*
X035420Y020078D01*
X035420Y019925D01*
X035695Y019925D01*
X035695Y019895D01*
X035725Y019895D01*
X035725Y019620D01*
X035878Y019620D01*
X035914Y019630D01*
X035946Y019648D01*
X035972Y019674D01*
X035990Y019706D01*
X036000Y019742D01*
X036000Y019856D02*
X036470Y019856D01*
X036470Y019974D02*
X036000Y019974D01*
X035996Y020093D02*
X036470Y020093D01*
X036470Y020211D02*
X033022Y020211D01*
X033141Y020330D02*
X036470Y020330D01*
X036470Y020448D02*
X033259Y020448D01*
X033378Y020567D02*
X036470Y020567D01*
X036336Y020685D02*
X033984Y020685D01*
X034103Y020804D02*
X036217Y020804D01*
X036099Y020922D02*
X034221Y020922D01*
X034225Y021041D02*
X036095Y021041D01*
X036095Y021159D02*
X034225Y021159D01*
X034225Y021278D02*
X036095Y021278D01*
X036097Y021396D02*
X034223Y021396D01*
X034104Y021515D02*
X035994Y021515D01*
X035876Y021633D02*
X033986Y021633D01*
X033676Y022226D02*
X036533Y022226D01*
X036415Y022344D02*
X033728Y022344D01*
X033729Y022463D02*
X036296Y022463D01*
X036178Y022581D02*
X033684Y022581D01*
X033600Y022700D02*
X036059Y022700D01*
X035941Y022818D02*
X033600Y022818D01*
X033600Y022937D02*
X035822Y022937D01*
X035704Y023055D02*
X033600Y023055D01*
X033600Y023174D02*
X035585Y023174D01*
X035467Y023292D02*
X033600Y023292D01*
X033600Y023411D02*
X035348Y023411D01*
X035230Y023529D02*
X033600Y023529D01*
X033600Y023648D02*
X033724Y023648D01*
X033670Y023766D02*
X033650Y023766D01*
X033650Y023885D02*
X033670Y023885D01*
X033670Y024003D02*
X033650Y024003D01*
X033646Y024122D02*
X033674Y024122D01*
X034196Y023648D02*
X035111Y023648D01*
X034509Y024240D02*
X049769Y024240D01*
X049650Y024359D02*
X034627Y024359D01*
X034746Y024477D02*
X049532Y024477D01*
X049440Y024596D02*
X034850Y024596D01*
X034850Y024714D02*
X049440Y024714D01*
X049521Y024833D02*
X034850Y024833D01*
X034850Y024951D02*
X049951Y024951D01*
X049951Y024833D02*
X049799Y024833D01*
X049917Y024714D02*
X049963Y024714D01*
X049952Y025070D02*
X034850Y025070D01*
X034850Y025188D02*
X049978Y025188D01*
X050005Y025160D02*
X050005Y025160D01*
X049951Y025307D02*
X034850Y025307D01*
X034873Y025425D02*
X034947Y025425D01*
X034920Y025452D02*
X035002Y025370D01*
X035418Y025370D01*
X035500Y025452D01*
X035500Y025868D01*
X035418Y025950D01*
X035002Y025950D01*
X034920Y025868D01*
X034920Y025452D01*
X034920Y025544D02*
X034900Y025544D01*
X034900Y025662D02*
X034920Y025662D01*
X034920Y025781D02*
X034900Y025781D01*
X034869Y025899D02*
X034951Y025899D01*
X035469Y025899D02*
X049951Y025899D01*
X049951Y025781D02*
X035500Y025781D01*
X035500Y025662D02*
X050003Y025662D01*
X050005Y025660D02*
X050005Y025660D01*
X049951Y025544D02*
X035500Y025544D01*
X035473Y025425D02*
X049951Y025425D01*
X050358Y025425D02*
X050376Y025425D01*
X050376Y025307D02*
X050358Y025307D01*
X050358Y025544D02*
X050376Y025544D01*
X050376Y025662D02*
X050358Y025662D01*
X050358Y025781D02*
X050376Y025781D01*
X050376Y025899D02*
X050358Y025899D01*
X050358Y026018D02*
X050376Y026018D01*
X050376Y026136D02*
X050358Y026136D01*
X050358Y025070D02*
X050376Y025070D01*
X050376Y024951D02*
X050358Y024951D01*
X052790Y024359D02*
X054019Y024359D01*
X054801Y024359D02*
X056019Y024359D01*
X055906Y024405D02*
X056233Y024270D01*
X056587Y024270D01*
X056914Y024405D01*
X057165Y024656D01*
X057300Y024983D01*
X057300Y025337D01*
X057165Y025664D01*
X056914Y025915D01*
X056587Y026050D01*
X056233Y026050D01*
X055906Y025915D01*
X055655Y025664D01*
X055520Y025337D01*
X055520Y024983D01*
X055655Y024656D01*
X055906Y024405D01*
X055834Y024477D02*
X054986Y024477D01*
X055104Y024596D02*
X055716Y024596D01*
X055631Y024714D02*
X055189Y024714D01*
X055238Y024833D02*
X055582Y024833D01*
X055533Y024951D02*
X055287Y024951D01*
X055300Y025070D02*
X055520Y025070D01*
X055520Y025188D02*
X055300Y025188D01*
X055300Y025307D02*
X055520Y025307D01*
X055556Y025425D02*
X055264Y025425D01*
X055214Y025544D02*
X055606Y025544D01*
X055655Y025662D02*
X055165Y025662D01*
X055048Y025781D02*
X055772Y025781D01*
X055890Y025899D02*
X054930Y025899D01*
X054665Y026018D02*
X056155Y026018D01*
X056665Y026018D02*
X057880Y026018D01*
X057918Y026136D02*
X052790Y026136D01*
X052790Y026018D02*
X054155Y026018D01*
X052738Y026255D02*
X057999Y026255D01*
X058080Y026373D02*
X034000Y026373D01*
X034000Y026492D02*
X058161Y026492D01*
X058282Y026610D02*
X034000Y026610D01*
X034351Y025899D02*
X026660Y025899D01*
X026660Y025781D02*
X034320Y025781D01*
X034225Y025662D02*
X034195Y025662D01*
X034195Y025544D02*
X034225Y025544D01*
X034225Y025425D02*
X034195Y025425D01*
X034195Y025395D02*
X033920Y025395D01*
X033920Y025242D01*
X033930Y025206D01*
X033948Y025174D01*
X033974Y025148D01*
X034006Y025130D01*
X034042Y025120D01*
X034195Y025120D01*
X034195Y025395D01*
X034195Y025307D02*
X034225Y025307D01*
X034225Y025188D02*
X034195Y025188D01*
X033940Y025188D02*
X033886Y025188D01*
X033900Y025307D02*
X033920Y025307D01*
X033920Y025425D02*
X033900Y025425D01*
X033900Y025544D02*
X033920Y025544D01*
X033964Y025662D02*
X033856Y025662D01*
X036445Y022937D02*
X055438Y022937D01*
X055346Y022818D02*
X036563Y022818D01*
X036682Y022700D02*
X055296Y022700D01*
X055283Y022581D02*
X036800Y022581D01*
X036919Y022463D02*
X055283Y022463D01*
X055328Y022344D02*
X037037Y022344D01*
X037156Y022226D02*
X055396Y022226D01*
X055515Y022107D02*
X037274Y022107D01*
X037007Y021752D02*
X036380Y021752D01*
X036261Y021870D02*
X036889Y021870D01*
X036770Y021989D02*
X036143Y021989D01*
X036024Y022107D02*
X036652Y022107D01*
X036986Y021633D02*
X037126Y021633D01*
X037104Y021515D02*
X037244Y021515D01*
X037223Y021396D02*
X037363Y021396D01*
X037481Y021278D02*
X037225Y021278D01*
X037225Y021159D02*
X037600Y021159D01*
X037690Y021041D02*
X037225Y021041D01*
X037221Y020922D02*
X037690Y020922D01*
X037690Y020804D02*
X037103Y020804D01*
X036984Y020685D02*
X037690Y020685D01*
X037690Y020567D02*
X036850Y020567D01*
X036850Y020448D02*
X037690Y020448D01*
X037690Y020330D02*
X036850Y020330D01*
X036850Y020211D02*
X037690Y020211D01*
X037690Y020093D02*
X036850Y020093D01*
X036850Y019974D02*
X037690Y019974D01*
X037690Y019856D02*
X036850Y019856D01*
X036850Y019737D02*
X037690Y019737D01*
X037690Y019619D02*
X036850Y019619D01*
X036850Y019500D02*
X037690Y019500D01*
X037690Y019382D02*
X036850Y019382D01*
X036850Y019263D02*
X037690Y019263D01*
X037690Y019145D02*
X036850Y019145D01*
X036850Y019026D02*
X037690Y019026D01*
X037690Y018908D02*
X036850Y018908D01*
X036850Y018789D02*
X037690Y018789D01*
X037690Y018671D02*
X036850Y018671D01*
X036850Y018552D02*
X037690Y018552D01*
X037690Y018434D02*
X036905Y018434D01*
X037024Y018315D02*
X037690Y018315D01*
X037690Y018197D02*
X037100Y018197D01*
X037100Y018078D02*
X037690Y018078D01*
X036605Y018197D02*
X033639Y018197D01*
X033639Y018315D02*
X034757Y018315D01*
X034720Y018352D02*
X034802Y018270D01*
X035418Y018270D01*
X035500Y018352D01*
X035500Y018968D01*
X035418Y019050D01*
X034802Y019050D01*
X034720Y018968D01*
X034720Y018352D01*
X034720Y018434D02*
X033630Y018434D01*
X033629Y018436D02*
X033611Y018468D01*
X033585Y018494D01*
X033553Y018513D01*
X033517Y018522D01*
X033086Y018522D01*
X033086Y017970D01*
X032966Y017970D01*
X032966Y017850D01*
X032414Y017850D01*
X032414Y017419D01*
X032423Y017384D01*
X032442Y017352D01*
X032468Y017326D01*
X032500Y017307D01*
X032535Y017298D01*
X032966Y017298D01*
X032966Y017850D01*
X033086Y017850D01*
X033086Y017298D01*
X033517Y017298D01*
X033553Y017307D01*
X033585Y017326D01*
X033611Y017352D01*
X033629Y017384D01*
X033639Y017419D01*
X033639Y017850D01*
X033086Y017850D01*
X033086Y017970D01*
X033639Y017970D01*
X033639Y018401D01*
X033629Y018436D01*
X033639Y018078D02*
X035020Y018078D01*
X035020Y017960D02*
X033086Y017960D01*
X033086Y018078D02*
X032966Y018078D01*
X032966Y017970D02*
X032966Y018522D01*
X032535Y018522D01*
X032500Y018513D01*
X032468Y018494D01*
X032442Y018468D01*
X032423Y018436D01*
X032414Y018401D01*
X032414Y017970D01*
X032966Y017970D01*
X032966Y017960D02*
X031906Y017960D01*
X031906Y018078D02*
X032414Y018078D01*
X032414Y018197D02*
X031906Y018197D01*
X031906Y018315D02*
X032414Y018315D01*
X032422Y018434D02*
X031906Y018434D01*
X031906Y017841D02*
X032414Y017841D01*
X032414Y017723D02*
X031906Y017723D01*
X031906Y017604D02*
X032414Y017604D01*
X032414Y017486D02*
X031906Y017486D01*
X031894Y017367D02*
X032433Y017367D01*
X032966Y017367D02*
X033086Y017367D01*
X033086Y017486D02*
X032966Y017486D01*
X032966Y017604D02*
X033086Y017604D01*
X033086Y017723D02*
X032966Y017723D01*
X032966Y017841D02*
X033086Y017841D01*
X033086Y018197D02*
X032966Y018197D01*
X032966Y018315D02*
X033086Y018315D01*
X033086Y018434D02*
X032966Y018434D01*
X033639Y017841D02*
X035020Y017841D01*
X035020Y017723D02*
X033639Y017723D01*
X033639Y017604D02*
X035020Y017604D01*
X034783Y017486D02*
X034746Y017486D01*
X034746Y017367D02*
X034783Y017367D01*
X034783Y017249D02*
X034746Y017249D01*
X034746Y017141D02*
X034467Y017141D01*
X034467Y016905D01*
X034476Y016870D01*
X034495Y016838D01*
X034521Y016812D01*
X034553Y016793D01*
X034588Y016784D01*
X034746Y016784D01*
X034746Y017141D01*
X034746Y017130D02*
X034783Y017130D01*
X034783Y017012D02*
X034746Y017012D01*
X034746Y016893D02*
X034783Y016893D01*
X034470Y016893D02*
X034353Y016893D01*
X034353Y016866D02*
X034271Y016784D01*
X033840Y016784D01*
X033758Y016866D01*
X033758Y017454D01*
X033840Y017536D01*
X034271Y017536D01*
X034353Y017454D01*
X034353Y016866D01*
X034353Y017012D02*
X034467Y017012D01*
X034467Y017130D02*
X034353Y017130D01*
X034353Y017249D02*
X034467Y017249D01*
X034467Y017367D02*
X034353Y017367D01*
X034322Y017486D02*
X034498Y017486D01*
X035062Y017130D02*
X035087Y017130D01*
X034032Y016301D02*
X032916Y016301D01*
X032916Y016182D02*
X033234Y016182D01*
X033129Y016064D02*
X032916Y016064D01*
X032521Y016064D02*
X032401Y016064D01*
X032401Y016182D02*
X032521Y016182D01*
X032521Y016301D02*
X032401Y016301D01*
X032401Y016419D02*
X032521Y016419D01*
X032521Y016538D02*
X032401Y016538D01*
X032401Y015708D02*
X032521Y015708D01*
X032521Y015590D02*
X032401Y015590D01*
X032401Y015471D02*
X032521Y015471D01*
X032521Y015353D02*
X032401Y015353D01*
X033586Y016182D02*
X033913Y016182D01*
X034214Y015945D02*
X034301Y015945D01*
X034183Y015827D02*
X034095Y015827D01*
X033758Y016893D02*
X026660Y016893D01*
X026660Y017012D02*
X033758Y017012D01*
X033758Y017130D02*
X026660Y017130D01*
X026660Y017249D02*
X033758Y017249D01*
X033758Y017367D02*
X033620Y017367D01*
X033639Y017486D02*
X033790Y017486D01*
X034720Y018552D02*
X029975Y018552D01*
X029975Y018434D02*
X030681Y018434D01*
X030681Y018315D02*
X030316Y018315D01*
X030435Y018197D02*
X030681Y018197D01*
X030168Y017841D02*
X029975Y017841D01*
X029940Y017723D02*
X030286Y017723D01*
X030681Y017604D02*
X026660Y017604D01*
X026660Y017486D02*
X030681Y017486D01*
X030694Y017367D02*
X026660Y017367D01*
X026660Y017723D02*
X027880Y017723D01*
X027845Y017841D02*
X026660Y017841D01*
X026660Y017960D02*
X027845Y017960D01*
X027845Y018078D02*
X026660Y018078D01*
X026660Y018197D02*
X027845Y018197D01*
X027845Y018315D02*
X026660Y018315D01*
X026660Y018434D02*
X027845Y018434D01*
X027845Y018552D02*
X026660Y018552D01*
X026660Y018671D02*
X028690Y018671D01*
X028690Y018789D02*
X026660Y018789D01*
X026660Y018908D02*
X028150Y018908D01*
X028150Y019026D02*
X026660Y019026D01*
X026660Y019145D02*
X028150Y019145D01*
X028150Y019263D02*
X026660Y019263D01*
X026660Y019382D02*
X028150Y019382D01*
X028150Y019500D02*
X026660Y019500D01*
X026660Y019619D02*
X028150Y019619D01*
X028150Y019737D02*
X026660Y019737D01*
X026660Y019856D02*
X028150Y019856D01*
X028190Y019974D02*
X026660Y019974D01*
X026660Y020093D02*
X028190Y020093D01*
X028190Y020211D02*
X026660Y020211D01*
X026660Y020330D02*
X028190Y020330D01*
X028190Y020448D02*
X026660Y020448D01*
X026660Y020567D02*
X028190Y020567D01*
X028190Y020685D02*
X026660Y020685D01*
X026660Y020804D02*
X028190Y020804D01*
X028175Y020922D02*
X026660Y020922D01*
X026660Y021041D02*
X028150Y021041D01*
X028150Y021159D02*
X026660Y021159D01*
X026660Y021278D02*
X028150Y021278D01*
X028150Y021396D02*
X026660Y021396D01*
X026660Y021515D02*
X028150Y021515D01*
X028150Y021633D02*
X026660Y021633D01*
X026660Y021752D02*
X028150Y021752D01*
X028150Y021870D02*
X026660Y021870D01*
X026660Y021989D02*
X028190Y021989D01*
X028190Y022107D02*
X026660Y022107D01*
X026660Y022226D02*
X028190Y022226D01*
X027904Y022344D02*
X026660Y022344D01*
X026660Y022463D02*
X027904Y022463D01*
X027904Y022581D02*
X026660Y022581D01*
X026660Y022700D02*
X027904Y022700D01*
X027904Y022818D02*
X026660Y022818D01*
X026660Y022937D02*
X027904Y022937D01*
X027904Y023055D02*
X026660Y023055D01*
X026660Y023174D02*
X027904Y023174D01*
X027904Y023292D02*
X026660Y023292D01*
X026660Y023411D02*
X027904Y023411D01*
X027933Y023529D02*
X026660Y023529D01*
X028784Y023529D02*
X029036Y023529D01*
X029006Y023411D02*
X028814Y023411D01*
X028814Y023292D02*
X029006Y023292D01*
X029006Y023174D02*
X028814Y023174D01*
X032588Y020448D02*
X032637Y020448D01*
X033320Y019768D02*
X033320Y019352D01*
X033402Y019270D01*
X033818Y019270D01*
X033900Y019352D01*
X033900Y019768D01*
X033818Y019850D01*
X033402Y019850D01*
X033320Y019768D01*
X033320Y019737D02*
X031833Y019737D01*
X031833Y019619D02*
X033320Y019619D01*
X033320Y019500D02*
X031751Y019500D01*
X031535Y019500D02*
X031498Y019500D01*
X031498Y019489D02*
X031498Y019767D01*
X031199Y019767D01*
X031199Y019610D01*
X031209Y019574D01*
X031227Y019543D01*
X031253Y019516D01*
X031285Y019498D01*
X031321Y019489D01*
X031498Y019489D01*
X031446Y019422D02*
X031414Y019440D01*
X031378Y019450D01*
X031225Y019450D01*
X031225Y019175D01*
X031500Y019175D01*
X031500Y019328D01*
X031490Y019364D01*
X031472Y019396D01*
X031446Y019422D01*
X031480Y019382D02*
X033320Y019382D01*
X033900Y019382D02*
X033923Y019382D01*
X033920Y019392D02*
X033930Y019356D01*
X033948Y019324D01*
X033974Y019298D01*
X034006Y019280D01*
X034042Y019270D01*
X034195Y019270D01*
X034195Y019545D01*
X034225Y019545D01*
X034225Y019575D01*
X034195Y019575D01*
X034195Y019850D01*
X034042Y019850D01*
X034006Y019840D01*
X033974Y019822D01*
X033948Y019796D01*
X033930Y019764D01*
X033920Y019728D01*
X033920Y019575D01*
X034195Y019575D01*
X034195Y019545D01*
X033920Y019545D01*
X033920Y019392D01*
X033920Y019500D02*
X033900Y019500D01*
X033900Y019619D02*
X033920Y019619D01*
X033922Y019737D02*
X033900Y019737D01*
X034195Y019737D02*
X034225Y019737D01*
X034225Y019619D02*
X034195Y019619D01*
X034225Y019545D02*
X034500Y019545D01*
X034500Y019392D01*
X034490Y019356D01*
X034472Y019324D01*
X034446Y019298D01*
X034414Y019280D01*
X034378Y019270D01*
X034225Y019270D01*
X034225Y019545D01*
X034225Y019500D02*
X034195Y019500D01*
X034195Y019382D02*
X034225Y019382D01*
X034497Y019382D02*
X036470Y019382D01*
X036470Y019500D02*
X034500Y019500D01*
X034778Y019026D02*
X031500Y019026D01*
X031500Y018992D02*
X031500Y019145D01*
X031225Y019145D01*
X031225Y019175D01*
X031195Y019175D01*
X031195Y019450D01*
X031042Y019450D01*
X031006Y019440D01*
X030974Y019422D01*
X030948Y019396D01*
X030930Y019364D01*
X030920Y019328D01*
X030920Y019175D01*
X031195Y019175D01*
X031195Y019145D01*
X031225Y019145D01*
X031225Y018870D01*
X031378Y018870D01*
X031414Y018880D01*
X031446Y018898D01*
X031472Y018924D01*
X031490Y018956D01*
X031500Y018992D01*
X031456Y018908D02*
X034720Y018908D01*
X034720Y018789D02*
X029130Y018789D01*
X029130Y018671D02*
X034720Y018671D01*
X035500Y018671D02*
X035520Y018671D01*
X035520Y018789D02*
X035500Y018789D01*
X035500Y018908D02*
X035520Y018908D01*
X035520Y018968D02*
X035520Y018352D01*
X035602Y018270D01*
X036218Y018270D01*
X036300Y018352D01*
X036300Y018968D01*
X036218Y019050D01*
X035602Y019050D01*
X035520Y018968D01*
X035578Y019026D02*
X035442Y019026D01*
X035500Y018552D02*
X035520Y018552D01*
X035520Y018434D02*
X035500Y018434D01*
X035463Y018315D02*
X035557Y018315D01*
X036263Y018315D02*
X036486Y018315D01*
X036470Y018434D02*
X036300Y018434D01*
X036300Y018552D02*
X036470Y018552D01*
X036470Y018671D02*
X036300Y018671D01*
X036300Y018789D02*
X036470Y018789D01*
X036470Y018908D02*
X036300Y018908D01*
X036242Y019026D02*
X036470Y019026D01*
X036470Y019145D02*
X031500Y019145D01*
X031500Y019263D02*
X036470Y019263D01*
X035725Y019737D02*
X035695Y019737D01*
X035695Y019620D02*
X035695Y019895D01*
X035420Y019895D01*
X035420Y019742D01*
X035430Y019706D01*
X035448Y019674D01*
X035474Y019648D01*
X035506Y019630D01*
X035542Y019620D01*
X035695Y019620D01*
X035695Y019856D02*
X035725Y019856D01*
X035725Y019974D02*
X035695Y019974D01*
X035695Y020093D02*
X035725Y020093D01*
X035424Y020093D02*
X035400Y020093D01*
X035400Y019974D02*
X035420Y019974D01*
X035420Y019856D02*
X035400Y019856D01*
X035400Y019737D02*
X035421Y019737D01*
X031535Y019737D02*
X031498Y019737D01*
X031498Y019619D02*
X031535Y019619D01*
X031535Y019856D02*
X031498Y019856D01*
X031498Y019974D02*
X031535Y019974D01*
X031202Y019974D02*
X030720Y019974D01*
X030830Y019856D02*
X031199Y019856D01*
X031199Y019737D02*
X030830Y019737D01*
X030830Y019619D02*
X031199Y019619D01*
X031282Y019500D02*
X030830Y019500D01*
X030886Y019382D02*
X030940Y019382D01*
X030920Y019263D02*
X030900Y019263D01*
X030900Y019145D02*
X030920Y019145D01*
X030920Y018992D01*
X030930Y018956D01*
X030948Y018924D01*
X030974Y018898D01*
X031006Y018880D01*
X031042Y018870D01*
X031195Y018870D01*
X031195Y019145D01*
X030920Y019145D01*
X030920Y019026D02*
X030900Y019026D01*
X030856Y018908D02*
X030964Y018908D01*
X031195Y018908D02*
X031225Y018908D01*
X031225Y019026D02*
X031195Y019026D01*
X031195Y019145D02*
X031225Y019145D01*
X031225Y019263D02*
X031195Y019263D01*
X031195Y019382D02*
X031225Y019382D01*
X030390Y019500D02*
X030170Y019500D01*
X030170Y019382D02*
X030334Y019382D01*
X030320Y019263D02*
X030170Y019263D01*
X030170Y019380D02*
X029910Y019380D01*
X030170Y019380D01*
X030170Y019145D02*
X030320Y019145D01*
X030320Y019026D02*
X030170Y019026D01*
X030165Y018908D02*
X030364Y018908D01*
X029910Y018908D02*
X029910Y018908D01*
X029910Y018805D02*
X029910Y019380D01*
X029910Y019380D01*
X029910Y019380D01*
X029910Y018805D01*
X029910Y019026D02*
X029910Y019026D01*
X029910Y019145D02*
X029910Y019145D01*
X029910Y019263D02*
X029910Y019263D01*
X030170Y019619D02*
X030390Y019619D01*
X030334Y019737D02*
X030170Y019737D01*
X030164Y019856D02*
X030216Y019856D01*
X037180Y014642D02*
X037220Y014642D01*
X037239Y013812D02*
X037020Y013812D01*
X037076Y013694D02*
X037358Y013694D01*
X037470Y013575D02*
X037076Y013575D01*
X037076Y013457D02*
X037470Y013457D01*
X046860Y014642D02*
X049460Y014642D01*
X049460Y014760D02*
X046860Y014760D01*
X046860Y014879D02*
X049460Y014879D01*
X049460Y014997D02*
X046860Y014997D01*
X046860Y015116D02*
X049460Y015116D01*
X049460Y015234D02*
X046860Y015234D01*
X046860Y015353D02*
X049460Y015353D01*
X049460Y015471D02*
X046860Y015471D01*
X046860Y015590D02*
X049460Y015590D01*
X049460Y015708D02*
X046860Y015708D01*
X046860Y015827D02*
X049460Y015827D01*
X049460Y015945D02*
X046860Y015945D01*
X046860Y016064D02*
X049460Y016064D01*
X049460Y016182D02*
X046860Y016182D01*
X049512Y014523D02*
X058164Y014523D01*
X058164Y014405D02*
X049512Y014405D01*
X049512Y014286D02*
X058164Y014286D01*
X058321Y014168D02*
X049512Y014168D01*
X049512Y014049D02*
X058321Y014049D01*
X058321Y013931D02*
X054928Y013931D01*
X054999Y013812D02*
X058175Y013812D01*
X058164Y013694D02*
X054999Y013694D01*
X054999Y013575D02*
X058164Y013575D01*
X058164Y013457D02*
X054999Y013457D01*
X054999Y013338D02*
X058164Y013338D01*
X058164Y013220D02*
X054999Y013220D01*
X054999Y013101D02*
X058164Y013101D01*
X058164Y012983D02*
X054946Y012983D01*
X054238Y013931D02*
X049512Y013931D01*
X050240Y014642D02*
X058164Y014642D01*
X058321Y014760D02*
X050240Y014760D01*
X050240Y014879D02*
X058321Y014879D01*
X058321Y014997D02*
X050240Y014997D01*
X050240Y015116D02*
X058190Y015116D01*
X058164Y015234D02*
X050240Y015234D01*
X057123Y011442D02*
X060900Y011442D01*
X060900Y011324D02*
X058555Y011324D01*
X058504Y011374D02*
X058350Y011438D01*
X058183Y011438D01*
X058028Y011374D01*
X057910Y011256D01*
X057846Y011102D01*
X057846Y010935D01*
X057910Y010780D01*
X058028Y010662D01*
X058183Y010598D01*
X058350Y010598D01*
X058504Y010662D01*
X058622Y010780D01*
X058686Y010935D01*
X058686Y011102D01*
X058622Y011256D01*
X058504Y011374D01*
X058644Y011205D02*
X060900Y011205D01*
X060900Y011087D02*
X058686Y011087D01*
X058686Y010968D02*
X060900Y010968D01*
X060900Y010850D02*
X058651Y010850D01*
X058573Y010731D02*
X060900Y010731D01*
X060900Y010613D02*
X058384Y010613D01*
X058148Y010613D02*
X057560Y010613D01*
X057560Y010731D02*
X057960Y010731D01*
X057882Y010850D02*
X057555Y010850D01*
X057506Y010968D02*
X057846Y010968D01*
X057846Y011087D02*
X057457Y011087D01*
X057387Y011205D02*
X057889Y011205D01*
X057978Y011324D02*
X057269Y011324D01*
X059681Y012509D02*
X059801Y012509D01*
X059801Y012627D02*
X059681Y012627D01*
X059681Y012983D02*
X059801Y012983D01*
X059801Y013101D02*
X059681Y013101D01*
X059681Y013220D02*
X059801Y013220D01*
X059034Y013457D02*
X060900Y013457D01*
X060900Y013575D02*
X059034Y013575D01*
X059034Y013694D02*
X060900Y013694D01*
X060900Y013812D02*
X059162Y013812D01*
X059192Y013931D02*
X060900Y013931D01*
X060900Y014049D02*
X059192Y014049D01*
X059192Y014168D02*
X060900Y014168D01*
X060900Y014286D02*
X059139Y014286D01*
X059034Y014405D02*
X060900Y014405D01*
X060900Y014523D02*
X059034Y014523D01*
X059125Y014642D02*
X060900Y014642D01*
X060900Y014760D02*
X059192Y014760D01*
X059192Y014879D02*
X060900Y014879D01*
X060900Y014997D02*
X059192Y014997D01*
X059176Y015116D02*
X060900Y015116D01*
X060900Y015234D02*
X059034Y015234D01*
X059034Y015353D02*
X060900Y015353D01*
X060900Y015471D02*
X059034Y015471D01*
X058978Y015590D02*
X060900Y015590D01*
X060900Y015708D02*
X058877Y015708D01*
X058877Y015827D02*
X060900Y015827D01*
X060900Y015945D02*
X058972Y015945D01*
X059034Y016064D02*
X060900Y016064D01*
X060900Y016182D02*
X059034Y016182D01*
X059034Y016301D02*
X060900Y016301D01*
X060900Y016419D02*
X059014Y016419D01*
X060609Y017723D02*
X060900Y017723D01*
X060900Y017841D02*
X060609Y017841D01*
X060609Y018078D02*
X060900Y018078D01*
X060900Y017960D02*
X060155Y017960D01*
X060155Y018078D02*
X060035Y018078D01*
X060035Y018197D02*
X060155Y018197D01*
X060155Y018315D02*
X060035Y018315D01*
X060607Y018315D02*
X060900Y018315D01*
X060900Y018197D02*
X060609Y018197D01*
X057067Y019856D02*
X055354Y019856D01*
X055467Y019974D02*
X056963Y019974D01*
X056905Y020093D02*
X055516Y020093D01*
X055544Y020211D02*
X056878Y020211D01*
X056876Y020330D02*
X055544Y020330D01*
X055544Y020448D02*
X056876Y020448D01*
X057944Y020804D02*
X060900Y020804D01*
X060900Y020922D02*
X057944Y020922D01*
X057944Y021041D02*
X060900Y021041D01*
X060900Y021159D02*
X057934Y021159D01*
X057895Y021278D02*
X060900Y021278D01*
X060900Y021396D02*
X057821Y021396D01*
X058393Y024122D02*
X052790Y024122D01*
X052790Y024240D02*
X058244Y024240D01*
X058193Y024281D02*
X058193Y024281D01*
X058140Y024359D02*
X056801Y024359D01*
X056986Y024477D02*
X058059Y024477D01*
X057979Y024596D02*
X057104Y024596D01*
X057189Y024714D02*
X057907Y024714D01*
X057870Y024833D02*
X057238Y024833D01*
X057287Y024951D02*
X057834Y024951D01*
X057797Y025070D02*
X057300Y025070D01*
X057300Y025188D02*
X057769Y025188D01*
X057769Y025307D02*
X057300Y025307D01*
X057264Y025425D02*
X057769Y025425D01*
X057769Y025544D02*
X057214Y025544D01*
X057165Y025662D02*
X057770Y025662D01*
X057807Y025781D02*
X057048Y025781D01*
X056930Y025899D02*
X057843Y025899D01*
X058431Y026729D02*
X026660Y026729D01*
X026660Y026847D02*
X058579Y026847D01*
X060897Y024714D02*
X060900Y024714D01*
X060900Y024596D02*
X060840Y024596D01*
X060783Y024477D02*
X060900Y024477D01*
X060900Y024359D02*
X060674Y024359D01*
X060564Y024240D02*
X060900Y024240D01*
X060900Y024122D02*
X060454Y024122D01*
X060256Y024003D02*
X060900Y024003D01*
X060900Y023885D02*
X060051Y023885D01*
X060255Y012627D02*
X060900Y012627D01*
X060900Y012509D02*
X060251Y012509D01*
X053970Y009309D02*
X053528Y009309D01*
X053454Y009428D02*
X053831Y009428D01*
X052857Y009902D02*
X051070Y009902D01*
X051063Y010020D02*
X052788Y010020D01*
X053504Y008954D02*
X053892Y008954D01*
X053803Y008835D02*
X053397Y008835D01*
X053402Y008480D02*
X053805Y008480D01*
X053897Y008361D02*
X053507Y008361D01*
X053526Y008006D02*
X053956Y008006D01*
X053825Y007887D02*
X053449Y007887D01*
X055399Y005873D02*
X055519Y005873D01*
X055519Y005754D02*
X055399Y005754D01*
X055399Y005636D02*
X055519Y005636D01*
X055712Y005873D02*
X055805Y005873D01*
X055831Y005754D02*
X055854Y005754D01*
X055519Y005280D02*
X055399Y005280D01*
X055399Y005162D02*
X055519Y005162D01*
X055519Y005043D02*
X055399Y005043D01*
X055399Y004925D02*
X055519Y004925D01*
X055788Y004925D02*
X060900Y004925D01*
X060900Y005043D02*
X055906Y005043D01*
X055131Y004925D02*
X026660Y004925D01*
X026660Y005043D02*
X055012Y005043D01*
X054918Y005162D02*
X026660Y005162D01*
X026660Y005280D02*
X054918Y005280D01*
X057272Y006821D02*
X057846Y006821D01*
X057853Y006702D02*
X057390Y006702D01*
X057458Y006584D02*
X057902Y006584D01*
X058009Y006465D02*
X057508Y006465D01*
X057869Y006939D02*
X057131Y006939D01*
X056844Y007058D02*
X057928Y007058D01*
X060900Y004806D02*
X026660Y004806D01*
X026660Y004688D02*
X060900Y004688D01*
X060900Y004569D02*
X026660Y004569D01*
X026660Y004451D02*
X060900Y004451D01*
X060900Y004332D02*
X026660Y004332D01*
X026660Y004214D02*
X060900Y004214D01*
X060900Y004095D02*
X026660Y004095D01*
X026660Y003977D02*
X060900Y003977D01*
X060900Y003858D02*
X026660Y003858D01*
X026660Y003740D02*
X058942Y003740D01*
X058640Y003621D02*
X026660Y003621D01*
X026660Y003503D02*
X058461Y003503D01*
X058312Y003384D02*
X026660Y003384D01*
X026660Y003266D02*
X058177Y003266D01*
X058096Y003147D02*
X026660Y003147D01*
X026660Y003029D02*
X058015Y003029D01*
X057935Y002910D02*
X026660Y002910D01*
X026660Y002791D02*
X057887Y002791D01*
X057850Y002673D02*
X026660Y002673D01*
X026660Y002554D02*
X057814Y002554D01*
X057777Y002436D02*
X026660Y002436D01*
X026660Y002317D02*
X057769Y002317D01*
X057769Y002199D02*
X026660Y002199D01*
X026660Y002080D02*
X057769Y002080D01*
X057769Y001962D02*
X026660Y001962D01*
X026660Y001843D02*
X057790Y001843D01*
X057826Y001725D02*
X026660Y001725D01*
X026660Y001606D02*
X057863Y001606D01*
X057900Y001488D02*
X026660Y001488D01*
X026660Y001369D02*
X057962Y001369D01*
X058043Y001251D02*
X026660Y001251D01*
X026660Y001132D02*
X058124Y001132D01*
X058193Y001031D02*
X058193Y001031D01*
X058214Y001014D02*
X026660Y001014D01*
X026660Y000895D02*
X058363Y000895D01*
X058512Y000777D02*
X026660Y000777D01*
X035050Y007058D02*
X035070Y007058D01*
X035070Y007176D02*
X035050Y007176D01*
X035050Y007295D02*
X035070Y007295D01*
X035070Y007413D02*
X035050Y007413D01*
X035050Y007532D02*
X035070Y007532D01*
X035070Y007650D02*
X035050Y007650D01*
X036295Y007058D02*
X036528Y007058D01*
X036467Y007176D02*
X036353Y007176D01*
X036746Y007176D02*
X036783Y007176D01*
X036783Y007058D02*
X036746Y007058D01*
X036746Y007295D02*
X036783Y007295D01*
X036783Y007532D02*
X036746Y007532D01*
X036746Y007650D02*
X036783Y007650D01*
X036783Y007769D02*
X036746Y007769D01*
X027935Y011087D02*
X027635Y011087D01*
X027185Y011087D02*
X026931Y011087D01*
X026943Y011205D02*
X026903Y011205D01*
X059866Y003740D02*
X060900Y003740D01*
X060900Y003621D02*
X060162Y003621D01*
X060368Y003503D02*
X060900Y003503D01*
X060900Y003384D02*
X060514Y003384D01*
X060623Y003266D02*
X060900Y003266D01*
X060900Y003147D02*
X060733Y003147D01*
X060814Y003029D02*
X060900Y003029D01*
X060900Y002910D02*
X060871Y002910D01*
D61*
X027410Y011360D02*
X027085Y011360D01*
X026985Y011460D01*
X026660Y011460D01*
X026660Y010860D02*
X026660Y010598D01*
X026541Y010479D01*
X026541Y009960D01*
X026191Y009610D01*
X026191Y004063D01*
X025688Y003560D01*
X003988Y003560D01*
X003388Y004160D01*
X003388Y012160D01*
X003788Y012360D02*
X003788Y004360D01*
X004188Y003960D01*
X025488Y003960D01*
X025788Y004260D01*
X025788Y012560D01*
X025388Y012960D01*
X025388Y020360D01*
X024888Y020860D01*
X004588Y020860D01*
X004188Y020460D01*
X004188Y012760D01*
X004588Y012360D01*
X004588Y005060D01*
X004888Y004760D01*
X024788Y004760D01*
X024988Y004960D01*
X024988Y013060D01*
X024988Y013260D02*
X024988Y013660D01*
X024988Y014060D01*
X024988Y014260D02*
X024988Y020160D01*
X024688Y020460D01*
X004888Y020460D01*
X004588Y020160D01*
X004588Y012960D01*
X003788Y012960D02*
X003788Y020660D01*
X004388Y021260D01*
X025188Y021260D01*
X025788Y020660D01*
X025788Y013110D01*
X025388Y012410D02*
X025388Y004560D01*
X025188Y004360D01*
X004488Y004360D01*
X004188Y004660D01*
X004188Y012160D01*
X003788Y012360D02*
X003388Y012760D01*
X003388Y020860D01*
X004188Y021660D01*
X025488Y021660D01*
X026191Y020957D01*
X026191Y015653D01*
X026541Y015303D01*
X026541Y014841D01*
X026660Y014723D01*
X026660Y014460D01*
X026660Y013860D02*
X026985Y013860D01*
X027085Y013960D01*
X027410Y013960D01*
D62*
X028160Y013960D01*
X028910Y013960D01*
X029660Y013960D01*
X029660Y013360D02*
X028910Y013360D01*
X029660Y013360D02*
X030410Y013360D01*
X030888Y013360D01*
X031171Y013643D01*
X031388Y013853D02*
X031581Y013660D01*
X032575Y013660D01*
X033245Y013660D02*
X033285Y013660D01*
X034297Y012648D01*
X034823Y012648D01*
X034823Y012451D02*
X033306Y012451D01*
X033264Y012410D01*
X034129Y012254D02*
X033285Y011410D01*
X032870Y011410D01*
X032200Y011410D02*
X031388Y011410D01*
X031388Y010060D01*
X031488Y010160D01*
X032360Y010160D01*
X032960Y010160D02*
X032960Y009898D01*
X032710Y009648D01*
X032710Y009410D01*
X032410Y009098D02*
X033398Y009098D01*
X033910Y009610D01*
X034223Y009923D01*
X034223Y010860D01*
X034823Y011461D01*
X034823Y011467D01*
X034819Y011660D02*
X034348Y011660D01*
X033473Y010785D01*
X033473Y010410D01*
X033673Y010210D01*
X033910Y010210D01*
X033473Y010785D02*
X033460Y010785D01*
X033910Y009660D02*
X033910Y009610D01*
X034860Y009386D02*
X034932Y009457D01*
X035054Y009580D01*
X035180Y009580D01*
X035705Y010105D01*
X035705Y011176D01*
X035902Y011176D02*
X035902Y010678D01*
X036140Y010440D01*
X036311Y010440D01*
X036388Y010363D01*
X036466Y010285D01*
X036598Y010285D01*
X036973Y009910D01*
X036973Y008910D01*
X036723Y008660D01*
X036710Y008660D01*
X034860Y008660D02*
X034860Y009386D01*
X032410Y009098D02*
X032110Y009398D01*
X032110Y009410D01*
X031388Y010060D02*
X031388Y010060D01*
X031388Y011410D02*
X030838Y011960D01*
X030410Y011960D01*
X029660Y011960D01*
X028910Y011960D01*
X028910Y011360D02*
X028160Y011360D01*
X027410Y011360D01*
X028910Y011360D02*
X029660Y011360D01*
X029610Y011410D01*
X026541Y009960D02*
X026535Y009966D01*
X034129Y012254D02*
X034823Y012254D01*
X034823Y011664D02*
X034819Y011660D01*
X037178Y011861D02*
X037361Y011861D01*
X037660Y012160D01*
X037648Y012648D02*
X037178Y012648D01*
X037178Y012845D02*
X037533Y012845D01*
X037660Y012973D01*
X037660Y013660D01*
X037410Y013910D01*
X037410Y016160D01*
X037910Y016660D01*
X036910Y016660D02*
X036410Y016160D01*
X034160Y016160D01*
X033910Y015910D01*
X033410Y015910D01*
X033764Y015139D02*
X033764Y014660D01*
X034160Y014660D01*
X034535Y014285D01*
X034910Y014285D01*
X034910Y013910D01*
X035115Y013705D01*
X035115Y013530D01*
X035312Y013530D01*
X035705Y013530D02*
X035705Y013955D01*
X035910Y014160D01*
X035920Y015170D02*
X035920Y015650D01*
X035660Y015910D01*
X034535Y015910D01*
X033764Y015139D01*
X036910Y016660D02*
X036910Y018160D01*
X036660Y018410D01*
X036660Y021160D01*
X033410Y022410D02*
X033410Y023860D01*
X033360Y023910D01*
X033160Y024410D02*
X034410Y024410D01*
X034660Y024660D01*
X034660Y025610D01*
X034610Y025660D01*
X035205Y025665D02*
X035210Y025660D01*
X033160Y024410D02*
X032660Y023910D01*
X032660Y021160D01*
X037910Y015660D02*
X037910Y012910D01*
X037648Y012648D01*
D63*
X051804Y025160D02*
X054410Y025160D01*
M02*
