%
M48
M72
T01C0.0157
T02C0.0320
T03C0.0354
T04C0.0394
T05C0.0400
T06C0.0512
T07C0.0642
T08C0.1181
T09C0.1280
%
T01
X3388Y12160
X4188Y12160
X4588Y12960
X3788Y12960
X24988Y13660
X25788Y13110
X25388Y12410
X26532Y12641
X30410Y15910
X33410Y15910
X34910Y14285
X35910Y14160
X37910Y15660
X37910Y16660
X37910Y17660
X30816Y20535
X29410Y20410
X33410Y22410
X37660Y12160
T02
X31910Y22660
X30910Y22660
X42960Y31410
X44860Y31410
X47210Y30410
X49110Y30410
T03
X49910Y33660
X49910Y34660
X50910Y34660
X51910Y34660
X51910Y33660
X50910Y33660
X35160Y33160
X34160Y33160
X54160Y10660
X53160Y10160
X54160Y9660
X53160Y9160
X54160Y8660
X54160Y7660
X53160Y7160
X53160Y6160
X54160Y6660
X53160Y8160
T04
X55010Y20660
X57410Y20660
X56210Y22560
T05
X36660Y21160
X33660Y21160
X39660Y34410
X40660Y34410
X41660Y34410
X42660Y34410
X43660Y34410
X44660Y34410
X58266Y11018
X58266Y10018
X58266Y6802
X58266Y5802
T06
X56410Y25160
X54410Y25160
T07
X55459Y11459
X55459Y5361
T08
X2410Y2160
X2410Y25410
X59410Y25410
X59410Y2160
T09
X56660Y6160
X56660Y10660
M30
