G75*
G70*
%OFA0B0*%
%FSLAX24Y24*%
%IPPOS*%
%LPD*%
%AMOC8*
5,1,8,0,0,1.08239X$1,22.5*
%
%ADD10R,0.1635X0.1635*%
%ADD11C,0.0158*%
%ADD12R,0.0493X0.0454*%
%ADD13R,0.0847X0.0847*%
%ADD14C,0.1241*%
%ADD15R,0.0360X0.0360*%
%ADD16R,0.0560X0.0560*%
%ADD17R,0.0808X0.0493*%
%ADD18R,0.0375X0.0532*%
%ADD19R,0.0300X0.0930*%
%ADD20OC8,0.0690*%
%ADD21C,0.0690*%
%ADD22R,0.1910X0.0749*%
%ADD23R,0.1005X0.1005*%
%ADD24R,0.0690X0.1123*%
%ADD25R,0.0611X0.0336*%
%ADD26R,0.1753X0.2029*%
%ADD27C,0.1560*%
%ADD28OC8,0.0910*%
%ADD29R,0.0414X0.0375*%
%ADD30R,0.0650X0.0850*%
%ADD31R,0.1560X0.0850*%
%ADD32C,0.0847*%
%ADD33R,0.0229X0.0170*%
%ADD34R,0.0690X0.0158*%
%ADD35R,0.0158X0.0690*%
%ADD36C,0.0500*%
%ADD37C,0.0454*%
%ADD38R,0.0574X0.0574*%
%ADD39C,0.0574*%
%ADD40C,0.0620*%
%ADD41OC8,0.0862*%
%ADD42C,0.1340*%
%ADD43R,0.0454X0.0454*%
%ADD44R,0.0375X0.0414*%
%ADD45R,0.0560X0.0280*%
%ADD46R,0.0280X0.0560*%
%ADD47R,0.0454X0.0336*%
%ADD48R,0.0296X0.0336*%
%ADD49C,0.0540*%
%ADD50R,0.0760X0.0760*%
%ADD51OC8,0.0760*%
%ADD52C,0.0800*%
%ADD53R,0.0308X0.0387*%
%ADD54C,0.0820*%
%ADD55R,0.0320X0.0860*%
%ADD56R,0.0651X0.0336*%
%ADD57R,0.0611X0.0769*%
%ADD58R,0.0808X0.0611*%
%ADD59C,0.0417*%
D10*
X036001Y012353D03*
D11*
X037030Y012451D02*
X037326Y012451D01*
X037326Y012254D02*
X037030Y012254D01*
X037030Y012058D02*
X037326Y012058D01*
X037326Y011861D02*
X037030Y011861D01*
X037030Y011664D02*
X037326Y011664D01*
X037326Y011467D02*
X037030Y011467D01*
X036886Y011324D02*
X036886Y011028D01*
X036690Y011028D02*
X036690Y011324D01*
X036493Y011324D02*
X036493Y011028D01*
X036296Y011028D02*
X036296Y011324D01*
X036099Y011324D02*
X036099Y011028D01*
X035902Y011028D02*
X035902Y011324D01*
X035705Y011324D02*
X035705Y011028D01*
X035508Y011028D02*
X035508Y011324D01*
X035312Y011324D02*
X035312Y011028D01*
X035115Y011028D02*
X035115Y011324D01*
X034971Y011467D02*
X034675Y011467D01*
X034675Y011664D02*
X034971Y011664D01*
X034971Y011861D02*
X034675Y011861D01*
X034675Y012058D02*
X034971Y012058D01*
X034971Y012254D02*
X034675Y012254D01*
X034675Y012451D02*
X034971Y012451D01*
X034971Y012648D02*
X034675Y012648D01*
X034675Y012845D02*
X034971Y012845D01*
X034971Y013042D02*
X034675Y013042D01*
X034675Y013239D02*
X034971Y013239D01*
X035115Y013382D02*
X035115Y013678D01*
X035312Y013678D02*
X035312Y013382D01*
X035508Y013382D02*
X035508Y013678D01*
X035705Y013678D02*
X035705Y013382D01*
X035902Y013382D02*
X035902Y013678D01*
X036099Y013678D02*
X036099Y013382D01*
X036296Y013382D02*
X036296Y013678D01*
X036493Y013678D02*
X036493Y013382D01*
X036690Y013382D02*
X036690Y013678D01*
X036886Y013678D02*
X036886Y013382D01*
X037030Y013239D02*
X037326Y013239D01*
X037326Y013042D02*
X037030Y013042D01*
X037030Y012845D02*
X037326Y012845D01*
X037326Y012648D02*
X037030Y012648D01*
D12*
X033245Y013660D03*
X032575Y013660D03*
X032870Y011410D03*
X032200Y011410D03*
D13*
X031388Y011410D03*
X031388Y012631D03*
X031388Y013853D03*
X026543Y012631D03*
X026541Y009960D03*
X031388Y010060D03*
X026541Y015303D03*
D14*
X002410Y002160D03*
X002410Y025410D03*
X059410Y025410D03*
X059410Y002160D03*
D15*
X037623Y010860D03*
X037623Y011460D03*
X033910Y010210D03*
X033460Y010785D03*
X032860Y010785D03*
X032960Y010160D03*
X032360Y010160D03*
X032110Y009410D03*
X032710Y009410D03*
X033910Y009610D03*
X034860Y008660D03*
X035460Y008660D03*
X036110Y008660D03*
X036710Y008660D03*
X034210Y007410D03*
X033610Y007410D03*
X033210Y007410D03*
X032610Y007410D03*
X032710Y008410D03*
X032110Y008410D03*
X031460Y008410D03*
X030860Y008410D03*
X026660Y010860D03*
X026660Y011460D03*
X027410Y011360D03*
X028160Y011360D03*
X028160Y011960D03*
X027410Y011960D03*
X027410Y013360D03*
X028160Y013360D03*
X028160Y013960D03*
X027410Y013960D03*
X026660Y013860D03*
X026660Y014460D03*
X028910Y013960D03*
X029660Y013960D03*
X030410Y013960D03*
X030410Y013360D03*
X029660Y013360D03*
X028910Y013360D03*
X028910Y011960D03*
X029660Y011960D03*
X030410Y011960D03*
X030410Y011360D03*
X029660Y011360D03*
X028910Y011360D03*
X030610Y019160D03*
X031210Y019160D03*
X033610Y019560D03*
X034210Y019560D03*
X035110Y019910D03*
X035710Y019910D03*
X031210Y021160D03*
X030610Y021160D03*
X033360Y023910D03*
X033960Y023910D03*
X034210Y025410D03*
X034610Y025660D03*
X035210Y025660D03*
X033610Y025410D03*
X033710Y026410D03*
X033110Y026410D03*
X032460Y026410D03*
X031860Y026410D03*
X033860Y029160D03*
X034460Y029160D03*
X034860Y029410D03*
X035460Y029410D03*
X037360Y028910D03*
X037960Y028910D03*
X038860Y028160D03*
X039460Y028160D03*
X039710Y028660D03*
X039110Y028660D03*
X038960Y031160D03*
X038360Y031160D03*
X038460Y032410D03*
X037860Y032410D03*
X040610Y032660D03*
X041210Y032660D03*
X041210Y031660D03*
X040610Y031660D03*
X043110Y031160D03*
X043710Y031160D03*
X044660Y029960D03*
X044660Y029360D03*
X043910Y028960D03*
X043910Y028360D03*
X048860Y028660D03*
X049460Y028660D03*
X050360Y029410D03*
X050960Y029410D03*
X051860Y029410D03*
X052460Y029410D03*
X052860Y029160D03*
X053460Y029160D03*
X053710Y029910D03*
X053110Y029910D03*
X053110Y031160D03*
X053710Y031160D03*
X053860Y031910D03*
X053460Y032160D03*
X052860Y032160D03*
X054460Y031910D03*
X055110Y031160D03*
X055710Y031160D03*
X057360Y031410D03*
X057960Y031410D03*
X058210Y032160D03*
X057610Y032160D03*
X055710Y032910D03*
X055110Y032910D03*
X056360Y033410D03*
X056960Y033410D03*
X055710Y034410D03*
X055110Y034410D03*
X049210Y032160D03*
X048610Y032160D03*
X047960Y032410D03*
X047360Y032410D03*
X047210Y033160D03*
X046610Y033160D03*
X046710Y033660D03*
X046110Y033660D03*
X047860Y033910D03*
X048460Y033910D03*
X048710Y034910D03*
X048110Y034910D03*
X056110Y029160D03*
X056710Y029160D03*
X057860Y030160D03*
X058460Y030160D03*
X036210Y034410D03*
X035610Y034410D03*
X035460Y034660D03*
X034860Y034660D03*
X032210Y032410D03*
X032360Y031910D03*
X032960Y031910D03*
X033610Y031660D03*
X034110Y031410D03*
X034210Y031660D03*
X034360Y032160D03*
X034960Y032160D03*
X034710Y031410D03*
X034710Y030910D03*
X034110Y030910D03*
X033210Y030660D03*
X032960Y030410D03*
X032610Y030660D03*
X032360Y030410D03*
X031960Y031160D03*
X031360Y031160D03*
X030960Y030910D03*
X030710Y030410D03*
X030110Y030410D03*
X030360Y030910D03*
X030360Y029910D03*
X030960Y029910D03*
X032610Y029660D03*
X033210Y029660D03*
X031460Y031910D03*
X031610Y032410D03*
X030960Y032160D03*
X030860Y031910D03*
X030360Y032160D03*
D16*
X035110Y018660D03*
X035910Y018660D03*
X035460Y007360D03*
X034660Y007360D03*
D17*
X034932Y009457D03*
X034932Y010363D03*
X036388Y010363D03*
X036388Y009457D03*
D18*
X034014Y008160D03*
X033306Y008160D03*
X036056Y007410D03*
X036764Y007410D03*
X033264Y012410D03*
X032556Y012410D03*
X033056Y014660D03*
X033764Y014660D03*
X034056Y017160D03*
X034764Y017160D03*
X051806Y030910D03*
X052514Y030910D03*
X058306Y028910D03*
X059014Y028910D03*
X047014Y034910D03*
X046306Y034910D03*
D19*
X029910Y021440D03*
X029410Y021440D03*
X028910Y021440D03*
X028410Y021440D03*
X028410Y019380D03*
X028910Y019380D03*
X029410Y019380D03*
X029910Y019380D03*
D20*
X031910Y022660D03*
D21*
X030910Y022660D03*
D22*
X028910Y018160D03*
X028910Y015778D03*
D23*
X031294Y017910D03*
X033026Y017910D03*
D24*
X032461Y015910D03*
X031359Y015910D03*
X029461Y022910D03*
X028359Y022910D03*
D25*
X050367Y024410D03*
X050367Y024910D03*
X050367Y025410D03*
X050367Y025910D03*
D26*
X051804Y025160D03*
D27*
X054410Y025160D03*
X056410Y025160D03*
D28*
X036660Y021160D03*
X033660Y021160D03*
D29*
X032343Y020160D03*
X031516Y019786D03*
X031516Y020534D03*
D30*
X035020Y015170D03*
X035920Y015170D03*
X036820Y015170D03*
D31*
X035910Y017650D03*
D32*
X055010Y020266D02*
X055010Y021054D01*
X055816Y022560D02*
X056604Y022560D01*
X057410Y021054D02*
X057410Y020266D01*
D33*
X024988Y014260D03*
X024988Y014060D03*
X024988Y013260D03*
X024988Y013060D03*
D34*
X046205Y009906D03*
X046205Y009749D03*
X046205Y009591D03*
X046205Y009434D03*
X046205Y009276D03*
X046205Y009119D03*
X046205Y008961D03*
X046205Y008804D03*
X046205Y008646D03*
X046205Y008489D03*
X046205Y008331D03*
X046205Y008174D03*
X046205Y008016D03*
X046205Y007859D03*
X046205Y007701D03*
X046205Y007544D03*
X046205Y007386D03*
X046205Y007229D03*
X046205Y007071D03*
X046205Y006914D03*
X050615Y006914D03*
X050615Y007071D03*
X050615Y007229D03*
X050615Y007386D03*
X050615Y007544D03*
X050615Y007701D03*
X050615Y007859D03*
X050615Y008016D03*
X050615Y008174D03*
X050615Y008331D03*
X050615Y008489D03*
X050615Y008646D03*
X050615Y008804D03*
X050615Y008961D03*
X050615Y009119D03*
X050615Y009276D03*
X050615Y009434D03*
X050615Y009591D03*
X050615Y009749D03*
X050615Y009906D03*
D35*
X049906Y010615D03*
X049749Y010615D03*
X049591Y010615D03*
X049434Y010615D03*
X049276Y010615D03*
X049119Y010615D03*
X048961Y010615D03*
X048804Y010615D03*
X048646Y010615D03*
X048489Y010615D03*
X048331Y010615D03*
X048174Y010615D03*
X048016Y010615D03*
X047859Y010615D03*
X047701Y010615D03*
X047544Y010615D03*
X047386Y010615D03*
X047229Y010615D03*
X047071Y010615D03*
X046914Y010615D03*
X046914Y006205D03*
X047071Y006205D03*
X047229Y006205D03*
X047386Y006205D03*
X047544Y006205D03*
X047701Y006205D03*
X047859Y006205D03*
X048016Y006205D03*
X048174Y006205D03*
X048331Y006205D03*
X048489Y006205D03*
X048646Y006205D03*
X048804Y006205D03*
X048961Y006205D03*
X049119Y006205D03*
X049276Y006205D03*
X049434Y006205D03*
X049591Y006205D03*
X049749Y006205D03*
X049906Y006205D03*
D36*
X041806Y028910D02*
X041808Y028947D01*
X041814Y028984D01*
X041823Y029019D01*
X041837Y029054D01*
X041853Y029087D01*
X041874Y029118D01*
X041897Y029147D01*
X041923Y029173D01*
X041952Y029196D01*
X041983Y029217D01*
X042016Y029233D01*
X042051Y029247D01*
X042086Y029256D01*
X042123Y029262D01*
X042160Y029264D01*
X042197Y029262D01*
X042234Y029256D01*
X042269Y029247D01*
X042304Y029233D01*
X042337Y029217D01*
X042368Y029196D01*
X042397Y029173D01*
X042423Y029147D01*
X042446Y029118D01*
X042467Y029087D01*
X042483Y029054D01*
X042497Y029019D01*
X042506Y028984D01*
X042512Y028947D01*
X042514Y028910D01*
X042512Y028873D01*
X042506Y028836D01*
X042497Y028801D01*
X042483Y028766D01*
X042467Y028733D01*
X042446Y028702D01*
X042423Y028673D01*
X042397Y028647D01*
X042368Y028624D01*
X042337Y028603D01*
X042304Y028587D01*
X042269Y028573D01*
X042234Y028564D01*
X042197Y028558D01*
X042160Y028556D01*
X042123Y028558D01*
X042086Y028564D01*
X042051Y028573D01*
X042016Y028587D01*
X041983Y028603D01*
X041952Y028624D01*
X041923Y028647D01*
X041897Y028673D01*
X041874Y028702D01*
X041853Y028733D01*
X041837Y028766D01*
X041823Y028801D01*
X041814Y028836D01*
X041808Y028873D01*
X041806Y028910D01*
X050306Y030410D02*
X050308Y030447D01*
X050314Y030484D01*
X050323Y030519D01*
X050337Y030554D01*
X050353Y030587D01*
X050374Y030618D01*
X050397Y030647D01*
X050423Y030673D01*
X050452Y030696D01*
X050483Y030717D01*
X050516Y030733D01*
X050551Y030747D01*
X050586Y030756D01*
X050623Y030762D01*
X050660Y030764D01*
X050697Y030762D01*
X050734Y030756D01*
X050769Y030747D01*
X050804Y030733D01*
X050837Y030717D01*
X050868Y030696D01*
X050897Y030673D01*
X050923Y030647D01*
X050946Y030618D01*
X050967Y030587D01*
X050983Y030554D01*
X050997Y030519D01*
X051006Y030484D01*
X051012Y030447D01*
X051014Y030410D01*
X051012Y030373D01*
X051006Y030336D01*
X050997Y030301D01*
X050983Y030266D01*
X050967Y030233D01*
X050946Y030202D01*
X050923Y030173D01*
X050897Y030147D01*
X050868Y030124D01*
X050837Y030103D01*
X050804Y030087D01*
X050769Y030073D01*
X050734Y030064D01*
X050697Y030058D01*
X050660Y030056D01*
X050623Y030058D01*
X050586Y030064D01*
X050551Y030073D01*
X050516Y030087D01*
X050483Y030103D01*
X050452Y030124D01*
X050423Y030147D01*
X050397Y030173D01*
X050374Y030202D01*
X050353Y030233D01*
X050337Y030266D01*
X050323Y030301D01*
X050314Y030336D01*
X050308Y030373D01*
X050306Y030410D01*
X056306Y030660D02*
X056308Y030697D01*
X056314Y030734D01*
X056323Y030769D01*
X056337Y030804D01*
X056353Y030837D01*
X056374Y030868D01*
X056397Y030897D01*
X056423Y030923D01*
X056452Y030946D01*
X056483Y030967D01*
X056516Y030983D01*
X056551Y030997D01*
X056586Y031006D01*
X056623Y031012D01*
X056660Y031014D01*
X056697Y031012D01*
X056734Y031006D01*
X056769Y030997D01*
X056804Y030983D01*
X056837Y030967D01*
X056868Y030946D01*
X056897Y030923D01*
X056923Y030897D01*
X056946Y030868D01*
X056967Y030837D01*
X056983Y030804D01*
X056997Y030769D01*
X057006Y030734D01*
X057012Y030697D01*
X057014Y030660D01*
X057012Y030623D01*
X057006Y030586D01*
X056997Y030551D01*
X056983Y030516D01*
X056967Y030483D01*
X056946Y030452D01*
X056923Y030423D01*
X056897Y030397D01*
X056868Y030374D01*
X056837Y030353D01*
X056804Y030337D01*
X056769Y030323D01*
X056734Y030314D01*
X056697Y030308D01*
X056660Y030306D01*
X056623Y030308D01*
X056586Y030314D01*
X056551Y030323D01*
X056516Y030337D01*
X056483Y030353D01*
X056452Y030374D01*
X056423Y030397D01*
X056397Y030423D01*
X056374Y030452D01*
X056353Y030483D01*
X056337Y030516D01*
X056323Y030551D01*
X056314Y030586D01*
X056308Y030623D01*
X056306Y030660D01*
D37*
X056660Y030660D03*
X050660Y030410D03*
X042160Y028910D03*
D38*
X053160Y006160D03*
D39*
X053160Y007160D03*
X054160Y007660D03*
X054160Y008660D03*
X053160Y009160D03*
X054160Y009660D03*
X053160Y010160D03*
X054160Y010660D03*
X053160Y008160D03*
X054160Y006660D03*
D40*
X058266Y006802D03*
X058266Y005802D03*
X058266Y010018D03*
X058266Y011018D03*
D41*
X055459Y011459D03*
X055459Y005361D03*
D42*
X056660Y006160D03*
X056660Y010660D03*
D43*
X045054Y029410D03*
X044266Y029410D03*
X037554Y034660D03*
X036766Y034660D03*
D44*
X053286Y033766D03*
X054034Y033766D03*
X053660Y034593D03*
D45*
X049850Y017012D03*
X049850Y016697D03*
X049850Y016382D03*
X049850Y016067D03*
X049850Y015753D03*
X049850Y015438D03*
X049850Y015123D03*
X049850Y014808D03*
X046470Y014808D03*
X046470Y015123D03*
X046470Y015438D03*
X046470Y015753D03*
X046470Y016067D03*
X046470Y016382D03*
X046470Y016697D03*
X046470Y017012D03*
D46*
X047058Y017600D03*
X047373Y017600D03*
X047688Y017600D03*
X048003Y017600D03*
X048317Y017600D03*
X048632Y017600D03*
X048947Y017600D03*
X049262Y017600D03*
X049262Y014220D03*
X048947Y014220D03*
X048632Y014220D03*
X048317Y014220D03*
X048003Y014220D03*
X047688Y014220D03*
X047373Y014220D03*
X047058Y014220D03*
D47*
X054365Y029516D03*
D48*
X055034Y029516D03*
X055034Y030304D03*
X054286Y030304D03*
D49*
X049110Y030410D03*
X047210Y030410D03*
X044860Y031410D03*
X042960Y031410D03*
D50*
X049910Y033660D03*
D51*
X049910Y034660D03*
X050910Y034660D03*
X051910Y034660D03*
X051910Y033660D03*
X050910Y033660D03*
D52*
X044660Y034040D02*
X044660Y034780D01*
X043660Y034780D02*
X043660Y034040D01*
X042660Y034040D02*
X042660Y034780D01*
X041660Y034780D02*
X041660Y034040D01*
X040660Y034040D02*
X040660Y034780D01*
X039660Y034780D02*
X039660Y034040D01*
D53*
X051457Y032160D03*
X052363Y032160D03*
D54*
X035160Y033160D03*
X034160Y033160D03*
D55*
X036410Y032620D03*
X036910Y032620D03*
X037410Y032620D03*
X037910Y032620D03*
X038410Y032620D03*
X038910Y032620D03*
X039410Y032620D03*
X039910Y032620D03*
X039910Y030200D03*
X039410Y030200D03*
X038910Y030200D03*
X038410Y030200D03*
X037910Y030200D03*
X037410Y030200D03*
X036910Y030200D03*
X036410Y030200D03*
D56*
X058599Y016203D03*
X058441Y015770D03*
X058599Y015337D03*
X058756Y014904D03*
X058599Y014471D03*
X058756Y014038D03*
X058599Y013605D03*
X058599Y013172D03*
D57*
X054583Y013447D03*
X054583Y015810D03*
D58*
X060095Y018014D03*
X059741Y012817D03*
D59*
X037910Y015660D03*
X037910Y016660D03*
X037910Y017660D03*
X033410Y015910D03*
X034910Y014285D03*
X035910Y014160D03*
X037660Y012160D03*
X030410Y015910D03*
X025788Y013110D03*
X025388Y012410D03*
X026532Y012641D03*
X024988Y013660D03*
X029410Y020410D03*
X030816Y020535D03*
X033410Y022410D03*
X004588Y012960D03*
X003788Y012960D03*
X004188Y012160D03*
X003388Y012160D03*
M02*
