G75*
G70*
%OFA0B0*%
%FSLAX24Y24*%
%IPPOS*%
%LPD*%
%AMOC8*
5,1,8,0,0,1.08239X$1,22.5*
%
%ADD10C,0.0040*%
%ADD11C,0.0050*%
%ADD12C,0.0120*%
%ADD13C,0.0060*%
%ADD14C,0.0080*%
%ADD15C,0.0100*%
%ADD16R,0.0118X0.0118*%
%ADD17C,0.0160*%
%ADD18C,0.0070*%
%ADD19C,0.0150*%
%ADD20C,0.0059*%
D10*
X025352Y009280D02*
X025352Y009587D01*
X025352Y009740D02*
X025812Y010047D01*
X025812Y010201D02*
X025505Y010508D01*
X025428Y010508D01*
X025352Y010431D01*
X025352Y010278D01*
X025428Y010201D01*
X025352Y010047D02*
X025812Y009740D01*
X025812Y009433D02*
X025352Y009433D01*
X025812Y010201D02*
X025812Y010508D01*
X025819Y010978D02*
X025819Y011209D01*
X025742Y011285D01*
X025589Y011285D01*
X025512Y011209D01*
X025512Y010978D01*
X025973Y010978D01*
X025819Y011132D02*
X025973Y011285D01*
X025742Y011439D02*
X025742Y011746D01*
X025512Y011669D02*
X025973Y011669D01*
X025742Y011439D02*
X025512Y011669D01*
X027109Y010634D02*
X027186Y010711D01*
X027493Y010404D01*
X027570Y010481D01*
X027570Y010634D01*
X027493Y010711D01*
X027186Y010711D01*
X027109Y010634D02*
X027109Y010481D01*
X027186Y010404D01*
X027493Y010404D01*
X027570Y010250D02*
X027570Y009944D01*
X027570Y010097D02*
X027109Y010097D01*
X027263Y009944D01*
X027186Y009790D02*
X027109Y009713D01*
X027109Y009560D01*
X027186Y009483D01*
X027493Y009483D01*
X027570Y009560D01*
X027570Y009713D01*
X027493Y009790D01*
X027908Y010058D02*
X027908Y010212D01*
X027984Y010289D01*
X027984Y010442D02*
X028061Y010442D01*
X028138Y010519D01*
X028138Y010672D01*
X028214Y010749D01*
X028291Y010749D01*
X028368Y010672D01*
X028368Y010519D01*
X028291Y010442D01*
X028214Y010442D01*
X028138Y010519D01*
X028138Y010672D02*
X028061Y010749D01*
X027984Y010749D01*
X027908Y010672D01*
X027908Y010519D01*
X027984Y010442D01*
X028291Y010289D02*
X028368Y010212D01*
X028368Y010058D01*
X028291Y009982D01*
X027984Y009982D01*
X027908Y010058D01*
X028706Y010058D02*
X028706Y010212D01*
X028783Y010289D01*
X028783Y010442D02*
X028706Y010519D01*
X028706Y010672D01*
X028783Y010749D01*
X028859Y010749D01*
X029166Y010442D01*
X029166Y010749D01*
X029504Y010749D02*
X029581Y010595D01*
X029735Y010442D01*
X029735Y010672D01*
X029811Y010749D01*
X029888Y010749D01*
X029965Y010672D01*
X029965Y010519D01*
X029888Y010442D01*
X029735Y010442D01*
X029888Y010289D02*
X029965Y010212D01*
X029965Y010058D01*
X029888Y009982D01*
X029581Y009982D01*
X029504Y010058D01*
X029504Y010212D01*
X029581Y010289D01*
X029166Y010212D02*
X029166Y010058D01*
X029090Y009982D01*
X028783Y009982D01*
X028706Y010058D01*
X029090Y010289D02*
X029166Y010212D01*
X030303Y010212D02*
X030303Y010058D01*
X030380Y009982D01*
X030686Y009982D01*
X030763Y010058D01*
X030763Y010212D01*
X030686Y010289D01*
X030533Y010442D02*
X030533Y010749D01*
X030303Y010672D02*
X030533Y010442D01*
X030380Y010289D02*
X030303Y010212D01*
X030303Y010672D02*
X030763Y010672D01*
X031952Y010780D02*
X031952Y011087D01*
X031952Y011240D02*
X032412Y011547D01*
X032412Y011701D02*
X032105Y012008D01*
X032028Y012008D01*
X031952Y011931D01*
X031952Y011778D01*
X032028Y011701D01*
X031952Y011547D02*
X032412Y011240D01*
X032412Y010933D02*
X031952Y010933D01*
X032412Y011701D02*
X032412Y012008D01*
X033208Y012140D02*
X033208Y011680D01*
X033515Y011680D01*
X033668Y011910D02*
X033975Y011910D01*
X033899Y011680D02*
X033899Y012140D01*
X033668Y011910D01*
X033699Y013380D02*
X033545Y013380D01*
X033468Y013457D01*
X033315Y013380D02*
X033008Y013380D01*
X033008Y013840D01*
X033468Y013764D02*
X033545Y013840D01*
X033699Y013840D01*
X033775Y013764D01*
X033775Y013687D01*
X033699Y013610D01*
X033775Y013533D01*
X033775Y013457D01*
X033699Y013380D01*
X033699Y013610D02*
X033622Y013610D01*
X032412Y013740D02*
X031952Y014047D01*
X032105Y014201D02*
X031952Y014354D01*
X032412Y014354D01*
X032412Y014201D02*
X032412Y014508D01*
X032412Y014047D02*
X031952Y013740D01*
X031952Y013587D02*
X031952Y013280D01*
X031952Y013433D02*
X032412Y013433D01*
X030665Y014554D02*
X030665Y014707D01*
X030588Y014784D01*
X030588Y014937D02*
X030665Y015014D01*
X030665Y015167D01*
X030588Y015244D01*
X030511Y015244D01*
X030435Y015167D01*
X030435Y015091D01*
X030435Y015167D02*
X030358Y015244D01*
X030281Y015244D01*
X030204Y015167D01*
X030204Y015014D01*
X030281Y014937D01*
X030281Y014784D02*
X030204Y014707D01*
X030204Y014554D01*
X030281Y014477D01*
X030588Y014477D01*
X030665Y014554D01*
X029965Y014554D02*
X029965Y014707D01*
X029888Y014784D01*
X029888Y014937D02*
X029965Y015014D01*
X029965Y015167D01*
X029888Y015244D01*
X029735Y015244D01*
X029658Y015167D01*
X029658Y015091D01*
X029735Y014937D01*
X029504Y014937D01*
X029504Y015244D01*
X029165Y015244D02*
X029165Y014937D01*
X029165Y015091D02*
X028704Y015091D01*
X028858Y014937D01*
X028781Y014784D02*
X028704Y014707D01*
X028704Y014554D01*
X028781Y014477D01*
X029088Y014477D01*
X029165Y014554D01*
X029165Y014707D01*
X029088Y014784D01*
X029504Y014707D02*
X029504Y014554D01*
X029581Y014477D01*
X029888Y014477D01*
X029965Y014554D01*
X029581Y014784D02*
X029504Y014707D01*
X028368Y014707D02*
X028291Y014784D01*
X028368Y014707D02*
X028368Y014554D01*
X028291Y014477D01*
X027984Y014477D01*
X027908Y014554D01*
X027908Y014707D01*
X027984Y014784D01*
X027908Y014937D02*
X027908Y015244D01*
X027984Y015244D01*
X028291Y014937D01*
X028368Y014937D01*
X027570Y015014D02*
X027570Y015167D01*
X027493Y015244D01*
X027186Y015244D01*
X027109Y015167D01*
X027109Y015014D01*
X027186Y014937D01*
X027263Y014937D01*
X027339Y015014D01*
X027339Y015244D01*
X027570Y015014D02*
X027493Y014937D01*
X027493Y014784D02*
X027570Y014707D01*
X027570Y014554D01*
X027493Y014477D01*
X027186Y014477D01*
X027109Y014554D01*
X027109Y014707D01*
X027186Y014784D01*
X026071Y014372D02*
X026071Y014219D01*
X025994Y014142D01*
X026071Y013989D02*
X025918Y013835D01*
X025918Y013912D02*
X025918Y013682D01*
X026071Y013682D02*
X025611Y013682D01*
X025611Y013912D01*
X025687Y013989D01*
X025841Y013989D01*
X025918Y013912D01*
X025687Y014142D02*
X025611Y014219D01*
X025611Y014372D01*
X025687Y014449D01*
X025764Y014449D01*
X025841Y014372D01*
X025918Y014449D01*
X025994Y014449D01*
X026071Y014372D01*
X025841Y014372D02*
X025841Y014295D01*
X025352Y014680D02*
X025352Y014987D01*
X025352Y015140D02*
X025812Y015447D01*
X025812Y015601D02*
X025812Y015908D01*
X025812Y015754D02*
X025352Y015754D01*
X025505Y015601D01*
X025352Y015447D02*
X025812Y015140D01*
X025812Y014833D02*
X025352Y014833D01*
X031270Y017160D02*
X033050Y017160D01*
X033050Y018660D02*
X031270Y018660D01*
X030870Y009149D02*
X030870Y008842D01*
X030563Y009149D01*
X030486Y009149D01*
X030409Y009072D01*
X030409Y008919D01*
X030486Y008842D01*
X030486Y008689D02*
X030639Y008689D01*
X030716Y008612D01*
X030716Y008382D01*
X030716Y008535D02*
X030870Y008689D01*
X030870Y008382D02*
X030409Y008382D01*
X030409Y008612D01*
X030486Y008689D01*
X056680Y008639D02*
X056910Y008409D01*
X056910Y008716D01*
X056910Y008870D02*
X056833Y009023D01*
X056833Y009100D01*
X056910Y009177D01*
X057063Y009177D01*
X057140Y009100D01*
X057140Y008946D01*
X057063Y008870D01*
X056910Y008870D02*
X056680Y008870D01*
X056680Y009177D01*
X056680Y008639D02*
X057140Y008639D01*
X057063Y008179D02*
X056680Y008179D01*
X056680Y008102D02*
X056680Y008256D01*
X057063Y008179D02*
X057140Y008102D01*
X057140Y008026D01*
X057063Y007949D01*
X057140Y007795D02*
X056987Y007642D01*
X056987Y007719D02*
X056987Y007488D01*
X057140Y007488D02*
X056680Y007488D01*
X056680Y007719D01*
X056756Y007795D01*
X056910Y007795D01*
X056987Y007719D01*
D11*
X059220Y012660D02*
X054426Y012660D01*
X054426Y012984D01*
X054426Y013910D02*
X054426Y015359D01*
X054426Y016285D02*
X054426Y018172D01*
X059558Y018172D01*
X059741Y017586D02*
X059741Y013267D01*
X060197Y012818D02*
X060238Y012820D01*
X060279Y012825D01*
X060319Y012834D01*
X060358Y012846D01*
X060396Y012862D01*
X060433Y012881D01*
X060468Y012903D01*
X060500Y012928D01*
X060531Y012956D01*
X060559Y012987D01*
X060584Y013019D01*
X060606Y013054D01*
X060625Y013091D01*
X060641Y013129D01*
X060653Y013168D01*
X060662Y013208D01*
X060667Y013249D01*
X060669Y013290D01*
X060670Y013290D02*
X060670Y016912D01*
X061024Y016912D02*
X061026Y016953D01*
X061024Y016994D01*
X061018Y017035D01*
X061009Y017076D01*
X060997Y017115D01*
X060981Y017153D01*
X060962Y017190D01*
X060939Y017224D01*
X060914Y017257D01*
X060886Y017288D01*
X060855Y017315D01*
X060822Y017340D01*
X060787Y017362D01*
X060751Y017381D01*
X060712Y017397D01*
X060673Y017409D01*
X060632Y017418D01*
X060591Y017423D01*
X060236Y017423D02*
X060277Y017418D01*
X060318Y017409D01*
X060357Y017397D01*
X060396Y017381D01*
X060432Y017362D01*
X060467Y017340D01*
X060500Y017315D01*
X060531Y017288D01*
X060559Y017257D01*
X060584Y017224D01*
X060607Y017190D01*
X060626Y017153D01*
X060642Y017115D01*
X060654Y017076D01*
X060663Y017035D01*
X060669Y016994D01*
X060671Y016953D01*
X060669Y016912D01*
X061024Y016912D02*
X061024Y013290D01*
X061022Y013249D01*
X061017Y013208D01*
X061008Y013168D01*
X060996Y013129D01*
X060980Y013091D01*
X060961Y013054D01*
X060939Y013019D01*
X060914Y012987D01*
X060886Y012956D01*
X060855Y012928D01*
X060823Y012903D01*
X060788Y012881D01*
X060751Y012862D01*
X060713Y012846D01*
X060674Y012834D01*
X060634Y012825D01*
X060593Y012820D01*
X060552Y012818D01*
X062048Y012818D02*
X062089Y012820D01*
X062130Y012825D01*
X062170Y012834D01*
X062209Y012846D01*
X062247Y012862D01*
X062284Y012881D01*
X062319Y012903D01*
X062351Y012928D01*
X062382Y012956D01*
X062410Y012987D01*
X062435Y013019D01*
X062457Y013054D01*
X062476Y013091D01*
X062492Y013129D01*
X062504Y013168D01*
X062513Y013208D01*
X062518Y013249D01*
X062520Y013290D01*
X062520Y016912D01*
X062522Y016953D01*
X062520Y016994D01*
X062514Y017035D01*
X062505Y017076D01*
X062493Y017115D01*
X062477Y017153D01*
X062458Y017190D01*
X062435Y017224D01*
X062410Y017257D01*
X062382Y017288D01*
X062351Y017315D01*
X062318Y017340D01*
X062283Y017362D01*
X062247Y017381D01*
X062208Y017397D01*
X062169Y017409D01*
X062128Y017418D01*
X062087Y017423D01*
X060710Y018910D02*
X060710Y022410D01*
X057048Y022410D01*
X055373Y022410D02*
X054760Y022410D01*
X054760Y021460D01*
X054760Y019860D02*
X054760Y018910D01*
X060710Y018910D01*
X045710Y010410D02*
X045712Y010438D01*
X045718Y010465D01*
X045727Y010491D01*
X045740Y010516D01*
X045757Y010539D01*
X045776Y010559D01*
X045798Y010576D01*
X045822Y010590D01*
X045848Y010600D01*
X045875Y010607D01*
X045903Y010610D01*
X045931Y010609D01*
X045958Y010604D01*
X045985Y010595D01*
X046010Y010583D01*
X046033Y010568D01*
X046054Y010549D01*
X046072Y010528D01*
X046087Y010504D01*
X046098Y010478D01*
X046106Y010452D01*
X046110Y010424D01*
X046110Y010396D01*
X046106Y010368D01*
X046098Y010342D01*
X046087Y010316D01*
X046072Y010292D01*
X046054Y010271D01*
X046033Y010252D01*
X046010Y010237D01*
X045985Y010225D01*
X045958Y010216D01*
X045931Y010211D01*
X045903Y010210D01*
X045875Y010213D01*
X045848Y010220D01*
X045822Y010230D01*
X045798Y010244D01*
X045776Y010261D01*
X045757Y010281D01*
X045740Y010304D01*
X045727Y010329D01*
X045718Y010355D01*
X045712Y010382D01*
X045710Y010410D01*
X037162Y011191D02*
X037039Y011191D01*
X037162Y011191D02*
X037162Y011314D01*
X034962Y011191D02*
X034839Y011191D01*
X034839Y011314D01*
X033165Y011134D02*
X031905Y011134D01*
X031905Y011686D01*
X033165Y011686D01*
X033165Y011134D01*
X031888Y010910D02*
X031888Y011910D01*
X030888Y011910D01*
X030888Y010910D01*
X031888Y010910D01*
X031888Y010560D02*
X030888Y010560D01*
X030888Y009560D01*
X031888Y009560D01*
X031888Y010560D01*
X031888Y012131D02*
X030888Y012131D01*
X030888Y013131D01*
X031888Y013131D01*
X031888Y012131D01*
X031888Y013353D02*
X030888Y013353D01*
X030888Y014353D01*
X031888Y014353D01*
X031888Y013353D01*
X032280Y013384D02*
X032280Y013936D01*
X033540Y013936D01*
X033540Y013384D01*
X032280Y013384D01*
X034839Y013391D02*
X034839Y013514D01*
X034962Y013514D01*
X037039Y013514D02*
X037162Y013514D01*
X037162Y013391D01*
X030347Y015404D02*
X029914Y015404D01*
X030347Y015404D02*
X030347Y018554D01*
X029914Y018554D01*
X027906Y018554D02*
X027473Y018554D01*
X027473Y015404D01*
X027906Y015404D01*
X027041Y015803D02*
X027041Y014803D01*
X026041Y014803D01*
X026041Y015803D01*
X027041Y015803D01*
X027043Y013131D02*
X026043Y013131D01*
X026043Y012131D01*
X027043Y012131D01*
X027043Y013131D01*
X027041Y010460D02*
X026041Y010460D01*
X026041Y009460D01*
X027041Y009460D01*
X027041Y010460D01*
D12*
X034577Y013707D02*
X034579Y013720D01*
X034584Y013733D01*
X034593Y013744D01*
X034604Y013751D01*
X034617Y013756D01*
X034630Y013757D01*
X034644Y013754D01*
X034656Y013748D01*
X034666Y013739D01*
X034673Y013727D01*
X034677Y013714D01*
X034677Y013700D01*
X034673Y013687D01*
X034666Y013675D01*
X034656Y013666D01*
X034644Y013660D01*
X034630Y013657D01*
X034617Y013658D01*
X034604Y013663D01*
X034593Y013670D01*
X034584Y013681D01*
X034579Y013694D01*
X034577Y013707D01*
D13*
X033528Y014424D02*
X033292Y014424D01*
X033292Y014896D02*
X033528Y014896D01*
X034680Y015729D02*
X037140Y015729D01*
X037140Y017091D01*
X034680Y017091D01*
X034680Y015729D01*
X034528Y016924D02*
X034292Y016924D01*
X034292Y017396D02*
X034528Y017396D01*
X035430Y018424D02*
X035590Y018424D01*
X035590Y018896D02*
X035430Y018896D01*
X034660Y021160D02*
X034662Y021204D01*
X034668Y021248D01*
X034678Y021291D01*
X034691Y021333D01*
X034708Y021374D01*
X034729Y021413D01*
X034753Y021450D01*
X034780Y021485D01*
X034810Y021517D01*
X034843Y021547D01*
X034879Y021573D01*
X034916Y021597D01*
X034956Y021616D01*
X034997Y021633D01*
X035040Y021645D01*
X035083Y021654D01*
X035127Y021659D01*
X035171Y021660D01*
X035215Y021657D01*
X035259Y021650D01*
X035302Y021639D01*
X035344Y021625D01*
X035384Y021607D01*
X035423Y021585D01*
X035459Y021561D01*
X035493Y021533D01*
X035525Y021502D01*
X035554Y021468D01*
X035580Y021432D01*
X035602Y021394D01*
X035621Y021354D01*
X035636Y021312D01*
X035648Y021270D01*
X035656Y021226D01*
X035660Y021182D01*
X035660Y021138D01*
X035656Y021094D01*
X035648Y021050D01*
X035636Y021008D01*
X035621Y020966D01*
X035602Y020926D01*
X035580Y020888D01*
X035554Y020852D01*
X035525Y020818D01*
X035493Y020787D01*
X035459Y020759D01*
X035423Y020735D01*
X035384Y020713D01*
X035344Y020695D01*
X035302Y020681D01*
X035259Y020670D01*
X035215Y020663D01*
X035171Y020660D01*
X035127Y020661D01*
X035083Y020666D01*
X035040Y020675D01*
X034997Y020687D01*
X034956Y020704D01*
X034916Y020723D01*
X034879Y020747D01*
X034843Y020773D01*
X034810Y020803D01*
X034780Y020835D01*
X034753Y020870D01*
X034729Y020907D01*
X034708Y020946D01*
X034691Y020987D01*
X034678Y021029D01*
X034668Y021072D01*
X034662Y021116D01*
X034660Y021160D01*
X032760Y021160D02*
X032763Y021278D01*
X032772Y021395D01*
X032786Y021512D01*
X032806Y021628D01*
X032832Y021743D01*
X032863Y021857D01*
X032900Y021969D01*
X032943Y022078D01*
X032990Y022186D01*
X033043Y022291D01*
X033101Y022394D01*
X033164Y022493D01*
X033232Y022590D01*
X033305Y022683D01*
X033382Y022772D01*
X033463Y022857D01*
X033548Y022938D01*
X033637Y023015D01*
X033730Y023088D01*
X033827Y023156D01*
X033926Y023219D01*
X034029Y023277D01*
X034134Y023330D01*
X034242Y023377D01*
X034351Y023420D01*
X034463Y023457D01*
X034577Y023488D01*
X034692Y023514D01*
X034808Y023534D01*
X034925Y023548D01*
X035042Y023557D01*
X035160Y023560D01*
X035278Y023557D01*
X035395Y023548D01*
X035512Y023534D01*
X035628Y023514D01*
X035743Y023488D01*
X035857Y023457D01*
X035969Y023420D01*
X036078Y023377D01*
X036186Y023330D01*
X036291Y023277D01*
X036394Y023219D01*
X036493Y023156D01*
X036590Y023088D01*
X036683Y023015D01*
X036772Y022938D01*
X036857Y022857D01*
X036938Y022772D01*
X037015Y022683D01*
X037088Y022590D01*
X037156Y022493D01*
X037219Y022394D01*
X037277Y022291D01*
X037330Y022186D01*
X037377Y022078D01*
X037420Y021969D01*
X037457Y021857D01*
X037488Y021743D01*
X037514Y021628D01*
X037534Y021512D01*
X037548Y021395D01*
X037557Y021278D01*
X037560Y021160D01*
X037557Y021042D01*
X037548Y020925D01*
X037534Y020808D01*
X037514Y020692D01*
X037488Y020577D01*
X037457Y020463D01*
X037420Y020351D01*
X037377Y020242D01*
X037330Y020134D01*
X037277Y020029D01*
X037219Y019926D01*
X037156Y019827D01*
X037088Y019730D01*
X037015Y019637D01*
X036938Y019548D01*
X036857Y019463D01*
X036772Y019382D01*
X036683Y019305D01*
X036590Y019232D01*
X036493Y019164D01*
X036394Y019101D01*
X036291Y019043D01*
X036186Y018990D01*
X036078Y018943D01*
X035969Y018900D01*
X035857Y018863D01*
X035743Y018832D01*
X035628Y018806D01*
X035512Y018786D01*
X035395Y018772D01*
X035278Y018763D01*
X035160Y018760D01*
X035042Y018763D01*
X034925Y018772D01*
X034808Y018786D01*
X034692Y018806D01*
X034577Y018832D01*
X034463Y018863D01*
X034351Y018900D01*
X034242Y018943D01*
X034134Y018990D01*
X034029Y019043D01*
X033926Y019101D01*
X033827Y019164D01*
X033730Y019232D01*
X033637Y019305D01*
X033548Y019382D01*
X033463Y019463D01*
X033382Y019548D01*
X033305Y019637D01*
X033232Y019730D01*
X033164Y019827D01*
X033101Y019926D01*
X033043Y020029D01*
X032990Y020134D01*
X032943Y020242D01*
X032900Y020351D01*
X032863Y020463D01*
X032832Y020577D01*
X032806Y020692D01*
X032786Y020808D01*
X032772Y020925D01*
X032763Y021042D01*
X032760Y021160D01*
X030310Y022660D02*
X030312Y022726D01*
X030318Y022791D01*
X030328Y022856D01*
X030341Y022921D01*
X030359Y022984D01*
X030380Y023047D01*
X030405Y023107D01*
X030434Y023167D01*
X030466Y023224D01*
X030501Y023280D01*
X030540Y023333D01*
X030582Y023384D01*
X030626Y023432D01*
X030674Y023477D01*
X030724Y023520D01*
X030777Y023559D01*
X030832Y023596D01*
X030889Y023629D01*
X030948Y023658D01*
X031008Y023684D01*
X031070Y023706D01*
X031133Y023725D01*
X031197Y023739D01*
X031262Y023750D01*
X031328Y023757D01*
X031394Y023760D01*
X031459Y023759D01*
X031525Y023754D01*
X031590Y023745D01*
X031655Y023732D01*
X031718Y023716D01*
X031781Y023696D01*
X031842Y023671D01*
X031902Y023644D01*
X031960Y023613D01*
X032016Y023578D01*
X032070Y023540D01*
X032121Y023499D01*
X032170Y023455D01*
X032216Y023408D01*
X032260Y023359D01*
X032300Y023307D01*
X032337Y023252D01*
X032371Y023196D01*
X032401Y023137D01*
X032428Y023077D01*
X032451Y023016D01*
X032470Y022953D01*
X032486Y022889D01*
X032498Y022824D01*
X032506Y022759D01*
X032510Y022693D01*
X032510Y022627D01*
X032506Y022561D01*
X032498Y022496D01*
X032486Y022431D01*
X032470Y022367D01*
X032451Y022304D01*
X032428Y022243D01*
X032401Y022183D01*
X032371Y022124D01*
X032337Y022068D01*
X032300Y022013D01*
X032260Y021961D01*
X032216Y021912D01*
X032170Y021865D01*
X032121Y021821D01*
X032070Y021780D01*
X032016Y021742D01*
X031960Y021707D01*
X031902Y021676D01*
X031842Y021649D01*
X031781Y021624D01*
X031718Y021604D01*
X031655Y021588D01*
X031590Y021575D01*
X031525Y021566D01*
X031459Y021561D01*
X031394Y021560D01*
X031328Y021563D01*
X031262Y021570D01*
X031197Y021581D01*
X031133Y021595D01*
X031070Y021614D01*
X031008Y021636D01*
X030948Y021662D01*
X030889Y021691D01*
X030832Y021724D01*
X030777Y021761D01*
X030724Y021800D01*
X030674Y021843D01*
X030626Y021888D01*
X030582Y021936D01*
X030540Y021987D01*
X030501Y022040D01*
X030466Y022096D01*
X030434Y022153D01*
X030405Y022213D01*
X030380Y022273D01*
X030359Y022336D01*
X030341Y022399D01*
X030328Y022464D01*
X030318Y022529D01*
X030312Y022594D01*
X030310Y022660D01*
X030760Y023010D02*
X030760Y023160D01*
X030760Y023310D01*
X030760Y023160D02*
X030910Y023160D01*
X030760Y023160D02*
X030610Y023160D01*
X030090Y020870D02*
X030090Y019950D01*
X028230Y019950D02*
X028230Y020870D01*
X036510Y022160D02*
X036810Y022160D01*
X036360Y022160D02*
X036362Y022194D01*
X036368Y022228D01*
X036377Y022261D01*
X036391Y022292D01*
X036408Y022322D01*
X036428Y022350D01*
X036451Y022375D01*
X036477Y022398D01*
X036505Y022417D01*
X036535Y022433D01*
X036567Y022445D01*
X036600Y022454D01*
X036634Y022459D01*
X036669Y022460D01*
X036703Y022457D01*
X036736Y022450D01*
X036769Y022440D01*
X036800Y022425D01*
X036829Y022408D01*
X036856Y022387D01*
X036881Y022363D01*
X036903Y022336D01*
X036921Y022308D01*
X036936Y022277D01*
X036948Y022245D01*
X036956Y022211D01*
X036960Y022177D01*
X036960Y022143D01*
X036956Y022109D01*
X036948Y022075D01*
X036936Y022043D01*
X036921Y022012D01*
X036903Y021984D01*
X036881Y021957D01*
X036856Y021933D01*
X036829Y021912D01*
X036800Y021895D01*
X036769Y021880D01*
X036736Y021870D01*
X036703Y021863D01*
X036669Y021860D01*
X036634Y021861D01*
X036600Y021866D01*
X036567Y021875D01*
X036535Y021887D01*
X036505Y021903D01*
X036477Y021922D01*
X036451Y021945D01*
X036428Y021970D01*
X036408Y021998D01*
X036391Y022028D01*
X036377Y022059D01*
X036368Y022092D01*
X036362Y022126D01*
X036360Y022160D01*
X036660Y022010D02*
X036660Y022310D01*
X046780Y017150D02*
X046920Y017290D01*
X049540Y017290D01*
X049540Y014530D01*
X046780Y014530D01*
X046780Y017150D01*
X046939Y016990D02*
X046941Y017013D01*
X046947Y017036D01*
X046956Y017057D01*
X046969Y017077D01*
X046985Y017094D01*
X047003Y017108D01*
X047023Y017119D01*
X047045Y017127D01*
X047068Y017131D01*
X047092Y017131D01*
X047115Y017127D01*
X047137Y017119D01*
X047157Y017108D01*
X047175Y017094D01*
X047191Y017077D01*
X047204Y017057D01*
X047213Y017036D01*
X047219Y017013D01*
X047221Y016990D01*
X047219Y016967D01*
X047213Y016944D01*
X047204Y016923D01*
X047191Y016903D01*
X047175Y016886D01*
X047157Y016872D01*
X047137Y016861D01*
X047115Y016853D01*
X047092Y016849D01*
X047068Y016849D01*
X047045Y016853D01*
X047023Y016861D01*
X047003Y016872D01*
X046985Y016886D01*
X046969Y016903D01*
X046956Y016923D01*
X046947Y016944D01*
X046941Y016967D01*
X046939Y016990D01*
X053410Y023510D02*
X053410Y026810D01*
X057410Y026810D01*
X057410Y023510D01*
X053410Y023510D01*
X058060Y025410D02*
X058062Y025483D01*
X058068Y025556D01*
X058078Y025628D01*
X058092Y025700D01*
X058109Y025771D01*
X058131Y025841D01*
X058156Y025910D01*
X058185Y025977D01*
X058217Y026042D01*
X058253Y026106D01*
X058293Y026168D01*
X058335Y026227D01*
X058381Y026284D01*
X058430Y026338D01*
X058482Y026390D01*
X058536Y026439D01*
X058593Y026485D01*
X058652Y026527D01*
X058714Y026567D01*
X058778Y026603D01*
X058843Y026635D01*
X058910Y026664D01*
X058979Y026689D01*
X059049Y026711D01*
X059120Y026728D01*
X059192Y026742D01*
X059264Y026752D01*
X059337Y026758D01*
X059410Y026760D01*
X059483Y026758D01*
X059556Y026752D01*
X059628Y026742D01*
X059700Y026728D01*
X059771Y026711D01*
X059841Y026689D01*
X059910Y026664D01*
X059977Y026635D01*
X060042Y026603D01*
X060106Y026567D01*
X060168Y026527D01*
X060227Y026485D01*
X060284Y026439D01*
X060338Y026390D01*
X060390Y026338D01*
X060439Y026284D01*
X060485Y026227D01*
X060527Y026168D01*
X060567Y026106D01*
X060603Y026042D01*
X060635Y025977D01*
X060664Y025910D01*
X060689Y025841D01*
X060711Y025771D01*
X060728Y025700D01*
X060742Y025628D01*
X060752Y025556D01*
X060758Y025483D01*
X060760Y025410D01*
X060758Y025337D01*
X060752Y025264D01*
X060742Y025192D01*
X060728Y025120D01*
X060711Y025049D01*
X060689Y024979D01*
X060664Y024910D01*
X060635Y024843D01*
X060603Y024778D01*
X060567Y024714D01*
X060527Y024652D01*
X060485Y024593D01*
X060439Y024536D01*
X060390Y024482D01*
X060338Y024430D01*
X060284Y024381D01*
X060227Y024335D01*
X060168Y024293D01*
X060106Y024253D01*
X060042Y024217D01*
X059977Y024185D01*
X059910Y024156D01*
X059841Y024131D01*
X059771Y024109D01*
X059700Y024092D01*
X059628Y024078D01*
X059556Y024068D01*
X059483Y024062D01*
X059410Y024060D01*
X059337Y024062D01*
X059264Y024068D01*
X059192Y024078D01*
X059120Y024092D01*
X059049Y024109D01*
X058979Y024131D01*
X058910Y024156D01*
X058843Y024185D01*
X058778Y024217D01*
X058714Y024253D01*
X058652Y024293D01*
X058593Y024335D01*
X058536Y024381D01*
X058482Y024430D01*
X058430Y024482D01*
X058381Y024536D01*
X058335Y024593D01*
X058293Y024652D01*
X058253Y024714D01*
X058217Y024778D01*
X058185Y024843D01*
X058156Y024910D01*
X058131Y024979D01*
X058109Y025049D01*
X058092Y025120D01*
X058078Y025192D01*
X058068Y025264D01*
X058062Y025337D01*
X058060Y025410D01*
X058542Y028674D02*
X058778Y028674D01*
X058778Y029146D02*
X058542Y029146D01*
X052278Y030674D02*
X052042Y030674D01*
X052042Y031146D02*
X052278Y031146D01*
X049310Y031110D02*
X047010Y031110D01*
X046959Y031108D01*
X046908Y031103D01*
X046858Y031093D01*
X046808Y031080D01*
X046760Y031064D01*
X046713Y031044D01*
X046667Y031020D01*
X046624Y030994D01*
X046582Y030964D01*
X046543Y030931D01*
X046506Y030896D01*
X046472Y030858D01*
X046441Y030817D01*
X046412Y030775D01*
X046387Y030730D01*
X046366Y030684D01*
X046347Y030636D01*
X046333Y030587D01*
X046322Y030537D01*
X046314Y030487D01*
X046310Y030436D01*
X046310Y030384D01*
X046314Y030333D01*
X046322Y030283D01*
X046333Y030233D01*
X046347Y030184D01*
X046366Y030136D01*
X046387Y030090D01*
X046412Y030045D01*
X046441Y030003D01*
X046472Y029962D01*
X046506Y029924D01*
X046543Y029889D01*
X046582Y029856D01*
X046624Y029826D01*
X046667Y029800D01*
X046713Y029776D01*
X046760Y029756D01*
X046808Y029740D01*
X046858Y029727D01*
X046908Y029717D01*
X046959Y029712D01*
X047010Y029710D01*
X049310Y029710D01*
X048410Y030060D02*
X048410Y030410D01*
X048660Y030410D01*
X048410Y030410D02*
X048410Y030760D01*
X048260Y030760D02*
X048260Y030060D01*
X048060Y030060D01*
X048060Y030760D01*
X048260Y030760D01*
X047910Y030760D02*
X047910Y030410D01*
X047660Y030410D01*
X047910Y030410D02*
X047910Y030060D01*
X049310Y029710D02*
X049361Y029712D01*
X049412Y029717D01*
X049462Y029727D01*
X049512Y029740D01*
X049560Y029756D01*
X049607Y029776D01*
X049653Y029800D01*
X049696Y029826D01*
X049738Y029856D01*
X049777Y029889D01*
X049814Y029924D01*
X049848Y029962D01*
X049879Y030003D01*
X049908Y030045D01*
X049933Y030090D01*
X049954Y030136D01*
X049973Y030184D01*
X049987Y030233D01*
X049998Y030283D01*
X050006Y030333D01*
X050010Y030384D01*
X050010Y030436D01*
X050006Y030487D01*
X049998Y030537D01*
X049987Y030587D01*
X049973Y030636D01*
X049954Y030684D01*
X049933Y030730D01*
X049908Y030775D01*
X049879Y030817D01*
X049848Y030858D01*
X049814Y030896D01*
X049777Y030931D01*
X049738Y030964D01*
X049696Y030994D01*
X049653Y031020D01*
X049607Y031044D01*
X049560Y031064D01*
X049512Y031080D01*
X049462Y031093D01*
X049412Y031103D01*
X049361Y031108D01*
X049310Y031110D01*
X045060Y030710D02*
X045111Y030712D01*
X045162Y030717D01*
X045212Y030727D01*
X045262Y030740D01*
X045310Y030756D01*
X045357Y030776D01*
X045403Y030800D01*
X045446Y030826D01*
X045488Y030856D01*
X045527Y030889D01*
X045564Y030924D01*
X045598Y030962D01*
X045629Y031003D01*
X045658Y031045D01*
X045683Y031090D01*
X045704Y031136D01*
X045723Y031184D01*
X045737Y031233D01*
X045748Y031283D01*
X045756Y031333D01*
X045760Y031384D01*
X045760Y031436D01*
X045756Y031487D01*
X045748Y031537D01*
X045737Y031587D01*
X045723Y031636D01*
X045704Y031684D01*
X045683Y031730D01*
X045658Y031775D01*
X045629Y031817D01*
X045598Y031858D01*
X045564Y031896D01*
X045527Y031931D01*
X045488Y031964D01*
X045446Y031994D01*
X045403Y032020D01*
X045357Y032044D01*
X045310Y032064D01*
X045262Y032080D01*
X045212Y032093D01*
X045162Y032103D01*
X045111Y032108D01*
X045060Y032110D01*
X042760Y032110D01*
X043660Y031760D02*
X043660Y031410D01*
X043410Y031410D01*
X043660Y031410D02*
X043660Y031060D01*
X043810Y031060D02*
X043810Y031760D01*
X044010Y031760D01*
X044010Y031060D01*
X043810Y031060D01*
X044160Y031060D02*
X044160Y031410D01*
X044410Y031410D01*
X044160Y031410D02*
X044160Y031760D01*
X042760Y032110D02*
X042709Y032108D01*
X042658Y032103D01*
X042608Y032093D01*
X042558Y032080D01*
X042510Y032064D01*
X042463Y032044D01*
X042417Y032020D01*
X042374Y031994D01*
X042332Y031964D01*
X042293Y031931D01*
X042256Y031896D01*
X042222Y031858D01*
X042191Y031817D01*
X042162Y031775D01*
X042137Y031730D01*
X042116Y031684D01*
X042097Y031636D01*
X042083Y031587D01*
X042072Y031537D01*
X042064Y031487D01*
X042060Y031436D01*
X042060Y031384D01*
X042064Y031333D01*
X042072Y031283D01*
X042083Y031233D01*
X042097Y031184D01*
X042116Y031136D01*
X042137Y031090D01*
X042162Y031045D01*
X042191Y031003D01*
X042222Y030962D01*
X042256Y030924D01*
X042293Y030889D01*
X042332Y030856D01*
X042374Y030826D01*
X042417Y030800D01*
X042463Y030776D01*
X042510Y030756D01*
X042558Y030740D01*
X042608Y030727D01*
X042658Y030717D01*
X042709Y030712D01*
X042760Y030710D01*
X045060Y030710D01*
X040160Y030852D02*
X040160Y031967D01*
X040158Y031990D01*
X040153Y032013D01*
X040144Y032035D01*
X040131Y032055D01*
X040116Y032073D01*
X040098Y032088D01*
X040078Y032101D01*
X040056Y032110D01*
X040033Y032115D01*
X040010Y032117D01*
X036310Y032118D01*
X036287Y032116D01*
X036264Y032111D01*
X036242Y032102D01*
X036222Y032089D01*
X036204Y032074D01*
X036189Y032056D01*
X036176Y032036D01*
X036167Y032014D01*
X036162Y031991D01*
X036160Y031968D01*
X036160Y030852D01*
X036162Y030829D01*
X036167Y030806D01*
X036176Y030784D01*
X036189Y030764D01*
X036204Y030746D01*
X036222Y030731D01*
X036242Y030718D01*
X036264Y030709D01*
X036287Y030704D01*
X036310Y030702D01*
X040010Y030702D01*
X040033Y030704D01*
X040056Y030709D01*
X040078Y030718D01*
X040098Y030731D01*
X040116Y030746D01*
X040131Y030764D01*
X040144Y030784D01*
X040153Y030806D01*
X040158Y030829D01*
X040160Y030852D01*
X035660Y032910D02*
X035410Y032660D01*
X034910Y032660D01*
X034660Y032910D01*
X034410Y032660D01*
X033910Y032660D01*
X033660Y032910D01*
X033660Y033410D01*
X033910Y033660D01*
X034410Y033660D01*
X034660Y033410D01*
X034910Y033660D01*
X035410Y033660D01*
X035660Y033410D01*
X035660Y032910D01*
X046542Y034674D02*
X046778Y034674D01*
X046778Y035146D02*
X046542Y035146D01*
X033028Y012646D02*
X032792Y012646D01*
X032792Y012174D02*
X033028Y012174D01*
X033542Y008396D02*
X033778Y008396D01*
X033778Y007924D02*
X033542Y007924D01*
X034980Y007596D02*
X035140Y007596D01*
X035140Y007124D02*
X034980Y007124D01*
X036292Y007174D02*
X036528Y007174D01*
X036528Y007646D02*
X036292Y007646D01*
X058060Y002160D02*
X058062Y002233D01*
X058068Y002306D01*
X058078Y002378D01*
X058092Y002450D01*
X058109Y002521D01*
X058131Y002591D01*
X058156Y002660D01*
X058185Y002727D01*
X058217Y002792D01*
X058253Y002856D01*
X058293Y002918D01*
X058335Y002977D01*
X058381Y003034D01*
X058430Y003088D01*
X058482Y003140D01*
X058536Y003189D01*
X058593Y003235D01*
X058652Y003277D01*
X058714Y003317D01*
X058778Y003353D01*
X058843Y003385D01*
X058910Y003414D01*
X058979Y003439D01*
X059049Y003461D01*
X059120Y003478D01*
X059192Y003492D01*
X059264Y003502D01*
X059337Y003508D01*
X059410Y003510D01*
X059483Y003508D01*
X059556Y003502D01*
X059628Y003492D01*
X059700Y003478D01*
X059771Y003461D01*
X059841Y003439D01*
X059910Y003414D01*
X059977Y003385D01*
X060042Y003353D01*
X060106Y003317D01*
X060168Y003277D01*
X060227Y003235D01*
X060284Y003189D01*
X060338Y003140D01*
X060390Y003088D01*
X060439Y003034D01*
X060485Y002977D01*
X060527Y002918D01*
X060567Y002856D01*
X060603Y002792D01*
X060635Y002727D01*
X060664Y002660D01*
X060689Y002591D01*
X060711Y002521D01*
X060728Y002450D01*
X060742Y002378D01*
X060752Y002306D01*
X060758Y002233D01*
X060760Y002160D01*
X060758Y002087D01*
X060752Y002014D01*
X060742Y001942D01*
X060728Y001870D01*
X060711Y001799D01*
X060689Y001729D01*
X060664Y001660D01*
X060635Y001593D01*
X060603Y001528D01*
X060567Y001464D01*
X060527Y001402D01*
X060485Y001343D01*
X060439Y001286D01*
X060390Y001232D01*
X060338Y001180D01*
X060284Y001131D01*
X060227Y001085D01*
X060168Y001043D01*
X060106Y001003D01*
X060042Y000967D01*
X059977Y000935D01*
X059910Y000906D01*
X059841Y000881D01*
X059771Y000859D01*
X059700Y000842D01*
X059628Y000828D01*
X059556Y000818D01*
X059483Y000812D01*
X059410Y000810D01*
X059337Y000812D01*
X059264Y000818D01*
X059192Y000828D01*
X059120Y000842D01*
X059049Y000859D01*
X058979Y000881D01*
X058910Y000906D01*
X058843Y000935D01*
X058778Y000967D01*
X058714Y001003D01*
X058652Y001043D01*
X058593Y001085D01*
X058536Y001131D01*
X058482Y001180D01*
X058430Y001232D01*
X058381Y001286D01*
X058335Y001343D01*
X058293Y001402D01*
X058253Y001464D01*
X058217Y001528D01*
X058185Y001593D01*
X058156Y001660D01*
X058131Y001729D01*
X058109Y001799D01*
X058092Y001870D01*
X058078Y001942D01*
X058068Y002014D01*
X058062Y002087D01*
X058060Y002160D01*
X001060Y002160D02*
X001062Y002233D01*
X001068Y002306D01*
X001078Y002378D01*
X001092Y002450D01*
X001109Y002521D01*
X001131Y002591D01*
X001156Y002660D01*
X001185Y002727D01*
X001217Y002792D01*
X001253Y002856D01*
X001293Y002918D01*
X001335Y002977D01*
X001381Y003034D01*
X001430Y003088D01*
X001482Y003140D01*
X001536Y003189D01*
X001593Y003235D01*
X001652Y003277D01*
X001714Y003317D01*
X001778Y003353D01*
X001843Y003385D01*
X001910Y003414D01*
X001979Y003439D01*
X002049Y003461D01*
X002120Y003478D01*
X002192Y003492D01*
X002264Y003502D01*
X002337Y003508D01*
X002410Y003510D01*
X002483Y003508D01*
X002556Y003502D01*
X002628Y003492D01*
X002700Y003478D01*
X002771Y003461D01*
X002841Y003439D01*
X002910Y003414D01*
X002977Y003385D01*
X003042Y003353D01*
X003106Y003317D01*
X003168Y003277D01*
X003227Y003235D01*
X003284Y003189D01*
X003338Y003140D01*
X003390Y003088D01*
X003439Y003034D01*
X003485Y002977D01*
X003527Y002918D01*
X003567Y002856D01*
X003603Y002792D01*
X003635Y002727D01*
X003664Y002660D01*
X003689Y002591D01*
X003711Y002521D01*
X003728Y002450D01*
X003742Y002378D01*
X003752Y002306D01*
X003758Y002233D01*
X003760Y002160D01*
X003758Y002087D01*
X003752Y002014D01*
X003742Y001942D01*
X003728Y001870D01*
X003711Y001799D01*
X003689Y001729D01*
X003664Y001660D01*
X003635Y001593D01*
X003603Y001528D01*
X003567Y001464D01*
X003527Y001402D01*
X003485Y001343D01*
X003439Y001286D01*
X003390Y001232D01*
X003338Y001180D01*
X003284Y001131D01*
X003227Y001085D01*
X003168Y001043D01*
X003106Y001003D01*
X003042Y000967D01*
X002977Y000935D01*
X002910Y000906D01*
X002841Y000881D01*
X002771Y000859D01*
X002700Y000842D01*
X002628Y000828D01*
X002556Y000818D01*
X002483Y000812D01*
X002410Y000810D01*
X002337Y000812D01*
X002264Y000818D01*
X002192Y000828D01*
X002120Y000842D01*
X002049Y000859D01*
X001979Y000881D01*
X001910Y000906D01*
X001843Y000935D01*
X001778Y000967D01*
X001714Y001003D01*
X001652Y001043D01*
X001593Y001085D01*
X001536Y001131D01*
X001482Y001180D01*
X001430Y001232D01*
X001381Y001286D01*
X001335Y001343D01*
X001293Y001402D01*
X001253Y001464D01*
X001217Y001528D01*
X001185Y001593D01*
X001156Y001660D01*
X001131Y001729D01*
X001109Y001799D01*
X001092Y001870D01*
X001078Y001942D01*
X001068Y002014D01*
X001062Y002087D01*
X001060Y002160D01*
X001060Y025410D02*
X001062Y025483D01*
X001068Y025556D01*
X001078Y025628D01*
X001092Y025700D01*
X001109Y025771D01*
X001131Y025841D01*
X001156Y025910D01*
X001185Y025977D01*
X001217Y026042D01*
X001253Y026106D01*
X001293Y026168D01*
X001335Y026227D01*
X001381Y026284D01*
X001430Y026338D01*
X001482Y026390D01*
X001536Y026439D01*
X001593Y026485D01*
X001652Y026527D01*
X001714Y026567D01*
X001778Y026603D01*
X001843Y026635D01*
X001910Y026664D01*
X001979Y026689D01*
X002049Y026711D01*
X002120Y026728D01*
X002192Y026742D01*
X002264Y026752D01*
X002337Y026758D01*
X002410Y026760D01*
X002483Y026758D01*
X002556Y026752D01*
X002628Y026742D01*
X002700Y026728D01*
X002771Y026711D01*
X002841Y026689D01*
X002910Y026664D01*
X002977Y026635D01*
X003042Y026603D01*
X003106Y026567D01*
X003168Y026527D01*
X003227Y026485D01*
X003284Y026439D01*
X003338Y026390D01*
X003390Y026338D01*
X003439Y026284D01*
X003485Y026227D01*
X003527Y026168D01*
X003567Y026106D01*
X003603Y026042D01*
X003635Y025977D01*
X003664Y025910D01*
X003689Y025841D01*
X003711Y025771D01*
X003728Y025700D01*
X003742Y025628D01*
X003752Y025556D01*
X003758Y025483D01*
X003760Y025410D01*
X003758Y025337D01*
X003752Y025264D01*
X003742Y025192D01*
X003728Y025120D01*
X003711Y025049D01*
X003689Y024979D01*
X003664Y024910D01*
X003635Y024843D01*
X003603Y024778D01*
X003567Y024714D01*
X003527Y024652D01*
X003485Y024593D01*
X003439Y024536D01*
X003390Y024482D01*
X003338Y024430D01*
X003284Y024381D01*
X003227Y024335D01*
X003168Y024293D01*
X003106Y024253D01*
X003042Y024217D01*
X002977Y024185D01*
X002910Y024156D01*
X002841Y024131D01*
X002771Y024109D01*
X002700Y024092D01*
X002628Y024078D01*
X002556Y024068D01*
X002483Y024062D01*
X002410Y024060D01*
X002337Y024062D01*
X002264Y024068D01*
X002192Y024078D01*
X002120Y024092D01*
X002049Y024109D01*
X001979Y024131D01*
X001910Y024156D01*
X001843Y024185D01*
X001778Y024217D01*
X001714Y024253D01*
X001652Y024293D01*
X001593Y024335D01*
X001536Y024381D01*
X001482Y024430D01*
X001430Y024482D01*
X001381Y024536D01*
X001335Y024593D01*
X001293Y024652D01*
X001253Y024714D01*
X001217Y024778D01*
X001185Y024843D01*
X001156Y024910D01*
X001131Y024979D01*
X001109Y025049D01*
X001092Y025120D01*
X001078Y025192D01*
X001068Y025264D01*
X001062Y025337D01*
X001060Y025410D01*
D14*
X001780Y002160D02*
X001782Y002210D01*
X001788Y002260D01*
X001798Y002309D01*
X001812Y002357D01*
X001829Y002404D01*
X001850Y002449D01*
X001875Y002493D01*
X001903Y002534D01*
X001935Y002573D01*
X001969Y002610D01*
X002006Y002644D01*
X002046Y002674D01*
X002088Y002701D01*
X002132Y002725D01*
X002178Y002746D01*
X002225Y002762D01*
X002273Y002775D01*
X002323Y002784D01*
X002372Y002789D01*
X002423Y002790D01*
X002473Y002787D01*
X002522Y002780D01*
X002571Y002769D01*
X002619Y002754D01*
X002665Y002736D01*
X002710Y002714D01*
X002753Y002688D01*
X002794Y002659D01*
X002833Y002627D01*
X002869Y002592D01*
X002901Y002554D01*
X002931Y002514D01*
X002958Y002471D01*
X002981Y002427D01*
X003000Y002381D01*
X003016Y002333D01*
X003028Y002284D01*
X003036Y002235D01*
X003040Y002185D01*
X003040Y002135D01*
X003036Y002085D01*
X003028Y002036D01*
X003016Y001987D01*
X003000Y001939D01*
X002981Y001893D01*
X002958Y001849D01*
X002931Y001806D01*
X002901Y001766D01*
X002869Y001728D01*
X002833Y001693D01*
X002794Y001661D01*
X002753Y001632D01*
X002710Y001606D01*
X002665Y001584D01*
X002619Y001566D01*
X002571Y001551D01*
X002522Y001540D01*
X002473Y001533D01*
X002423Y001530D01*
X002372Y001531D01*
X002323Y001536D01*
X002273Y001545D01*
X002225Y001558D01*
X002178Y001574D01*
X002132Y001595D01*
X002088Y001619D01*
X002046Y001646D01*
X002006Y001676D01*
X001969Y001710D01*
X001935Y001747D01*
X001903Y001786D01*
X001875Y001827D01*
X001850Y001871D01*
X001829Y001916D01*
X001812Y001963D01*
X001798Y002011D01*
X001788Y002060D01*
X001782Y002110D01*
X001780Y002160D01*
X031958Y017910D02*
X032361Y017516D01*
X032361Y018304D01*
X031958Y017910D01*
X031871Y019609D02*
X032186Y019609D01*
X032186Y019845D01*
X032186Y020475D02*
X032186Y020711D01*
X031871Y020711D01*
X028393Y020020D02*
X028395Y020035D01*
X028401Y020048D01*
X028410Y020060D01*
X028421Y020069D01*
X028435Y020075D01*
X028450Y020077D01*
X028465Y020075D01*
X028478Y020069D01*
X028490Y020060D01*
X028499Y020049D01*
X028505Y020035D01*
X028507Y020020D01*
X028505Y020005D01*
X028499Y019992D01*
X028490Y019980D01*
X028479Y019971D01*
X028465Y019965D01*
X028450Y019963D01*
X028435Y019965D01*
X028422Y019971D01*
X028410Y019980D01*
X028401Y019991D01*
X028395Y020005D01*
X028393Y020020D01*
X035424Y010540D02*
X035896Y010540D01*
X036644Y010028D02*
X036644Y009792D01*
X035896Y009280D02*
X035424Y009280D01*
X034676Y009792D02*
X034676Y010028D01*
X046556Y010268D02*
X046556Y006556D01*
X050264Y006556D01*
X050264Y010268D01*
X046556Y010268D01*
X052360Y011580D02*
X054860Y011580D01*
X056160Y011580D02*
X060960Y011580D01*
X060960Y005240D01*
X056160Y005240D01*
X054860Y005240D02*
X052360Y005240D01*
X052360Y011580D01*
X058780Y002160D02*
X058782Y002210D01*
X058788Y002260D01*
X058798Y002309D01*
X058812Y002357D01*
X058829Y002404D01*
X058850Y002449D01*
X058875Y002493D01*
X058903Y002534D01*
X058935Y002573D01*
X058969Y002610D01*
X059006Y002644D01*
X059046Y002674D01*
X059088Y002701D01*
X059132Y002725D01*
X059178Y002746D01*
X059225Y002762D01*
X059273Y002775D01*
X059323Y002784D01*
X059372Y002789D01*
X059423Y002790D01*
X059473Y002787D01*
X059522Y002780D01*
X059571Y002769D01*
X059619Y002754D01*
X059665Y002736D01*
X059710Y002714D01*
X059753Y002688D01*
X059794Y002659D01*
X059833Y002627D01*
X059869Y002592D01*
X059901Y002554D01*
X059931Y002514D01*
X059958Y002471D01*
X059981Y002427D01*
X060000Y002381D01*
X060016Y002333D01*
X060028Y002284D01*
X060036Y002235D01*
X060040Y002185D01*
X060040Y002135D01*
X060036Y002085D01*
X060028Y002036D01*
X060016Y001987D01*
X060000Y001939D01*
X059981Y001893D01*
X059958Y001849D01*
X059931Y001806D01*
X059901Y001766D01*
X059869Y001728D01*
X059833Y001693D01*
X059794Y001661D01*
X059753Y001632D01*
X059710Y001606D01*
X059665Y001584D01*
X059619Y001566D01*
X059571Y001551D01*
X059522Y001540D01*
X059473Y001533D01*
X059423Y001530D01*
X059372Y001531D01*
X059323Y001536D01*
X059273Y001545D01*
X059225Y001558D01*
X059178Y001574D01*
X059132Y001595D01*
X059088Y001619D01*
X059046Y001646D01*
X059006Y001676D01*
X058969Y001710D01*
X058935Y001747D01*
X058903Y001786D01*
X058875Y001827D01*
X058850Y001871D01*
X058829Y001916D01*
X058812Y001963D01*
X058798Y002011D01*
X058788Y002060D01*
X058782Y002110D01*
X058780Y002160D01*
X050928Y024215D02*
X050642Y024215D01*
X050642Y026105D02*
X050928Y026105D01*
X058780Y025410D02*
X058782Y025460D01*
X058788Y025510D01*
X058798Y025559D01*
X058812Y025607D01*
X058829Y025654D01*
X058850Y025699D01*
X058875Y025743D01*
X058903Y025784D01*
X058935Y025823D01*
X058969Y025860D01*
X059006Y025894D01*
X059046Y025924D01*
X059088Y025951D01*
X059132Y025975D01*
X059178Y025996D01*
X059225Y026012D01*
X059273Y026025D01*
X059323Y026034D01*
X059372Y026039D01*
X059423Y026040D01*
X059473Y026037D01*
X059522Y026030D01*
X059571Y026019D01*
X059619Y026004D01*
X059665Y025986D01*
X059710Y025964D01*
X059753Y025938D01*
X059794Y025909D01*
X059833Y025877D01*
X059869Y025842D01*
X059901Y025804D01*
X059931Y025764D01*
X059958Y025721D01*
X059981Y025677D01*
X060000Y025631D01*
X060016Y025583D01*
X060028Y025534D01*
X060036Y025485D01*
X060040Y025435D01*
X060040Y025385D01*
X060036Y025335D01*
X060028Y025286D01*
X060016Y025237D01*
X060000Y025189D01*
X059981Y025143D01*
X059958Y025099D01*
X059931Y025056D01*
X059901Y025016D01*
X059869Y024978D01*
X059833Y024943D01*
X059794Y024911D01*
X059753Y024882D01*
X059710Y024856D01*
X059665Y024834D01*
X059619Y024816D01*
X059571Y024801D01*
X059522Y024790D01*
X059473Y024783D01*
X059423Y024780D01*
X059372Y024781D01*
X059323Y024786D01*
X059273Y024795D01*
X059225Y024808D01*
X059178Y024824D01*
X059132Y024845D01*
X059088Y024869D01*
X059046Y024896D01*
X059006Y024926D01*
X058969Y024960D01*
X058935Y024997D01*
X058903Y025036D01*
X058875Y025077D01*
X058850Y025121D01*
X058829Y025166D01*
X058812Y025213D01*
X058798Y025261D01*
X058788Y025310D01*
X058782Y025360D01*
X058780Y025410D01*
X052264Y031904D02*
X051713Y031904D01*
X051713Y032416D01*
X052264Y032416D01*
X051713Y032416D02*
X051556Y032416D01*
X051556Y031904D02*
X051713Y031904D01*
X053109Y034121D02*
X053109Y034436D01*
X053345Y034436D01*
X053975Y034436D02*
X054211Y034436D01*
X054211Y034121D01*
X045160Y034160D02*
X045160Y034660D01*
X039160Y034660D02*
X039160Y034160D01*
X001780Y025410D02*
X001782Y025460D01*
X001788Y025510D01*
X001798Y025559D01*
X001812Y025607D01*
X001829Y025654D01*
X001850Y025699D01*
X001875Y025743D01*
X001903Y025784D01*
X001935Y025823D01*
X001969Y025860D01*
X002006Y025894D01*
X002046Y025924D01*
X002088Y025951D01*
X002132Y025975D01*
X002178Y025996D01*
X002225Y026012D01*
X002273Y026025D01*
X002323Y026034D01*
X002372Y026039D01*
X002423Y026040D01*
X002473Y026037D01*
X002522Y026030D01*
X002571Y026019D01*
X002619Y026004D01*
X002665Y025986D01*
X002710Y025964D01*
X002753Y025938D01*
X002794Y025909D01*
X002833Y025877D01*
X002869Y025842D01*
X002901Y025804D01*
X002931Y025764D01*
X002958Y025721D01*
X002981Y025677D01*
X003000Y025631D01*
X003016Y025583D01*
X003028Y025534D01*
X003036Y025485D01*
X003040Y025435D01*
X003040Y025385D01*
X003036Y025335D01*
X003028Y025286D01*
X003016Y025237D01*
X003000Y025189D01*
X002981Y025143D01*
X002958Y025099D01*
X002931Y025056D01*
X002901Y025016D01*
X002869Y024978D01*
X002833Y024943D01*
X002794Y024911D01*
X002753Y024882D01*
X002710Y024856D01*
X002665Y024834D01*
X002619Y024816D01*
X002571Y024801D01*
X002522Y024790D01*
X002473Y024783D01*
X002423Y024780D01*
X002372Y024781D01*
X002323Y024786D01*
X002273Y024795D01*
X002225Y024808D01*
X002178Y024824D01*
X002132Y024845D01*
X002088Y024869D01*
X002046Y024896D01*
X002006Y024926D01*
X001969Y024960D01*
X001935Y024997D01*
X001903Y025036D01*
X001875Y025077D01*
X001850Y025121D01*
X001829Y025166D01*
X001812Y025213D01*
X001798Y025261D01*
X001788Y025310D01*
X001782Y025360D01*
X001780Y025410D01*
D15*
X026560Y014210D02*
X026560Y014110D01*
X026760Y014110D02*
X026760Y014210D01*
X027310Y013710D02*
X027310Y013610D01*
X027510Y013610D02*
X027510Y013710D01*
X028060Y013710D02*
X028060Y013610D01*
X028260Y013610D02*
X028260Y013710D01*
X028810Y013710D02*
X028810Y013610D01*
X029010Y013610D02*
X029010Y013710D01*
X029560Y013710D02*
X029560Y013610D01*
X029760Y013610D02*
X029760Y013710D01*
X030310Y013710D02*
X030310Y013610D01*
X030510Y013610D02*
X030510Y013710D01*
X030510Y011710D02*
X030510Y011610D01*
X030310Y011610D02*
X030310Y011710D01*
X029760Y011710D02*
X029760Y011610D01*
X029560Y011610D02*
X029560Y011710D01*
X029010Y011710D02*
X029010Y011610D01*
X028810Y011610D02*
X028810Y011710D01*
X028260Y011710D02*
X028260Y011610D01*
X028060Y011610D02*
X028060Y011710D01*
X027510Y011710D02*
X027510Y011610D01*
X027310Y011610D02*
X027310Y011710D01*
X026760Y011210D02*
X026760Y011110D01*
X026560Y011110D02*
X026560Y011210D01*
X031110Y008510D02*
X031210Y008510D01*
X031210Y008310D02*
X031110Y008310D01*
X032360Y008310D02*
X032460Y008310D01*
X032460Y008510D02*
X032360Y008510D01*
X032360Y009310D02*
X032460Y009310D01*
X032460Y009510D02*
X032360Y009510D01*
X032610Y010060D02*
X032710Y010060D01*
X032710Y010260D02*
X032610Y010260D01*
X033110Y010685D02*
X033210Y010685D01*
X033210Y010885D02*
X033110Y010885D01*
X033810Y009960D02*
X033810Y009860D01*
X034010Y009860D02*
X034010Y009960D01*
X035110Y008760D02*
X035210Y008760D01*
X035210Y008560D02*
X035110Y008560D01*
X036360Y008560D02*
X036460Y008560D01*
X036460Y008760D02*
X036360Y008760D01*
X033960Y007510D02*
X033860Y007510D01*
X033860Y007310D02*
X033960Y007310D01*
X032960Y007310D02*
X032860Y007310D01*
X032860Y007510D02*
X032960Y007510D01*
X037523Y011110D02*
X037523Y011210D01*
X037723Y011210D02*
X037723Y011110D01*
X030960Y019060D02*
X030860Y019060D01*
X030860Y019260D02*
X030960Y019260D01*
X030960Y021060D02*
X030860Y021060D01*
X030860Y021260D02*
X030960Y021260D01*
X033860Y019660D02*
X033960Y019660D01*
X033960Y019460D02*
X033860Y019460D01*
X035360Y019810D02*
X035460Y019810D01*
X035460Y020010D02*
X035360Y020010D01*
X033710Y023810D02*
X033610Y023810D01*
X033610Y024010D02*
X033710Y024010D01*
X033860Y025310D02*
X033960Y025310D01*
X033960Y025510D02*
X033860Y025510D01*
X034860Y025560D02*
X034960Y025560D01*
X034960Y025760D02*
X034860Y025760D01*
X033460Y026310D02*
X033360Y026310D01*
X033360Y026510D02*
X033460Y026510D01*
X032210Y026510D02*
X032110Y026510D01*
X032110Y026310D02*
X032210Y026310D01*
X034110Y029060D02*
X034210Y029060D01*
X034210Y029260D02*
X034110Y029260D01*
X035110Y029310D02*
X035210Y029310D01*
X035210Y029510D02*
X035110Y029510D01*
X034460Y030810D02*
X034360Y030810D01*
X034360Y031010D02*
X034460Y031010D01*
X034460Y031310D02*
X034360Y031310D01*
X034360Y031510D02*
X034460Y031510D01*
X033960Y031560D02*
X033860Y031560D01*
X033860Y031760D02*
X033960Y031760D01*
X034610Y032060D02*
X034710Y032060D01*
X034710Y032260D02*
X034610Y032260D01*
X032710Y032010D02*
X032610Y032010D01*
X032610Y031810D02*
X032710Y031810D01*
X031960Y032310D02*
X031860Y032310D01*
X031860Y032510D02*
X031960Y032510D01*
X031210Y032010D02*
X031110Y032010D01*
X031110Y031810D02*
X031210Y031810D01*
X031610Y031260D02*
X031710Y031260D01*
X031710Y031060D02*
X031610Y031060D01*
X030710Y031010D02*
X030610Y031010D01*
X030610Y030810D02*
X030710Y030810D01*
X030460Y030510D02*
X030360Y030510D01*
X030360Y030310D02*
X030460Y030310D01*
X030610Y030010D02*
X030710Y030010D01*
X030710Y029810D02*
X030610Y029810D01*
X032860Y029760D02*
X032960Y029760D01*
X032960Y029560D02*
X032860Y029560D01*
X032860Y030560D02*
X032960Y030560D01*
X032960Y030760D02*
X032860Y030760D01*
X037610Y029010D02*
X037710Y029010D01*
X037710Y028810D02*
X037610Y028810D01*
X039110Y028260D02*
X039210Y028260D01*
X039210Y028060D02*
X039110Y028060D01*
X039360Y028560D02*
X039460Y028560D01*
X039460Y028760D02*
X039360Y028760D01*
X038710Y031060D02*
X038610Y031060D01*
X038610Y031260D02*
X038710Y031260D01*
X038210Y032310D02*
X038110Y032310D01*
X038110Y032510D02*
X038210Y032510D01*
X040860Y032560D02*
X040960Y032560D01*
X040960Y032760D02*
X040860Y032760D01*
X043360Y031260D02*
X043460Y031260D01*
X043460Y031060D02*
X043360Y031060D01*
X044560Y029710D02*
X044560Y029610D01*
X044760Y029610D02*
X044760Y029710D01*
X044010Y028710D02*
X044010Y028610D01*
X043810Y028610D02*
X043810Y028710D01*
X047610Y032310D02*
X047710Y032310D01*
X047710Y032510D02*
X047610Y032510D01*
X046960Y033060D02*
X046860Y033060D01*
X046860Y033260D02*
X046960Y033260D01*
X046460Y033560D02*
X046360Y033560D01*
X046360Y033760D02*
X046460Y033760D01*
X053110Y032260D02*
X053210Y032260D01*
X053210Y032060D02*
X053110Y032060D01*
X053360Y031260D02*
X053460Y031260D01*
X053460Y031060D02*
X053360Y031060D01*
X053360Y030010D02*
X053460Y030010D01*
X053460Y029810D02*
X053360Y029810D01*
X053210Y029260D02*
X053110Y029260D01*
X053110Y029060D02*
X053210Y029060D01*
X052210Y029310D02*
X052110Y029310D01*
X052110Y029510D02*
X052210Y029510D01*
X050710Y029510D02*
X050610Y029510D01*
X050610Y029310D02*
X050710Y029310D01*
X055360Y031060D02*
X055460Y031060D01*
X055460Y031260D02*
X055360Y031260D01*
X055360Y032810D02*
X055460Y032810D01*
X055460Y033010D02*
X055360Y033010D01*
X056610Y033310D02*
X056710Y033310D01*
X056710Y033510D02*
X056610Y033510D01*
X057860Y032260D02*
X057960Y032260D01*
X057960Y032060D02*
X057860Y032060D01*
X058110Y030260D02*
X058210Y030260D01*
X058210Y030060D02*
X058110Y030060D01*
X056460Y029260D02*
X056360Y029260D01*
X056360Y029060D02*
X056460Y029060D01*
X035960Y034310D02*
X035860Y034310D01*
X035860Y034510D02*
X035960Y034510D01*
X035210Y034560D02*
X035110Y034560D01*
X035110Y034760D02*
X035210Y034760D01*
D16*
X024988Y014160D03*
X024988Y013160D03*
D17*
X047010Y029510D02*
X049310Y029510D01*
X049369Y029512D01*
X049427Y029518D01*
X049486Y029527D01*
X049543Y029541D01*
X049599Y029558D01*
X049654Y029579D01*
X049708Y029603D01*
X049760Y029631D01*
X049810Y029662D01*
X049858Y029696D01*
X049903Y029733D01*
X049946Y029774D01*
X049987Y029817D01*
X050024Y029862D01*
X050058Y029910D01*
X050089Y029960D01*
X050117Y030012D01*
X050141Y030066D01*
X050162Y030121D01*
X050179Y030177D01*
X050193Y030234D01*
X050202Y030293D01*
X050208Y030351D01*
X050210Y030410D01*
X050208Y030469D01*
X050202Y030527D01*
X050193Y030586D01*
X050179Y030643D01*
X050162Y030699D01*
X050141Y030754D01*
X050117Y030808D01*
X050089Y030860D01*
X050058Y030910D01*
X050024Y030958D01*
X049987Y031003D01*
X049946Y031046D01*
X049903Y031087D01*
X049858Y031124D01*
X049810Y031158D01*
X049760Y031189D01*
X049708Y031217D01*
X049654Y031241D01*
X049599Y031262D01*
X049543Y031279D01*
X049486Y031293D01*
X049427Y031302D01*
X049369Y031308D01*
X049310Y031310D01*
X047010Y031310D01*
X046951Y031308D01*
X046893Y031302D01*
X046834Y031293D01*
X046777Y031279D01*
X046721Y031262D01*
X046666Y031241D01*
X046612Y031217D01*
X046560Y031189D01*
X046510Y031158D01*
X046462Y031124D01*
X046417Y031087D01*
X046374Y031046D01*
X046333Y031003D01*
X046296Y030958D01*
X046262Y030910D01*
X046231Y030860D01*
X046203Y030808D01*
X046179Y030754D01*
X046158Y030699D01*
X046141Y030643D01*
X046127Y030586D01*
X046118Y030527D01*
X046112Y030469D01*
X046110Y030410D01*
X046112Y030351D01*
X046118Y030293D01*
X046127Y030234D01*
X046141Y030177D01*
X046158Y030121D01*
X046179Y030066D01*
X046203Y030012D01*
X046231Y029960D01*
X046262Y029910D01*
X046296Y029862D01*
X046333Y029817D01*
X046374Y029774D01*
X046417Y029733D01*
X046462Y029696D01*
X046510Y029662D01*
X046560Y029631D01*
X046612Y029603D01*
X046666Y029579D01*
X046721Y029558D01*
X046777Y029541D01*
X046834Y029527D01*
X046893Y029518D01*
X046951Y029512D01*
X047010Y029510D01*
X045060Y030510D02*
X042760Y030510D01*
X042701Y030512D01*
X042643Y030518D01*
X042584Y030527D01*
X042527Y030541D01*
X042471Y030558D01*
X042416Y030579D01*
X042362Y030603D01*
X042310Y030631D01*
X042260Y030662D01*
X042212Y030696D01*
X042167Y030733D01*
X042124Y030774D01*
X042083Y030817D01*
X042046Y030862D01*
X042012Y030910D01*
X041981Y030960D01*
X041953Y031012D01*
X041929Y031066D01*
X041908Y031121D01*
X041891Y031177D01*
X041877Y031234D01*
X041868Y031293D01*
X041862Y031351D01*
X041860Y031410D01*
X041862Y031469D01*
X041868Y031527D01*
X041877Y031586D01*
X041891Y031643D01*
X041908Y031699D01*
X041929Y031754D01*
X041953Y031808D01*
X041981Y031860D01*
X042012Y031910D01*
X042046Y031958D01*
X042083Y032003D01*
X042124Y032046D01*
X042167Y032087D01*
X042212Y032124D01*
X042260Y032158D01*
X042310Y032189D01*
X042362Y032217D01*
X042416Y032241D01*
X042471Y032262D01*
X042527Y032279D01*
X042584Y032293D01*
X042643Y032302D01*
X042701Y032308D01*
X042760Y032310D01*
X045060Y032310D01*
X045119Y032308D01*
X045177Y032302D01*
X045236Y032293D01*
X045293Y032279D01*
X045349Y032262D01*
X045404Y032241D01*
X045458Y032217D01*
X045510Y032189D01*
X045560Y032158D01*
X045608Y032124D01*
X045653Y032087D01*
X045696Y032046D01*
X045737Y032003D01*
X045774Y031958D01*
X045808Y031910D01*
X045839Y031860D01*
X045867Y031808D01*
X045891Y031754D01*
X045912Y031699D01*
X045929Y031643D01*
X045943Y031586D01*
X045952Y031527D01*
X045958Y031469D01*
X045960Y031410D01*
X045958Y031351D01*
X045952Y031293D01*
X045943Y031234D01*
X045929Y031177D01*
X045912Y031121D01*
X045891Y031066D01*
X045867Y031012D01*
X045839Y030960D01*
X045808Y030910D01*
X045774Y030862D01*
X045737Y030817D01*
X045696Y030774D01*
X045653Y030733D01*
X045608Y030696D01*
X045560Y030662D01*
X045510Y030631D01*
X045458Y030603D01*
X045404Y030579D01*
X045349Y030558D01*
X045293Y030541D01*
X045236Y030527D01*
X045177Y030518D01*
X045119Y030512D01*
X045060Y030510D01*
D18*
X048840Y032010D02*
X048840Y032310D01*
X048981Y032160D01*
X048980Y032160D02*
X048840Y032010D01*
X048980Y031990D02*
X048980Y032160D01*
X048980Y032330D01*
X048230Y033740D02*
X048230Y033910D01*
X048090Y033760D01*
X048090Y034060D01*
X048231Y033910D01*
X048230Y033910D02*
X048230Y034080D01*
X048340Y034760D02*
X048340Y035060D01*
X048481Y034910D01*
X048480Y034910D02*
X048340Y034760D01*
X048480Y034740D02*
X048480Y034910D01*
X048480Y035080D01*
X054090Y032060D02*
X054090Y031760D01*
X054230Y031910D01*
X054230Y032080D01*
X054090Y032060D02*
X054231Y031910D01*
X054230Y031910D02*
X054230Y031740D01*
X057590Y031560D02*
X057590Y031260D01*
X057730Y031410D01*
X057730Y031580D01*
X057590Y031560D02*
X057731Y031410D01*
X057730Y031410D02*
X057730Y031240D01*
X055480Y034240D02*
X055480Y034410D01*
X055340Y034260D01*
X055340Y034560D01*
X055481Y034410D01*
X055480Y034410D02*
X055480Y034580D01*
X049230Y028830D02*
X049230Y028660D01*
X049090Y028510D01*
X049090Y028810D01*
X049231Y028660D01*
X049230Y028660D02*
X049230Y028490D01*
X040980Y031490D02*
X040980Y031660D01*
X040840Y031510D01*
X040840Y031810D01*
X040981Y031660D01*
X040980Y031660D02*
X040980Y031830D01*
X032730Y030580D02*
X032730Y030410D01*
X032590Y030260D01*
X032590Y030560D01*
X032731Y030410D01*
X032730Y030410D02*
X032730Y030240D01*
X030730Y031990D02*
X030730Y032160D01*
X030590Y032010D01*
X030590Y032310D01*
X030731Y032160D01*
X030730Y032160D02*
X030730Y032330D01*
D19*
X036348Y030972D02*
X036350Y030987D01*
X036356Y031002D01*
X036365Y031014D01*
X036377Y031024D01*
X036391Y031031D01*
X036406Y031034D01*
X036422Y031033D01*
X036436Y031028D01*
X036450Y031020D01*
X036460Y031008D01*
X036468Y030995D01*
X036472Y030980D01*
X036472Y030964D01*
X036468Y030949D01*
X036460Y030936D01*
X036450Y030924D01*
X036436Y030916D01*
X036422Y030911D01*
X036406Y030910D01*
X036391Y030913D01*
X036377Y030920D01*
X036365Y030930D01*
X036356Y030942D01*
X036350Y030957D01*
X036348Y030972D01*
D20*
X030232Y001996D02*
X030088Y001996D01*
X030069Y001806D01*
X030005Y001785D01*
X029945Y001754D01*
X029796Y001875D01*
X029695Y001774D01*
X029816Y001625D01*
X029785Y001565D01*
X029764Y001501D01*
X029574Y001482D01*
X029574Y001338D01*
X029764Y001319D01*
X029785Y001255D01*
X029816Y001195D01*
X029695Y001046D01*
X029796Y000945D01*
X029945Y001066D01*
X030005Y001035D01*
X030089Y001239D01*
X030052Y001261D01*
X030020Y001290D01*
X029996Y001326D01*
X029981Y001367D01*
X029975Y001410D01*
X029981Y001454D01*
X029996Y001495D01*
X030021Y001532D01*
X030054Y001561D01*
X030093Y001582D01*
X030136Y001593D01*
X030180Y001593D01*
X030223Y001583D01*
X030262Y001563D01*
X030296Y001535D01*
X030322Y001499D01*
X030338Y001458D01*
X030344Y001414D01*
X030340Y001370D01*
X030325Y001328D01*
X030301Y001291D01*
X030269Y001261D01*
X030231Y001239D01*
X030315Y001035D01*
X030375Y001066D01*
X030524Y000945D01*
X030625Y001046D01*
X030504Y001195D01*
X030535Y001255D01*
X030556Y001319D01*
X030746Y001338D01*
X030746Y001482D01*
X030556Y001501D01*
X030535Y001565D01*
X030504Y001625D01*
X030625Y001774D01*
X030524Y001875D01*
X030375Y001754D01*
X030315Y001785D01*
X030251Y001806D01*
X030232Y001996D01*
X030233Y001989D02*
X030087Y001989D01*
X030081Y001932D02*
X030239Y001932D01*
X030244Y001874D02*
X030076Y001874D01*
X030070Y001816D02*
X030250Y001816D01*
X030366Y001759D02*
X029954Y001759D01*
X029939Y001759D02*
X029707Y001759D01*
X029738Y001816D02*
X029869Y001816D01*
X029798Y001874D02*
X029795Y001874D01*
X029754Y001701D02*
X030566Y001701D01*
X030520Y001644D02*
X029800Y001644D01*
X029796Y001586D02*
X030110Y001586D01*
X030211Y001586D02*
X030524Y001586D01*
X030547Y001529D02*
X030300Y001529D01*
X030333Y001471D02*
X030746Y001471D01*
X030746Y001414D02*
X030344Y001414D01*
X030335Y001356D02*
X030746Y001356D01*
X030549Y001298D02*
X030306Y001298D01*
X030233Y001241D02*
X030528Y001241D01*
X030514Y001183D02*
X030254Y001183D01*
X030278Y001126D02*
X030561Y001126D01*
X030608Y001068D02*
X030302Y001068D01*
X030443Y001011D02*
X030590Y001011D01*
X030532Y000953D02*
X030513Y000953D01*
X030042Y001126D02*
X029759Y001126D01*
X029712Y001068D02*
X030018Y001068D01*
X030066Y001183D02*
X029806Y001183D01*
X029792Y001241D02*
X030087Y001241D01*
X030014Y001298D02*
X029771Y001298D01*
X029574Y001356D02*
X029985Y001356D01*
X029976Y001414D02*
X029574Y001414D01*
X029574Y001471D02*
X029987Y001471D01*
X030019Y001529D02*
X029773Y001529D01*
X030381Y001759D02*
X030613Y001759D01*
X030582Y001816D02*
X030451Y001816D01*
X030522Y001874D02*
X030525Y001874D01*
X029877Y001011D02*
X029730Y001011D01*
X029788Y000953D02*
X029807Y000953D01*
M02*
